M48
; DRILL file {KiCad (5.1.4)-1} date 1/23/2020 11:33:47 PM
; FORMAT={-:-/ absolute / inch / decimal}
; #@! TF.CreationDate,2020-01-23T23:33:47-05:00
; #@! TF.GenerationSoftware,Kicad,Pcbnew,(5.1.4)-1
; #@! TF.FileFunction,Plated,1,2,PTH
FMAT,2
INCH
T1C0.0315
T2C0.0394
T3C0.0433
T4C0.0551
%
G90
G05
T1
X4.6Y-3.55
X5.05Y-4.65
X5.3Y-4.35
X5.3Y-4.65
X4.3Y-3.4
X4.6Y-3.4
X3.8Y-3.4
X4.1Y-3.4
X5.55Y-4.35
X5.55Y-4.65
X5.81Y-4.35
X5.81Y-4.65
X3.8Y-3.55
X4.1Y-3.55
X4.3Y-3.55
X3.55Y-4.9425
X3.55Y-5.0213
X3.55Y-5.1
X3.55Y-5.1787
X3.55Y-5.2575
X3.55Y-5.3362
X3.55Y-5.415
X3.55Y-5.4937
X5.05Y-4.35
X3.55Y-2.9988
X3.55Y-3.0776
X3.55Y-3.1563
X3.55Y-3.235
X3.55Y-3.3138
X3.55Y-3.3925
X3.55Y-3.4713
X3.55Y-3.55
T2
X5.29Y-4.89
X5.75Y-3.85
X5.75Y-3.95
X5.75Y-4.05
X5.85Y-3.85
X5.85Y-3.95
X5.85Y-4.05
X4.0534Y-4.0766
X4.1534Y-4.0766
X4.2534Y-4.0766
X4.3534Y-4.0766
X4.4534Y-4.0766
X4.5534Y-4.0766
X4.6534Y-4.0766
X4.7534Y-4.0766
X4.8534Y-4.0766
X4.9534Y-4.0766
X5.0534Y-4.0766
X5.1534Y-4.0766
X5.2534Y-4.0766
X5.3534Y-4.0766
X4.0534Y-2.8254
X4.1534Y-2.8254
X4.2534Y-2.8254
X4.3534Y-2.8254
X4.4534Y-2.8254
X4.5534Y-2.8254
X4.6534Y-2.8254
X4.7534Y-2.8254
X4.8534Y-2.8254
X4.9534Y-2.8254
X5.0534Y-2.8254
X5.1534Y-2.8254
X5.2534Y-2.8254
X5.3534Y-2.8254
X4.19Y-4.89
X4.19Y-4.99
X4.19Y-5.09
X4.19Y-5.19
X4.19Y-5.29
X4.19Y-5.39
X4.19Y-5.49
X4.19Y-5.59
X5.62Y-2.85
X5.62Y-2.95
X5.84Y-2.85
X5.84Y-2.95
X5.29Y-5.59
X4.0534Y-3.101
X4.1534Y-3.101
X4.2534Y-3.101
X4.3534Y-3.101
X4.4534Y-3.101
X4.5534Y-3.101
X4.6534Y-3.101
X4.7534Y-3.101
X4.8534Y-3.101
X4.9534Y-3.101
X5.0534Y-3.101
X5.1534Y-3.101
X5.2534Y-3.101
X5.3534Y-3.101
X6.05Y-2.85
X6.05Y-2.95
X4.29Y-4.89
X4.39Y-4.89
X3.99Y-4.89
X3.99Y-4.99
X3.99Y-5.09
X3.99Y-5.19
X3.99Y-5.29
X3.99Y-5.39
X3.99Y-5.49
X3.99Y-5.59
X4.0534Y-3.801
X4.1534Y-3.801
X4.2534Y-3.801
X4.3534Y-3.801
X4.4534Y-3.801
X4.5534Y-3.801
X4.6534Y-3.801
X4.7534Y-3.801
X4.8534Y-3.801
X4.9534Y-3.801
X5.0534Y-3.801
X5.1534Y-3.801
X5.2534Y-3.801
X5.3534Y-3.801
T3
X6.45Y-5.45
X6.45Y-5.55
X6.45Y-5.65
T4
X6.45Y-2.8
X6.45Y-3.0
X6.45Y-3.2
X6.45Y-4.3
X6.45Y-4.5
X6.45Y-4.7
X6.45Y-5.0
X6.45Y-5.2
X6.45Y-3.55
X6.45Y-3.75
X6.45Y-3.95
T0
M30
