G04 EAGLE Gerber RS-274X export*
G75*
%MOMM*%
%FSLAX34Y34*%
%LPD*%
%INTop Copper*%
%IPPOS*%
%AMOC8*
5,1,8,0,0,1.08239X$1,22.5*%
G01*
%ADD10R,1.270000X2.540000*%
%ADD11R,1.000000X1.100000*%
%ADD12R,1.475000X0.450000*%
%ADD13R,1.100000X1.000000*%
%ADD14C,0.152400*%


D10*
X-30480Y-43180D03*
D11*
X50800Y-8500D03*
X50800Y8500D03*
D10*
X0Y-43180D03*
D12*
X-29380Y19500D03*
X-29380Y13000D03*
X-29380Y6500D03*
X-29380Y0D03*
X-29380Y-6500D03*
X-29380Y-13000D03*
X-29380Y-19500D03*
X29380Y-19500D03*
X29380Y-13000D03*
X29380Y-6500D03*
X29380Y0D03*
X29380Y6500D03*
X29380Y13000D03*
X29380Y19500D03*
D13*
X8500Y38100D03*
X-8500Y38100D03*
D11*
X-76200Y-8500D03*
X-76200Y8500D03*
X-53340Y-8500D03*
X-53340Y8500D03*
D10*
X30480Y-43180D03*
D14*
X50800Y8500D02*
X46600Y12700D01*
X29680Y12700D01*
X29380Y13000D01*
X-53340Y-8500D02*
X-76200Y-8500D01*
X-51340Y-6500D02*
X-29380Y-6500D01*
X-51340Y-6500D02*
X-53340Y-8500D01*
X-29380Y-6500D02*
X-20320Y-6500D01*
X7782Y13000D02*
X29380Y13000D01*
X0Y-26820D02*
X0Y-38100D01*
X0Y-26820D02*
X-20320Y-6500D01*
X0Y-43180D02*
X0Y-45720D01*
X0Y-26820D02*
X0Y5080D01*
X7920Y13000D01*
X29380Y6500D02*
X29380Y0D01*
X60960Y1660D02*
X60960Y15240D01*
X11040Y35560D02*
X8500Y38100D01*
X11040Y35560D02*
X27940Y35560D01*
X45720Y17780D02*
X58420Y17780D01*
X45720Y17780D02*
X27940Y35560D01*
X58420Y17780D02*
X60960Y15240D01*
X42300Y0D02*
X50800Y-8500D01*
X42300Y0D02*
X29380Y0D01*
X50800Y-8500D02*
X60960Y1660D01*
X30480Y-33020D02*
X30480Y-43180D01*
X50800Y-12700D02*
X50800Y-8500D01*
X50800Y-12700D02*
X30480Y-33020D01*
X-27100Y19500D02*
X-8500Y38100D01*
X-27100Y19500D02*
X-29380Y19500D01*
X-29380Y13000D02*
X-29680Y12700D01*
X-29380Y13000D02*
X-38400Y13000D01*
X-43180Y17780D01*
X-71120Y17780D01*
X-76200Y12700D01*
X-76200Y8500D01*
X-53340Y8500D02*
X-44840Y0D01*
X-29380Y0D01*
X-29380Y-19500D02*
X-29380Y-34460D01*
X-30480Y-35560D01*
M02*
