G04 EAGLE Gerber RS-274X export*
G75*
%MOMM*%
%FSLAX34Y34*%
%LPD*%
%INSilkscreen Top*%
%IPPOS*%
%AMOC8*
5,1,8,0,0,1.08239X$1,22.5*%
G01*
%ADD10C,0.127000*%
%ADD11C,0.101600*%
%ADD12C,0.076200*%
%ADD13C,0.558800*%
%ADD14C,0.025400*%
%ADD15C,0.200000*%
%ADD16R,0.457200X0.762000*%
%ADD17R,0.762000X0.457200*%


D10*
X-96520Y-76200D02*
X-40640Y-76200D01*
X-40640Y-20320D01*
X-96520Y-20320D01*
X-96520Y-76200D01*
X-96520Y20320D02*
X-40640Y20320D01*
X-40640Y76200D01*
X-96520Y76200D01*
X-96520Y20320D01*
D11*
X40640Y20320D02*
X96520Y20320D01*
X96520Y76200D01*
X40640Y76200D01*
X40640Y20320D01*
D10*
X40640Y-76200D02*
X96520Y-76200D01*
X96520Y-20320D01*
X40640Y-20320D01*
X40640Y-76200D01*
D12*
X-28914Y-62611D02*
X-32046Y-72009D01*
X-25781Y-72009D02*
X-28914Y-62611D01*
X-26564Y-69660D02*
X-31263Y-69660D01*
D13*
X50495Y0D02*
X51105Y0D01*
D14*
X44577Y-7070D02*
X44577Y-7916D01*
X44575Y-7971D01*
X44570Y-8027D01*
X44561Y-8081D01*
X44548Y-8135D01*
X44532Y-8188D01*
X44513Y-8240D01*
X44490Y-8291D01*
X44464Y-8339D01*
X44434Y-8387D01*
X44402Y-8432D01*
X44367Y-8474D01*
X44329Y-8515D01*
X44288Y-8553D01*
X44246Y-8588D01*
X44201Y-8620D01*
X44154Y-8650D01*
X44105Y-8676D01*
X44054Y-8699D01*
X44002Y-8718D01*
X43949Y-8734D01*
X43895Y-8747D01*
X43841Y-8756D01*
X43785Y-8761D01*
X43730Y-8763D01*
X41614Y-8763D01*
X41556Y-8761D01*
X41499Y-8755D01*
X41442Y-8745D01*
X41385Y-8732D01*
X41330Y-8714D01*
X41277Y-8693D01*
X41224Y-8668D01*
X41174Y-8640D01*
X41126Y-8608D01*
X41079Y-8573D01*
X41036Y-8535D01*
X40995Y-8494D01*
X40957Y-8451D01*
X40922Y-8404D01*
X40890Y-8356D01*
X40862Y-8306D01*
X40837Y-8253D01*
X40816Y-8200D01*
X40798Y-8145D01*
X40785Y-8088D01*
X40775Y-8031D01*
X40769Y-7974D01*
X40767Y-7916D01*
X40767Y-7070D01*
X41614Y-5706D02*
X40767Y-4647D01*
X44577Y-4647D01*
X44577Y-3589D02*
X44577Y-5706D01*
X66167Y1820D02*
X67225Y2667D01*
X67225Y-1143D01*
X66167Y-1143D02*
X68284Y-1143D01*
X69824Y762D02*
X69826Y872D01*
X69832Y981D01*
X69841Y1090D01*
X69855Y1199D01*
X69872Y1307D01*
X69893Y1415D01*
X69917Y1521D01*
X69946Y1627D01*
X69978Y1732D01*
X70013Y1836D01*
X70052Y1938D01*
X70095Y2039D01*
X70142Y2138D01*
X70162Y2188D01*
X70184Y2237D01*
X70210Y2285D01*
X70239Y2330D01*
X70272Y2373D01*
X70307Y2414D01*
X70345Y2453D01*
X70385Y2488D01*
X70428Y2521D01*
X70473Y2551D01*
X70520Y2578D01*
X70568Y2601D01*
X70618Y2621D01*
X70670Y2637D01*
X70722Y2650D01*
X70775Y2660D01*
X70829Y2665D01*
X70883Y2667D01*
X70937Y2665D01*
X70991Y2660D01*
X71044Y2650D01*
X71096Y2637D01*
X71148Y2621D01*
X71198Y2601D01*
X71246Y2578D01*
X71293Y2551D01*
X71338Y2521D01*
X71381Y2488D01*
X71421Y2453D01*
X71459Y2414D01*
X71494Y2373D01*
X71527Y2330D01*
X71556Y2285D01*
X71582Y2237D01*
X71604Y2188D01*
X71624Y2138D01*
X71671Y2039D01*
X71714Y1938D01*
X71753Y1836D01*
X71788Y1732D01*
X71820Y1627D01*
X71849Y1521D01*
X71873Y1415D01*
X71894Y1307D01*
X71911Y1199D01*
X71925Y1090D01*
X71934Y981D01*
X71940Y872D01*
X71942Y762D01*
X69824Y762D02*
X69826Y652D01*
X69832Y543D01*
X69841Y434D01*
X69855Y325D01*
X69872Y217D01*
X69893Y109D01*
X69917Y3D01*
X69946Y-103D01*
X69978Y-208D01*
X70013Y-311D01*
X70052Y-414D01*
X70095Y-515D01*
X70142Y-614D01*
X70162Y-664D01*
X70184Y-713D01*
X70210Y-761D01*
X70239Y-806D01*
X70272Y-849D01*
X70307Y-890D01*
X70345Y-929D01*
X70385Y-964D01*
X70428Y-997D01*
X70473Y-1027D01*
X70520Y-1054D01*
X70568Y-1077D01*
X70619Y-1097D01*
X70670Y-1113D01*
X70722Y-1126D01*
X70775Y-1136D01*
X70829Y-1141D01*
X70883Y-1143D01*
X71623Y-614D02*
X71670Y-515D01*
X71713Y-414D01*
X71752Y-311D01*
X71787Y-208D01*
X71819Y-103D01*
X71848Y3D01*
X71872Y109D01*
X71893Y217D01*
X71910Y325D01*
X71924Y434D01*
X71933Y543D01*
X71939Y652D01*
X71941Y762D01*
X71624Y-614D02*
X71604Y-664D01*
X71582Y-713D01*
X71556Y-761D01*
X71527Y-806D01*
X71494Y-849D01*
X71459Y-890D01*
X71421Y-929D01*
X71381Y-964D01*
X71338Y-997D01*
X71293Y-1027D01*
X71246Y-1054D01*
X71198Y-1077D01*
X71147Y-1097D01*
X71096Y-1113D01*
X71044Y-1126D01*
X70991Y-1136D01*
X70937Y-1141D01*
X70883Y-1143D01*
X70036Y-296D02*
X71730Y1820D01*
X73482Y762D02*
X73484Y872D01*
X73490Y981D01*
X73499Y1090D01*
X73513Y1199D01*
X73530Y1307D01*
X73551Y1415D01*
X73575Y1521D01*
X73604Y1627D01*
X73636Y1732D01*
X73671Y1836D01*
X73710Y1938D01*
X73753Y2039D01*
X73800Y2138D01*
X73820Y2188D01*
X73842Y2237D01*
X73868Y2285D01*
X73897Y2330D01*
X73930Y2373D01*
X73965Y2414D01*
X74003Y2453D01*
X74043Y2488D01*
X74086Y2521D01*
X74131Y2551D01*
X74178Y2578D01*
X74226Y2601D01*
X74276Y2621D01*
X74328Y2637D01*
X74380Y2650D01*
X74433Y2660D01*
X74487Y2665D01*
X74541Y2667D01*
X74595Y2665D01*
X74649Y2660D01*
X74702Y2650D01*
X74754Y2637D01*
X74806Y2621D01*
X74856Y2601D01*
X74904Y2578D01*
X74951Y2551D01*
X74996Y2521D01*
X75039Y2488D01*
X75079Y2453D01*
X75117Y2414D01*
X75152Y2373D01*
X75185Y2330D01*
X75214Y2285D01*
X75240Y2237D01*
X75262Y2188D01*
X75282Y2138D01*
X75281Y2138D02*
X75328Y2039D01*
X75371Y1938D01*
X75410Y1836D01*
X75445Y1732D01*
X75477Y1627D01*
X75506Y1521D01*
X75530Y1415D01*
X75551Y1307D01*
X75568Y1199D01*
X75582Y1090D01*
X75591Y981D01*
X75597Y872D01*
X75599Y762D01*
X73482Y762D02*
X73484Y652D01*
X73490Y543D01*
X73499Y434D01*
X73513Y325D01*
X73530Y217D01*
X73551Y109D01*
X73575Y3D01*
X73604Y-103D01*
X73636Y-208D01*
X73671Y-311D01*
X73710Y-414D01*
X73753Y-515D01*
X73800Y-614D01*
X73820Y-664D01*
X73842Y-713D01*
X73868Y-761D01*
X73897Y-806D01*
X73930Y-849D01*
X73965Y-890D01*
X74003Y-929D01*
X74043Y-964D01*
X74086Y-997D01*
X74131Y-1027D01*
X74178Y-1054D01*
X74226Y-1077D01*
X74277Y-1097D01*
X74328Y-1113D01*
X74380Y-1126D01*
X74433Y-1136D01*
X74487Y-1141D01*
X74541Y-1143D01*
X75281Y-614D02*
X75328Y-515D01*
X75371Y-414D01*
X75410Y-311D01*
X75445Y-208D01*
X75477Y-103D01*
X75506Y3D01*
X75530Y109D01*
X75551Y217D01*
X75568Y325D01*
X75582Y434D01*
X75591Y543D01*
X75597Y652D01*
X75599Y762D01*
X75282Y-614D02*
X75262Y-664D01*
X75240Y-713D01*
X75214Y-761D01*
X75185Y-806D01*
X75152Y-849D01*
X75117Y-890D01*
X75079Y-929D01*
X75039Y-964D01*
X74996Y-997D01*
X74951Y-1027D01*
X74904Y-1054D01*
X74856Y-1077D01*
X74805Y-1097D01*
X74754Y-1113D01*
X74702Y-1126D01*
X74649Y-1136D01*
X74595Y-1141D01*
X74541Y-1143D01*
X73694Y-296D02*
X75387Y1820D01*
X77230Y1397D02*
X77230Y-1143D01*
X77230Y1397D02*
X78288Y1397D01*
X78335Y1395D01*
X78383Y1390D01*
X78429Y1381D01*
X78475Y1369D01*
X78520Y1353D01*
X78564Y1334D01*
X78606Y1312D01*
X78646Y1287D01*
X78684Y1258D01*
X78720Y1227D01*
X78753Y1194D01*
X78784Y1158D01*
X78813Y1120D01*
X78838Y1080D01*
X78860Y1038D01*
X78879Y994D01*
X78895Y949D01*
X78907Y903D01*
X78916Y857D01*
X78921Y809D01*
X78923Y762D01*
X78923Y-1143D01*
X80727Y-1143D02*
X80727Y2032D01*
X80729Y2079D01*
X80734Y2127D01*
X80743Y2173D01*
X80755Y2219D01*
X80771Y2264D01*
X80790Y2308D01*
X80812Y2350D01*
X80837Y2390D01*
X80866Y2428D01*
X80897Y2464D01*
X80930Y2497D01*
X80966Y2528D01*
X81004Y2557D01*
X81045Y2582D01*
X81086Y2604D01*
X81130Y2623D01*
X81175Y2639D01*
X81221Y2651D01*
X81267Y2660D01*
X81315Y2665D01*
X81362Y2667D01*
X81573Y2667D01*
X81573Y1397D02*
X80303Y1397D01*
D12*
X-7188Y-66788D02*
X-8755Y-66788D01*
X-7188Y-66788D02*
X-7188Y-72009D01*
X-10321Y-72009D01*
X-10410Y-72007D01*
X-10498Y-72001D01*
X-10586Y-71992D01*
X-10674Y-71979D01*
X-10761Y-71962D01*
X-10847Y-71942D01*
X-10932Y-71917D01*
X-11017Y-71890D01*
X-11100Y-71858D01*
X-11181Y-71824D01*
X-11261Y-71785D01*
X-11339Y-71744D01*
X-11416Y-71699D01*
X-11490Y-71651D01*
X-11563Y-71600D01*
X-11633Y-71546D01*
X-11700Y-71488D01*
X-11766Y-71428D01*
X-11828Y-71366D01*
X-11888Y-71300D01*
X-11946Y-71233D01*
X-12000Y-71163D01*
X-12051Y-71090D01*
X-12099Y-71016D01*
X-12144Y-70939D01*
X-12185Y-70861D01*
X-12224Y-70781D01*
X-12258Y-70700D01*
X-12290Y-70617D01*
X-12317Y-70532D01*
X-12342Y-70447D01*
X-12362Y-70361D01*
X-12379Y-70274D01*
X-12392Y-70186D01*
X-12401Y-70098D01*
X-12407Y-70010D01*
X-12409Y-69921D01*
X-12409Y-64699D01*
X-12410Y-64699D02*
X-12408Y-64608D01*
X-12402Y-64517D01*
X-12392Y-64426D01*
X-12378Y-64336D01*
X-12360Y-64247D01*
X-12339Y-64158D01*
X-12313Y-64071D01*
X-12284Y-63985D01*
X-12251Y-63900D01*
X-12214Y-63816D01*
X-12174Y-63734D01*
X-12130Y-63655D01*
X-12083Y-63577D01*
X-12032Y-63501D01*
X-11978Y-63427D01*
X-11921Y-63356D01*
X-11861Y-63288D01*
X-11798Y-63222D01*
X-11732Y-63159D01*
X-11664Y-63099D01*
X-11593Y-63042D01*
X-11519Y-62988D01*
X-11443Y-62937D01*
X-11366Y-62890D01*
X-11286Y-62846D01*
X-11204Y-62806D01*
X-11120Y-62769D01*
X-11036Y-62736D01*
X-10949Y-62707D01*
X-10862Y-62681D01*
X-10773Y-62660D01*
X-10684Y-62642D01*
X-10594Y-62628D01*
X-10503Y-62618D01*
X-10412Y-62612D01*
X-10321Y-62610D01*
X-10321Y-62611D02*
X-7188Y-62611D01*
X-2656Y-62611D02*
X-2656Y-72009D01*
X2565Y-72009D02*
X-2656Y-62611D01*
X2565Y-62611D02*
X2565Y-72009D01*
X7098Y-72009D02*
X7098Y-62611D01*
X9708Y-62611D01*
X9808Y-62613D01*
X9908Y-62619D01*
X10007Y-62628D01*
X10107Y-62642D01*
X10205Y-62659D01*
X10303Y-62680D01*
X10400Y-62704D01*
X10496Y-62733D01*
X10591Y-62765D01*
X10684Y-62800D01*
X10776Y-62839D01*
X10867Y-62882D01*
X10955Y-62928D01*
X11042Y-62978D01*
X11127Y-63030D01*
X11210Y-63086D01*
X11291Y-63145D01*
X11369Y-63208D01*
X11445Y-63273D01*
X11519Y-63341D01*
X11589Y-63411D01*
X11657Y-63485D01*
X11722Y-63561D01*
X11785Y-63639D01*
X11844Y-63720D01*
X11900Y-63803D01*
X11952Y-63888D01*
X12002Y-63975D01*
X12048Y-64063D01*
X12091Y-64154D01*
X12130Y-64246D01*
X12165Y-64339D01*
X12197Y-64434D01*
X12226Y-64530D01*
X12250Y-64627D01*
X12271Y-64725D01*
X12288Y-64823D01*
X12302Y-64923D01*
X12311Y-65022D01*
X12317Y-65122D01*
X12319Y-65222D01*
X12319Y-69398D01*
X12317Y-69498D01*
X12311Y-69598D01*
X12302Y-69697D01*
X12288Y-69797D01*
X12271Y-69895D01*
X12250Y-69993D01*
X12226Y-70090D01*
X12197Y-70186D01*
X12165Y-70281D01*
X12130Y-70374D01*
X12091Y-70466D01*
X12048Y-70557D01*
X12002Y-70645D01*
X11952Y-70732D01*
X11900Y-70817D01*
X11844Y-70900D01*
X11785Y-70981D01*
X11722Y-71059D01*
X11657Y-71135D01*
X11589Y-71209D01*
X11519Y-71279D01*
X11445Y-71347D01*
X11369Y-71412D01*
X11291Y-71475D01*
X11210Y-71534D01*
X11127Y-71590D01*
X11042Y-71642D01*
X10955Y-71692D01*
X10867Y-71738D01*
X10776Y-71781D01*
X10684Y-71820D01*
X10591Y-71855D01*
X10496Y-71887D01*
X10400Y-71916D01*
X10303Y-71940D01*
X10205Y-71961D01*
X10107Y-71978D01*
X10007Y-71992D01*
X9908Y-72001D01*
X9808Y-72007D01*
X9708Y-72009D01*
X7098Y-72009D01*
D15*
X18500Y25000D02*
X-18500Y25000D01*
X18500Y25000D02*
X18500Y-25000D01*
X-18500Y-25000D01*
X-18500Y25000D01*
X-22000Y25250D02*
X-36750Y25250D01*
D11*
X-10308Y5842D02*
X-10308Y-5842D01*
X-11606Y-5842D02*
X-9010Y-5842D01*
X-9010Y5842D02*
X-11606Y5842D01*
X-1846Y-5842D02*
X750Y-5842D01*
X-1846Y-5842D02*
X-1945Y-5840D01*
X-2045Y-5834D01*
X-2144Y-5825D01*
X-2242Y-5812D01*
X-2340Y-5795D01*
X-2438Y-5774D01*
X-2534Y-5749D01*
X-2629Y-5721D01*
X-2723Y-5689D01*
X-2816Y-5654D01*
X-2908Y-5615D01*
X-2998Y-5572D01*
X-3086Y-5527D01*
X-3173Y-5477D01*
X-3257Y-5425D01*
X-3340Y-5369D01*
X-3420Y-5311D01*
X-3498Y-5249D01*
X-3573Y-5184D01*
X-3646Y-5116D01*
X-3716Y-5046D01*
X-3784Y-4973D01*
X-3849Y-4898D01*
X-3911Y-4820D01*
X-3969Y-4740D01*
X-4025Y-4657D01*
X-4077Y-4573D01*
X-4127Y-4486D01*
X-4172Y-4398D01*
X-4215Y-4308D01*
X-4254Y-4216D01*
X-4289Y-4123D01*
X-4321Y-4029D01*
X-4349Y-3934D01*
X-4374Y-3838D01*
X-4395Y-3740D01*
X-4412Y-3642D01*
X-4425Y-3544D01*
X-4434Y-3445D01*
X-4440Y-3345D01*
X-4442Y-3246D01*
X-4443Y-3246D02*
X-4443Y3246D01*
X-4442Y3246D02*
X-4440Y3345D01*
X-4434Y3445D01*
X-4425Y3544D01*
X-4412Y3642D01*
X-4395Y3740D01*
X-4374Y3838D01*
X-4349Y3934D01*
X-4321Y4029D01*
X-4289Y4123D01*
X-4254Y4216D01*
X-4215Y4308D01*
X-4172Y4398D01*
X-4127Y4486D01*
X-4077Y4573D01*
X-4025Y4657D01*
X-3969Y4740D01*
X-3911Y4820D01*
X-3849Y4898D01*
X-3784Y4973D01*
X-3716Y5046D01*
X-3646Y5116D01*
X-3573Y5184D01*
X-3498Y5249D01*
X-3420Y5311D01*
X-3340Y5369D01*
X-3257Y5425D01*
X-3173Y5477D01*
X-3086Y5527D01*
X-2998Y5572D01*
X-2908Y5615D01*
X-2816Y5654D01*
X-2723Y5689D01*
X-2629Y5721D01*
X-2534Y5749D01*
X-2438Y5774D01*
X-2340Y5795D01*
X-2242Y5812D01*
X-2144Y5825D01*
X-2045Y5834D01*
X-1945Y5840D01*
X-1846Y5842D01*
X750Y5842D01*
X5115Y3246D02*
X8361Y5842D01*
X8361Y-5842D01*
X11606Y-5842D02*
X5115Y-5842D01*
D16*
X0Y38100D03*
D14*
X2756Y31877D02*
X2756Y28067D01*
X2756Y31877D02*
X3814Y31877D01*
X3878Y31875D01*
X3942Y31869D01*
X4005Y31860D01*
X4067Y31846D01*
X4129Y31829D01*
X4189Y31808D01*
X4248Y31784D01*
X4306Y31756D01*
X4361Y31724D01*
X4415Y31690D01*
X4466Y31652D01*
X4516Y31611D01*
X4562Y31567D01*
X4606Y31521D01*
X4647Y31471D01*
X4685Y31420D01*
X4719Y31366D01*
X4751Y31311D01*
X4779Y31253D01*
X4803Y31194D01*
X4824Y31134D01*
X4841Y31072D01*
X4855Y31010D01*
X4864Y30947D01*
X4870Y30883D01*
X4872Y30819D01*
X4870Y30755D01*
X4864Y30691D01*
X4855Y30628D01*
X4841Y30566D01*
X4824Y30504D01*
X4803Y30444D01*
X4779Y30385D01*
X4751Y30327D01*
X4719Y30272D01*
X4685Y30218D01*
X4647Y30167D01*
X4606Y30117D01*
X4562Y30071D01*
X4516Y30027D01*
X4466Y29986D01*
X4415Y29948D01*
X4361Y29914D01*
X4306Y29882D01*
X4248Y29854D01*
X4189Y29830D01*
X4129Y29809D01*
X4067Y29792D01*
X4005Y29778D01*
X3942Y29769D01*
X3878Y29763D01*
X3814Y29761D01*
X3814Y29760D02*
X2756Y29760D01*
X4026Y29760D02*
X4872Y28067D01*
X6392Y31030D02*
X7451Y31877D01*
X7451Y28067D01*
X8509Y28067D02*
X6392Y28067D01*
X-30031Y37550D02*
X-29184Y40513D01*
X-30031Y37550D02*
X-27914Y37550D01*
X-28549Y38396D02*
X-28549Y36703D01*
X-26518Y36703D02*
X-26518Y36915D01*
X-26306Y36915D01*
X-26306Y36703D01*
X-26518Y36703D01*
X-24910Y40090D02*
X-24910Y40513D01*
X-22794Y40513D01*
X-23852Y36703D01*
X-21124Y36703D02*
X-21124Y40513D01*
X-19431Y39243D02*
X-21124Y37973D01*
X-20384Y38502D02*
X-19431Y36703D01*
D17*
X-76200Y0D03*
D14*
X-82423Y-8509D02*
X-86233Y-8509D01*
X-86233Y-7451D01*
X-86231Y-7387D01*
X-86225Y-7323D01*
X-86216Y-7260D01*
X-86202Y-7198D01*
X-86185Y-7136D01*
X-86164Y-7076D01*
X-86140Y-7017D01*
X-86112Y-6959D01*
X-86080Y-6904D01*
X-86046Y-6850D01*
X-86008Y-6799D01*
X-85967Y-6749D01*
X-85923Y-6703D01*
X-85877Y-6659D01*
X-85827Y-6618D01*
X-85776Y-6580D01*
X-85722Y-6546D01*
X-85667Y-6514D01*
X-85609Y-6486D01*
X-85550Y-6462D01*
X-85490Y-6441D01*
X-85428Y-6424D01*
X-85366Y-6410D01*
X-85303Y-6401D01*
X-85239Y-6395D01*
X-85175Y-6393D01*
X-85111Y-6395D01*
X-85047Y-6401D01*
X-84984Y-6410D01*
X-84922Y-6424D01*
X-84860Y-6441D01*
X-84800Y-6462D01*
X-84741Y-6486D01*
X-84683Y-6514D01*
X-84628Y-6546D01*
X-84574Y-6580D01*
X-84523Y-6618D01*
X-84473Y-6659D01*
X-84427Y-6703D01*
X-84383Y-6749D01*
X-84342Y-6799D01*
X-84304Y-6850D01*
X-84270Y-6904D01*
X-84238Y-6959D01*
X-84210Y-7017D01*
X-84186Y-7076D01*
X-84165Y-7136D01*
X-84148Y-7198D01*
X-84134Y-7260D01*
X-84125Y-7323D01*
X-84119Y-7387D01*
X-84117Y-7451D01*
X-84116Y-7451D02*
X-84116Y-8509D01*
X-84116Y-7239D02*
X-82423Y-6392D01*
X-85281Y-2755D02*
X-85341Y-2757D01*
X-85400Y-2763D01*
X-85460Y-2772D01*
X-85518Y-2785D01*
X-85575Y-2802D01*
X-85632Y-2822D01*
X-85687Y-2846D01*
X-85740Y-2873D01*
X-85792Y-2903D01*
X-85841Y-2937D01*
X-85888Y-2974D01*
X-85933Y-3013D01*
X-85976Y-3056D01*
X-86015Y-3101D01*
X-86052Y-3148D01*
X-86086Y-3197D01*
X-86116Y-3249D01*
X-86143Y-3302D01*
X-86167Y-3357D01*
X-86187Y-3414D01*
X-86204Y-3471D01*
X-86217Y-3529D01*
X-86226Y-3589D01*
X-86232Y-3648D01*
X-86234Y-3708D01*
X-86233Y-3708D02*
X-86231Y-3775D01*
X-86226Y-3842D01*
X-86217Y-3908D01*
X-86204Y-3974D01*
X-86188Y-4038D01*
X-86168Y-4102D01*
X-86144Y-4165D01*
X-86118Y-4227D01*
X-86088Y-4286D01*
X-86055Y-4344D01*
X-86018Y-4401D01*
X-85979Y-4455D01*
X-85937Y-4507D01*
X-85892Y-4556D01*
X-85844Y-4603D01*
X-85794Y-4647D01*
X-85741Y-4689D01*
X-85686Y-4727D01*
X-85630Y-4763D01*
X-85571Y-4795D01*
X-85511Y-4824D01*
X-85449Y-4850D01*
X-85386Y-4872D01*
X-84540Y-3073D02*
X-84582Y-3032D01*
X-84627Y-2993D01*
X-84673Y-2956D01*
X-84722Y-2922D01*
X-84772Y-2891D01*
X-84824Y-2864D01*
X-84878Y-2839D01*
X-84933Y-2817D01*
X-84989Y-2798D01*
X-85046Y-2783D01*
X-85104Y-2771D01*
X-85163Y-2763D01*
X-85222Y-2758D01*
X-85281Y-2756D01*
X-84540Y-3073D02*
X-82423Y-4872D01*
X-82423Y-2756D01*
X-87334Y-3429D02*
X-90297Y-2582D01*
X-87334Y-3429D02*
X-87334Y-1312D01*
X-88180Y-1947D02*
X-86487Y-1947D01*
X-86487Y84D02*
X-86699Y84D01*
X-86699Y295D01*
X-86487Y295D01*
X-86487Y84D01*
X-89874Y1692D02*
X-90297Y1692D01*
X-90297Y3808D01*
X-86487Y2750D01*
X-86487Y5478D02*
X-90297Y5478D01*
X-89027Y7171D02*
X-87757Y5478D01*
X-88286Y6218D02*
X-86487Y7171D01*
D17*
X-53340Y0D03*
D14*
X-59563Y-8509D02*
X-63373Y-8509D01*
X-63373Y-7451D01*
X-63371Y-7387D01*
X-63365Y-7323D01*
X-63356Y-7260D01*
X-63342Y-7198D01*
X-63325Y-7136D01*
X-63304Y-7076D01*
X-63280Y-7017D01*
X-63252Y-6959D01*
X-63220Y-6904D01*
X-63186Y-6850D01*
X-63148Y-6799D01*
X-63107Y-6749D01*
X-63063Y-6703D01*
X-63017Y-6659D01*
X-62967Y-6618D01*
X-62916Y-6580D01*
X-62862Y-6546D01*
X-62807Y-6514D01*
X-62749Y-6486D01*
X-62690Y-6462D01*
X-62630Y-6441D01*
X-62568Y-6424D01*
X-62506Y-6410D01*
X-62443Y-6401D01*
X-62379Y-6395D01*
X-62315Y-6393D01*
X-62251Y-6395D01*
X-62187Y-6401D01*
X-62124Y-6410D01*
X-62062Y-6424D01*
X-62000Y-6441D01*
X-61940Y-6462D01*
X-61881Y-6486D01*
X-61823Y-6514D01*
X-61768Y-6546D01*
X-61714Y-6580D01*
X-61663Y-6618D01*
X-61613Y-6659D01*
X-61567Y-6703D01*
X-61523Y-6749D01*
X-61482Y-6799D01*
X-61444Y-6850D01*
X-61410Y-6904D01*
X-61378Y-6959D01*
X-61350Y-7017D01*
X-61326Y-7076D01*
X-61305Y-7136D01*
X-61288Y-7198D01*
X-61274Y-7260D01*
X-61265Y-7323D01*
X-61259Y-7387D01*
X-61257Y-7451D01*
X-61256Y-7451D02*
X-61256Y-8509D01*
X-61256Y-7239D02*
X-59563Y-6392D01*
X-59563Y-4872D02*
X-59563Y-3814D01*
X-59565Y-3750D01*
X-59571Y-3686D01*
X-59580Y-3623D01*
X-59594Y-3561D01*
X-59611Y-3499D01*
X-59632Y-3439D01*
X-59656Y-3380D01*
X-59684Y-3322D01*
X-59716Y-3267D01*
X-59750Y-3213D01*
X-59788Y-3162D01*
X-59829Y-3112D01*
X-59873Y-3066D01*
X-59919Y-3022D01*
X-59969Y-2981D01*
X-60020Y-2943D01*
X-60074Y-2909D01*
X-60129Y-2877D01*
X-60187Y-2849D01*
X-60246Y-2825D01*
X-60306Y-2804D01*
X-60368Y-2787D01*
X-60430Y-2773D01*
X-60493Y-2764D01*
X-60557Y-2758D01*
X-60621Y-2756D01*
X-60685Y-2758D01*
X-60749Y-2764D01*
X-60812Y-2773D01*
X-60874Y-2787D01*
X-60936Y-2804D01*
X-60996Y-2825D01*
X-61055Y-2849D01*
X-61113Y-2877D01*
X-61168Y-2909D01*
X-61222Y-2943D01*
X-61273Y-2981D01*
X-61323Y-3022D01*
X-61369Y-3066D01*
X-61413Y-3112D01*
X-61454Y-3162D01*
X-61492Y-3213D01*
X-61526Y-3267D01*
X-61558Y-3322D01*
X-61586Y-3380D01*
X-61610Y-3439D01*
X-61631Y-3499D01*
X-61648Y-3561D01*
X-61662Y-3623D01*
X-61671Y-3686D01*
X-61677Y-3750D01*
X-61679Y-3814D01*
X-63373Y-3602D02*
X-63373Y-4872D01*
X-63373Y-3602D02*
X-63371Y-3545D01*
X-63365Y-3489D01*
X-63356Y-3433D01*
X-63343Y-3378D01*
X-63326Y-3324D01*
X-63306Y-3271D01*
X-63282Y-3220D01*
X-63255Y-3170D01*
X-63224Y-3123D01*
X-63191Y-3077D01*
X-63154Y-3034D01*
X-63115Y-2993D01*
X-63073Y-2955D01*
X-63028Y-2920D01*
X-62982Y-2888D01*
X-62933Y-2859D01*
X-62883Y-2834D01*
X-62830Y-2812D01*
X-62777Y-2793D01*
X-62722Y-2778D01*
X-62667Y-2767D01*
X-62611Y-2759D01*
X-62554Y-2755D01*
X-62498Y-2755D01*
X-62441Y-2759D01*
X-62385Y-2767D01*
X-62330Y-2778D01*
X-62275Y-2793D01*
X-62222Y-2812D01*
X-62169Y-2834D01*
X-62119Y-2859D01*
X-62070Y-2888D01*
X-62024Y-2920D01*
X-61979Y-2955D01*
X-61937Y-2993D01*
X-61898Y-3034D01*
X-61861Y-3077D01*
X-61828Y-3123D01*
X-61797Y-3170D01*
X-61770Y-3220D01*
X-61746Y-3271D01*
X-61726Y-3324D01*
X-61709Y-3378D01*
X-61696Y-3433D01*
X-61687Y-3489D01*
X-61681Y-3545D01*
X-61679Y-3602D01*
X-61680Y-3602D02*
X-61680Y-4449D01*
D12*
X28914Y-62611D02*
X32046Y-72009D01*
X35179Y-62611D01*
M02*
