G04 #@! TF.GenerationSoftware,KiCad,Pcbnew,(5.1.4)-1*
G04 #@! TF.CreationDate,2020-01-23T23:33:44-05:00*
G04 #@! TF.ProjectId,ECVTProtoBoard,45435654-5072-46f7-946f-426f6172642e,rev?*
G04 #@! TF.SameCoordinates,Original*
G04 #@! TF.FileFunction,Legend,Top*
G04 #@! TF.FilePolarity,Positive*
%FSLAX46Y46*%
G04 Gerber Fmt 4.6, Leading zero omitted, Abs format (unit mm)*
G04 Created by KiCad (PCBNEW (5.1.4)-1) date 2020-01-23 23:33:44*
%MOMM*%
%LPD*%
G04 APERTURE LIST*
%ADD10C,0.500000*%
%ADD11C,0.300000*%
%ADD12C,0.150000*%
%ADD13C,0.120000*%
G04 APERTURE END LIST*
D10*
X137361257Y-128608342D02*
X137932685Y-128608342D01*
X138218400Y-128751200D01*
X138504114Y-129036914D01*
X138646971Y-129608342D01*
X138646971Y-130608342D01*
X138504114Y-131179771D01*
X138218400Y-131465485D01*
X137932685Y-131608342D01*
X137361257Y-131608342D01*
X137075542Y-131465485D01*
X136789828Y-131179771D01*
X136646971Y-130608342D01*
X136646971Y-129608342D01*
X136789828Y-129036914D01*
X137075542Y-128751200D01*
X137361257Y-128608342D01*
X140932685Y-130036914D02*
X139932685Y-130036914D01*
X139932685Y-131608342D02*
X139932685Y-128608342D01*
X141361257Y-128608342D01*
X143504114Y-130036914D02*
X142504114Y-130036914D01*
X142504114Y-131608342D02*
X142504114Y-128608342D01*
X143932685Y-128608342D01*
X149075542Y-131608342D02*
X148075542Y-130179771D01*
X147361257Y-131608342D02*
X147361257Y-128608342D01*
X148504114Y-128608342D01*
X148789828Y-128751200D01*
X148932685Y-128894057D01*
X149075542Y-129179771D01*
X149075542Y-129608342D01*
X148932685Y-129894057D01*
X148789828Y-130036914D01*
X148504114Y-130179771D01*
X147361257Y-130179771D01*
X150932685Y-128608342D02*
X151504114Y-128608342D01*
X151789828Y-128751200D01*
X152075542Y-129036914D01*
X152218400Y-129608342D01*
X152218400Y-130608342D01*
X152075542Y-131179771D01*
X151789828Y-131465485D01*
X151504114Y-131608342D01*
X150932685Y-131608342D01*
X150646971Y-131465485D01*
X150361257Y-131179771D01*
X150218400Y-130608342D01*
X150218400Y-129608342D01*
X150361257Y-129036914D01*
X150646971Y-128751200D01*
X150932685Y-128608342D01*
X153361257Y-130751200D02*
X154789828Y-130751200D01*
X153075542Y-131608342D02*
X154075542Y-128608342D01*
X155075542Y-131608342D01*
X156075542Y-131608342D02*
X156075542Y-128608342D01*
X156789828Y-128608342D01*
X157218400Y-128751200D01*
X157504114Y-129036914D01*
X157646971Y-129322628D01*
X157789828Y-129894057D01*
X157789828Y-130322628D01*
X157646971Y-130894057D01*
X157504114Y-131179771D01*
X157218400Y-131465485D01*
X156789828Y-131608342D01*
X156075542Y-131608342D01*
D11*
X137865885Y-125034800D02*
X137675409Y-124939561D01*
X137389695Y-124939561D01*
X137103980Y-125034800D01*
X136913504Y-125225276D01*
X136818266Y-125415752D01*
X136723028Y-125796704D01*
X136723028Y-126082419D01*
X136818266Y-126463371D01*
X136913504Y-126653847D01*
X137103980Y-126844323D01*
X137389695Y-126939561D01*
X137580171Y-126939561D01*
X137865885Y-126844323D01*
X137961123Y-126749085D01*
X137961123Y-126082419D01*
X137580171Y-126082419D01*
X139580171Y-126844323D02*
X139389695Y-126939561D01*
X139008742Y-126939561D01*
X138818266Y-126844323D01*
X138723028Y-126653847D01*
X138723028Y-125891942D01*
X138818266Y-125701466D01*
X139008742Y-125606228D01*
X139389695Y-125606228D01*
X139580171Y-125701466D01*
X139675409Y-125891942D01*
X139675409Y-126082419D01*
X138723028Y-126272895D01*
X140818266Y-126939561D02*
X140627790Y-126844323D01*
X140532552Y-126749085D01*
X140437314Y-126558609D01*
X140437314Y-125987180D01*
X140532552Y-125796704D01*
X140627790Y-125701466D01*
X140818266Y-125606228D01*
X141103980Y-125606228D01*
X141294457Y-125701466D01*
X141389695Y-125796704D01*
X141484933Y-125987180D01*
X141484933Y-126558609D01*
X141389695Y-126749085D01*
X141294457Y-126844323D01*
X141103980Y-126939561D01*
X140818266Y-126939561D01*
X142342076Y-126939561D02*
X142342076Y-125606228D01*
X142342076Y-125987180D02*
X142437314Y-125796704D01*
X142532552Y-125701466D01*
X142723028Y-125606228D01*
X142913504Y-125606228D01*
X144437314Y-125606228D02*
X144437314Y-127225276D01*
X144342076Y-127415752D01*
X144246838Y-127510990D01*
X144056361Y-127606228D01*
X143770647Y-127606228D01*
X143580171Y-127510990D01*
X144437314Y-126844323D02*
X144246838Y-126939561D01*
X143865885Y-126939561D01*
X143675409Y-126844323D01*
X143580171Y-126749085D01*
X143484933Y-126558609D01*
X143484933Y-125987180D01*
X143580171Y-125796704D01*
X143675409Y-125701466D01*
X143865885Y-125606228D01*
X144246838Y-125606228D01*
X144437314Y-125701466D01*
X145389695Y-126939561D02*
X145389695Y-125606228D01*
X145389695Y-124939561D02*
X145294457Y-125034800D01*
X145389695Y-125130038D01*
X145484933Y-125034800D01*
X145389695Y-124939561D01*
X145389695Y-125130038D01*
X147199219Y-126939561D02*
X147199219Y-125891942D01*
X147103980Y-125701466D01*
X146913504Y-125606228D01*
X146532552Y-125606228D01*
X146342076Y-125701466D01*
X147199219Y-126844323D02*
X147008742Y-126939561D01*
X146532552Y-126939561D01*
X146342076Y-126844323D01*
X146246838Y-126653847D01*
X146246838Y-126463371D01*
X146342076Y-126272895D01*
X146532552Y-126177657D01*
X147008742Y-126177657D01*
X147199219Y-126082419D01*
X149389695Y-124939561D02*
X150532552Y-124939561D01*
X149961123Y-126939561D02*
X149961123Y-124939561D01*
X151961123Y-126844323D02*
X151770647Y-126939561D01*
X151389695Y-126939561D01*
X151199219Y-126844323D01*
X151103980Y-126653847D01*
X151103980Y-125891942D01*
X151199219Y-125701466D01*
X151389695Y-125606228D01*
X151770647Y-125606228D01*
X151961123Y-125701466D01*
X152056361Y-125891942D01*
X152056361Y-126082419D01*
X151103980Y-126272895D01*
X153770647Y-126844323D02*
X153580171Y-126939561D01*
X153199219Y-126939561D01*
X153008742Y-126844323D01*
X152913504Y-126749085D01*
X152818266Y-126558609D01*
X152818266Y-125987180D01*
X152913504Y-125796704D01*
X153008742Y-125701466D01*
X153199219Y-125606228D01*
X153580171Y-125606228D01*
X153770647Y-125701466D01*
X154627790Y-126939561D02*
X154627790Y-124939561D01*
X155484933Y-126939561D02*
X155484933Y-125891942D01*
X155389695Y-125701466D01*
X155199219Y-125606228D01*
X154913504Y-125606228D01*
X154723028Y-125701466D01*
X154627790Y-125796704D01*
D12*
X112149047Y-89622380D02*
X111672857Y-89622380D01*
X111625238Y-90098571D01*
X111672857Y-90050952D01*
X111768095Y-90003333D01*
X112006190Y-90003333D01*
X112101428Y-90050952D01*
X112149047Y-90098571D01*
X112196666Y-90193809D01*
X112196666Y-90431904D01*
X112149047Y-90527142D01*
X112101428Y-90574761D01*
X112006190Y-90622380D01*
X111768095Y-90622380D01*
X111672857Y-90574761D01*
X111625238Y-90527142D01*
X112625238Y-90527142D02*
X112672857Y-90574761D01*
X112625238Y-90622380D01*
X112577619Y-90574761D01*
X112625238Y-90527142D01*
X112625238Y-90622380D01*
X113625238Y-90622380D02*
X113053809Y-90622380D01*
X113339523Y-90622380D02*
X113339523Y-89622380D01*
X113244285Y-89765238D01*
X113149047Y-89860476D01*
X113053809Y-89908095D01*
X114053809Y-90622380D02*
X114053809Y-89622380D01*
X114149047Y-90241428D02*
X114434761Y-90622380D01*
X114434761Y-89955714D02*
X114053809Y-90336666D01*
X99449047Y-89622380D02*
X98972857Y-89622380D01*
X98925238Y-90098571D01*
X98972857Y-90050952D01*
X99068095Y-90003333D01*
X99306190Y-90003333D01*
X99401428Y-90050952D01*
X99449047Y-90098571D01*
X99496666Y-90193809D01*
X99496666Y-90431904D01*
X99449047Y-90527142D01*
X99401428Y-90574761D01*
X99306190Y-90622380D01*
X99068095Y-90622380D01*
X98972857Y-90574761D01*
X98925238Y-90527142D01*
X99925238Y-90527142D02*
X99972857Y-90574761D01*
X99925238Y-90622380D01*
X99877619Y-90574761D01*
X99925238Y-90527142D01*
X99925238Y-90622380D01*
X100925238Y-90622380D02*
X100353809Y-90622380D01*
X100639523Y-90622380D02*
X100639523Y-89622380D01*
X100544285Y-89765238D01*
X100449047Y-89860476D01*
X100353809Y-89908095D01*
X101353809Y-90622380D02*
X101353809Y-89622380D01*
X101449047Y-90241428D02*
X101734761Y-90622380D01*
X101734761Y-89955714D02*
X101353809Y-90336666D01*
X99115714Y-86240952D02*
X99020476Y-86193333D01*
X98972857Y-86145714D01*
X98925238Y-86050476D01*
X98925238Y-86002857D01*
X98972857Y-85907619D01*
X99020476Y-85860000D01*
X99115714Y-85812380D01*
X99306190Y-85812380D01*
X99401428Y-85860000D01*
X99449047Y-85907619D01*
X99496666Y-86002857D01*
X99496666Y-86050476D01*
X99449047Y-86145714D01*
X99401428Y-86193333D01*
X99306190Y-86240952D01*
X99115714Y-86240952D01*
X99020476Y-86288571D01*
X98972857Y-86336190D01*
X98925238Y-86431428D01*
X98925238Y-86621904D01*
X98972857Y-86717142D01*
X99020476Y-86764761D01*
X99115714Y-86812380D01*
X99306190Y-86812380D01*
X99401428Y-86764761D01*
X99449047Y-86717142D01*
X99496666Y-86621904D01*
X99496666Y-86431428D01*
X99449047Y-86336190D01*
X99401428Y-86288571D01*
X99306190Y-86240952D01*
X99925238Y-86717142D02*
X99972857Y-86764761D01*
X99925238Y-86812380D01*
X99877619Y-86764761D01*
X99925238Y-86717142D01*
X99925238Y-86812380D01*
X100353809Y-85907619D02*
X100401428Y-85860000D01*
X100496666Y-85812380D01*
X100734761Y-85812380D01*
X100830000Y-85860000D01*
X100877619Y-85907619D01*
X100925238Y-86002857D01*
X100925238Y-86098095D01*
X100877619Y-86240952D01*
X100306190Y-86812380D01*
X100925238Y-86812380D01*
X101353809Y-86812380D02*
X101353809Y-85812380D01*
X101449047Y-86431428D02*
X101734761Y-86812380D01*
X101734761Y-86145714D02*
X101353809Y-86526666D01*
X111815714Y-86240952D02*
X111720476Y-86193333D01*
X111672857Y-86145714D01*
X111625238Y-86050476D01*
X111625238Y-86002857D01*
X111672857Y-85907619D01*
X111720476Y-85860000D01*
X111815714Y-85812380D01*
X112006190Y-85812380D01*
X112101428Y-85860000D01*
X112149047Y-85907619D01*
X112196666Y-86002857D01*
X112196666Y-86050476D01*
X112149047Y-86145714D01*
X112101428Y-86193333D01*
X112006190Y-86240952D01*
X111815714Y-86240952D01*
X111720476Y-86288571D01*
X111672857Y-86336190D01*
X111625238Y-86431428D01*
X111625238Y-86621904D01*
X111672857Y-86717142D01*
X111720476Y-86764761D01*
X111815714Y-86812380D01*
X112006190Y-86812380D01*
X112101428Y-86764761D01*
X112149047Y-86717142D01*
X112196666Y-86621904D01*
X112196666Y-86431428D01*
X112149047Y-86336190D01*
X112101428Y-86288571D01*
X112006190Y-86240952D01*
X112625238Y-86717142D02*
X112672857Y-86764761D01*
X112625238Y-86812380D01*
X112577619Y-86764761D01*
X112625238Y-86717142D01*
X112625238Y-86812380D01*
X113053809Y-85907619D02*
X113101428Y-85860000D01*
X113196666Y-85812380D01*
X113434761Y-85812380D01*
X113530000Y-85860000D01*
X113577619Y-85907619D01*
X113625238Y-86002857D01*
X113625238Y-86098095D01*
X113577619Y-86240952D01*
X113006190Y-86812380D01*
X113625238Y-86812380D01*
X114053809Y-86812380D02*
X114053809Y-85812380D01*
X114149047Y-86431428D02*
X114434761Y-86812380D01*
X114434761Y-86145714D02*
X114053809Y-86526666D01*
X161677600Y-135056571D02*
X161820457Y-135104190D01*
X161868076Y-135151809D01*
X161915695Y-135247047D01*
X161915695Y-135389904D01*
X161868076Y-135485142D01*
X161820457Y-135532761D01*
X161725219Y-135580380D01*
X161344266Y-135580380D01*
X161344266Y-134580380D01*
X161677600Y-134580380D01*
X161772838Y-134628000D01*
X161820457Y-134675619D01*
X161868076Y-134770857D01*
X161868076Y-134866095D01*
X161820457Y-134961333D01*
X161772838Y-135008952D01*
X161677600Y-135056571D01*
X161344266Y-135056571D01*
X162344266Y-135580380D02*
X162344266Y-134913714D01*
X162344266Y-135104190D02*
X162391885Y-135008952D01*
X162439504Y-134961333D01*
X162534742Y-134913714D01*
X162629980Y-134913714D01*
X163391885Y-135580380D02*
X163391885Y-135056571D01*
X163344266Y-134961333D01*
X163249028Y-134913714D01*
X163058552Y-134913714D01*
X162963314Y-134961333D01*
X163391885Y-135532761D02*
X163296647Y-135580380D01*
X163058552Y-135580380D01*
X162963314Y-135532761D01*
X162915695Y-135437523D01*
X162915695Y-135342285D01*
X162963314Y-135247047D01*
X163058552Y-135199428D01*
X163296647Y-135199428D01*
X163391885Y-135151809D01*
X163868076Y-135580380D02*
X163868076Y-134580380D01*
X163963314Y-135199428D02*
X164249028Y-135580380D01*
X164249028Y-134913714D02*
X163868076Y-135294666D01*
X165058552Y-135532761D02*
X164963314Y-135580380D01*
X164772838Y-135580380D01*
X164677600Y-135532761D01*
X164629980Y-135437523D01*
X164629980Y-135056571D01*
X164677600Y-134961333D01*
X164772838Y-134913714D01*
X164963314Y-134913714D01*
X165058552Y-134961333D01*
X165106171Y-135056571D01*
X165106171Y-135151809D01*
X164629980Y-135247047D01*
X165487123Y-134675619D02*
X165534742Y-134628000D01*
X165629980Y-134580380D01*
X165868076Y-134580380D01*
X165963314Y-134628000D01*
X166010933Y-134675619D01*
X166058552Y-134770857D01*
X166058552Y-134866095D01*
X166010933Y-135008952D01*
X165439504Y-135580380D01*
X166058552Y-135580380D01*
X161677600Y-123931371D02*
X161820457Y-123978990D01*
X161868076Y-124026609D01*
X161915695Y-124121847D01*
X161915695Y-124264704D01*
X161868076Y-124359942D01*
X161820457Y-124407561D01*
X161725219Y-124455180D01*
X161344266Y-124455180D01*
X161344266Y-123455180D01*
X161677600Y-123455180D01*
X161772838Y-123502800D01*
X161820457Y-123550419D01*
X161868076Y-123645657D01*
X161868076Y-123740895D01*
X161820457Y-123836133D01*
X161772838Y-123883752D01*
X161677600Y-123931371D01*
X161344266Y-123931371D01*
X162344266Y-124455180D02*
X162344266Y-123788514D01*
X162344266Y-123978990D02*
X162391885Y-123883752D01*
X162439504Y-123836133D01*
X162534742Y-123788514D01*
X162629980Y-123788514D01*
X163391885Y-124455180D02*
X163391885Y-123931371D01*
X163344266Y-123836133D01*
X163249028Y-123788514D01*
X163058552Y-123788514D01*
X162963314Y-123836133D01*
X163391885Y-124407561D02*
X163296647Y-124455180D01*
X163058552Y-124455180D01*
X162963314Y-124407561D01*
X162915695Y-124312323D01*
X162915695Y-124217085D01*
X162963314Y-124121847D01*
X163058552Y-124074228D01*
X163296647Y-124074228D01*
X163391885Y-124026609D01*
X163868076Y-124455180D02*
X163868076Y-123455180D01*
X163963314Y-124074228D02*
X164249028Y-124455180D01*
X164249028Y-123788514D02*
X163868076Y-124169466D01*
X165058552Y-124407561D02*
X164963314Y-124455180D01*
X164772838Y-124455180D01*
X164677600Y-124407561D01*
X164629980Y-124312323D01*
X164629980Y-123931371D01*
X164677600Y-123836133D01*
X164772838Y-123788514D01*
X164963314Y-123788514D01*
X165058552Y-123836133D01*
X165106171Y-123931371D01*
X165106171Y-124026609D01*
X164629980Y-124121847D01*
X166058552Y-124455180D02*
X165487123Y-124455180D01*
X165772838Y-124455180D02*
X165772838Y-123455180D01*
X165677600Y-123598038D01*
X165582361Y-123693276D01*
X165487123Y-123740895D01*
X159194523Y-89622380D02*
X158718333Y-89622380D01*
X158670714Y-90098571D01*
X158718333Y-90050952D01*
X158813571Y-90003333D01*
X159051666Y-90003333D01*
X159146904Y-90050952D01*
X159194523Y-90098571D01*
X159242142Y-90193809D01*
X159242142Y-90431904D01*
X159194523Y-90527142D01*
X159146904Y-90574761D01*
X159051666Y-90622380D01*
X158813571Y-90622380D01*
X158718333Y-90574761D01*
X158670714Y-90527142D01*
X159527857Y-89622380D02*
X159861190Y-90622380D01*
X160194523Y-89622380D01*
X156607142Y-100734761D02*
X156750000Y-100782380D01*
X156988095Y-100782380D01*
X157083333Y-100734761D01*
X157130952Y-100687142D01*
X157178571Y-100591904D01*
X157178571Y-100496666D01*
X157130952Y-100401428D01*
X157083333Y-100353809D01*
X156988095Y-100306190D01*
X156797619Y-100258571D01*
X156702380Y-100210952D01*
X156654761Y-100163333D01*
X156607142Y-100068095D01*
X156607142Y-99972857D01*
X156654761Y-99877619D01*
X156702380Y-99830000D01*
X156797619Y-99782380D01*
X157035714Y-99782380D01*
X157178571Y-99830000D01*
X157607142Y-100782380D02*
X157607142Y-100115714D01*
X157607142Y-99782380D02*
X157559523Y-99830000D01*
X157607142Y-99877619D01*
X157654761Y-99830000D01*
X157607142Y-99782380D01*
X157607142Y-99877619D01*
X158511904Y-100115714D02*
X158511904Y-100925238D01*
X158464285Y-101020476D01*
X158416666Y-101068095D01*
X158321428Y-101115714D01*
X158178571Y-101115714D01*
X158083333Y-101068095D01*
X158511904Y-100734761D02*
X158416666Y-100782380D01*
X158226190Y-100782380D01*
X158130952Y-100734761D01*
X158083333Y-100687142D01*
X158035714Y-100591904D01*
X158035714Y-100306190D01*
X158083333Y-100210952D01*
X158130952Y-100163333D01*
X158226190Y-100115714D01*
X158416666Y-100115714D01*
X158511904Y-100163333D01*
X158988095Y-100115714D02*
X158988095Y-100782380D01*
X158988095Y-100210952D02*
X159035714Y-100163333D01*
X159130952Y-100115714D01*
X159273809Y-100115714D01*
X159369047Y-100163333D01*
X159416666Y-100258571D01*
X159416666Y-100782380D01*
X160321428Y-100782380D02*
X160321428Y-100258571D01*
X160273809Y-100163333D01*
X160178571Y-100115714D01*
X159988095Y-100115714D01*
X159892857Y-100163333D01*
X160321428Y-100734761D02*
X160226190Y-100782380D01*
X159988095Y-100782380D01*
X159892857Y-100734761D01*
X159845238Y-100639523D01*
X159845238Y-100544285D01*
X159892857Y-100449047D01*
X159988095Y-100401428D01*
X160226190Y-100401428D01*
X160321428Y-100353809D01*
X160940476Y-100782380D02*
X160845238Y-100734761D01*
X160797619Y-100639523D01*
X160797619Y-99782380D01*
X158623095Y-94750000D02*
X158527857Y-94702380D01*
X158385000Y-94702380D01*
X158242142Y-94750000D01*
X158146904Y-94845238D01*
X158099285Y-94940476D01*
X158051666Y-95130952D01*
X158051666Y-95273809D01*
X158099285Y-95464285D01*
X158146904Y-95559523D01*
X158242142Y-95654761D01*
X158385000Y-95702380D01*
X158480238Y-95702380D01*
X158623095Y-95654761D01*
X158670714Y-95607142D01*
X158670714Y-95273809D01*
X158480238Y-95273809D01*
X159099285Y-95702380D02*
X159099285Y-94702380D01*
X159670714Y-95702380D01*
X159670714Y-94702380D01*
X160146904Y-95702380D02*
X160146904Y-94702380D01*
X160385000Y-94702380D01*
X160527857Y-94750000D01*
X160623095Y-94845238D01*
X160670714Y-94940476D01*
X160718333Y-95130952D01*
X160718333Y-95273809D01*
X160670714Y-95464285D01*
X160623095Y-95559523D01*
X160527857Y-95654761D01*
X160385000Y-95702380D01*
X160146904Y-95702380D01*
X154099047Y-114466666D02*
X154575238Y-114466666D01*
X154003809Y-114752380D02*
X154337142Y-113752380D01*
X154670476Y-114752380D01*
X155003809Y-114085714D02*
X155003809Y-114752380D01*
X155003809Y-114180952D02*
X155051428Y-114133333D01*
X155146666Y-114085714D01*
X155289523Y-114085714D01*
X155384761Y-114133333D01*
X155432380Y-114228571D01*
X155432380Y-114752380D01*
X156337142Y-114752380D02*
X156337142Y-114228571D01*
X156289523Y-114133333D01*
X156194285Y-114085714D01*
X156003809Y-114085714D01*
X155908571Y-114133333D01*
X156337142Y-114704761D02*
X156241904Y-114752380D01*
X156003809Y-114752380D01*
X155908571Y-114704761D01*
X155860952Y-114609523D01*
X155860952Y-114514285D01*
X155908571Y-114419047D01*
X156003809Y-114371428D01*
X156241904Y-114371428D01*
X156337142Y-114323809D01*
X156956190Y-114752380D02*
X156860952Y-114704761D01*
X156813333Y-114609523D01*
X156813333Y-113752380D01*
X157480000Y-114752380D02*
X157384761Y-114704761D01*
X157337142Y-114657142D01*
X157289523Y-114561904D01*
X157289523Y-114276190D01*
X157337142Y-114180952D01*
X157384761Y-114133333D01*
X157480000Y-114085714D01*
X157622857Y-114085714D01*
X157718095Y-114133333D01*
X157765714Y-114180952D01*
X157813333Y-114276190D01*
X157813333Y-114561904D01*
X157765714Y-114657142D01*
X157718095Y-114704761D01*
X157622857Y-114752380D01*
X157480000Y-114752380D01*
X158670476Y-114085714D02*
X158670476Y-114895238D01*
X158622857Y-114990476D01*
X158575238Y-115038095D01*
X158480000Y-115085714D01*
X158337142Y-115085714D01*
X158241904Y-115038095D01*
X158670476Y-114704761D02*
X158575238Y-114752380D01*
X158384761Y-114752380D01*
X158289523Y-114704761D01*
X158241904Y-114657142D01*
X158194285Y-114561904D01*
X158194285Y-114276190D01*
X158241904Y-114180952D01*
X158289523Y-114133333D01*
X158384761Y-114085714D01*
X158575238Y-114085714D01*
X158670476Y-114133333D01*
X159908571Y-114752380D02*
X159908571Y-113752380D01*
X160384761Y-114085714D02*
X160384761Y-114752380D01*
X160384761Y-114180952D02*
X160432380Y-114133333D01*
X160527619Y-114085714D01*
X160670476Y-114085714D01*
X160765714Y-114133333D01*
X160813333Y-114228571D01*
X160813333Y-114752380D01*
X158146904Y-108672380D02*
X158765952Y-108672380D01*
X158432619Y-109053333D01*
X158575476Y-109053333D01*
X158670714Y-109100952D01*
X158718333Y-109148571D01*
X158765952Y-109243809D01*
X158765952Y-109481904D01*
X158718333Y-109577142D01*
X158670714Y-109624761D01*
X158575476Y-109672380D01*
X158289761Y-109672380D01*
X158194523Y-109624761D01*
X158146904Y-109577142D01*
X159051666Y-108672380D02*
X159385000Y-109672380D01*
X159718333Y-108672380D01*
X159956428Y-108672380D02*
X160575476Y-108672380D01*
X160242142Y-109053333D01*
X160385000Y-109053333D01*
X160480238Y-109100952D01*
X160527857Y-109148571D01*
X160575476Y-109243809D01*
X160575476Y-109481904D01*
X160527857Y-109577142D01*
X160480238Y-109624761D01*
X160385000Y-109672380D01*
X160099285Y-109672380D01*
X160004047Y-109624761D01*
X159956428Y-109577142D01*
X158623095Y-118880000D02*
X158527857Y-118832380D01*
X158385000Y-118832380D01*
X158242142Y-118880000D01*
X158146904Y-118975238D01*
X158099285Y-119070476D01*
X158051666Y-119260952D01*
X158051666Y-119403809D01*
X158099285Y-119594285D01*
X158146904Y-119689523D01*
X158242142Y-119784761D01*
X158385000Y-119832380D01*
X158480238Y-119832380D01*
X158623095Y-119784761D01*
X158670714Y-119737142D01*
X158670714Y-119403809D01*
X158480238Y-119403809D01*
X159099285Y-119832380D02*
X159099285Y-118832380D01*
X159670714Y-119832380D01*
X159670714Y-118832380D01*
X160146904Y-119832380D02*
X160146904Y-118832380D01*
X160385000Y-118832380D01*
X160527857Y-118880000D01*
X160623095Y-118975238D01*
X160670714Y-119070476D01*
X160718333Y-119260952D01*
X160718333Y-119403809D01*
X160670714Y-119594285D01*
X160623095Y-119689523D01*
X160527857Y-119784761D01*
X160385000Y-119832380D01*
X160146904Y-119832380D01*
X156607142Y-81684761D02*
X156750000Y-81732380D01*
X156988095Y-81732380D01*
X157083333Y-81684761D01*
X157130952Y-81637142D01*
X157178571Y-81541904D01*
X157178571Y-81446666D01*
X157130952Y-81351428D01*
X157083333Y-81303809D01*
X156988095Y-81256190D01*
X156797619Y-81208571D01*
X156702380Y-81160952D01*
X156654761Y-81113333D01*
X156607142Y-81018095D01*
X156607142Y-80922857D01*
X156654761Y-80827619D01*
X156702380Y-80780000D01*
X156797619Y-80732380D01*
X157035714Y-80732380D01*
X157178571Y-80780000D01*
X157607142Y-81732380D02*
X157607142Y-81065714D01*
X157607142Y-80732380D02*
X157559523Y-80780000D01*
X157607142Y-80827619D01*
X157654761Y-80780000D01*
X157607142Y-80732380D01*
X157607142Y-80827619D01*
X158511904Y-81065714D02*
X158511904Y-81875238D01*
X158464285Y-81970476D01*
X158416666Y-82018095D01*
X158321428Y-82065714D01*
X158178571Y-82065714D01*
X158083333Y-82018095D01*
X158511904Y-81684761D02*
X158416666Y-81732380D01*
X158226190Y-81732380D01*
X158130952Y-81684761D01*
X158083333Y-81637142D01*
X158035714Y-81541904D01*
X158035714Y-81256190D01*
X158083333Y-81160952D01*
X158130952Y-81113333D01*
X158226190Y-81065714D01*
X158416666Y-81065714D01*
X158511904Y-81113333D01*
X158988095Y-81065714D02*
X158988095Y-81732380D01*
X158988095Y-81160952D02*
X159035714Y-81113333D01*
X159130952Y-81065714D01*
X159273809Y-81065714D01*
X159369047Y-81113333D01*
X159416666Y-81208571D01*
X159416666Y-81732380D01*
X160321428Y-81732380D02*
X160321428Y-81208571D01*
X160273809Y-81113333D01*
X160178571Y-81065714D01*
X159988095Y-81065714D01*
X159892857Y-81113333D01*
X160321428Y-81684761D02*
X160226190Y-81732380D01*
X159988095Y-81732380D01*
X159892857Y-81684761D01*
X159845238Y-81589523D01*
X159845238Y-81494285D01*
X159892857Y-81399047D01*
X159988095Y-81351428D01*
X160226190Y-81351428D01*
X160321428Y-81303809D01*
X160940476Y-81732380D02*
X160845238Y-81684761D01*
X160797619Y-81589523D01*
X160797619Y-80732380D01*
X158623095Y-75700000D02*
X158527857Y-75652380D01*
X158385000Y-75652380D01*
X158242142Y-75700000D01*
X158146904Y-75795238D01*
X158099285Y-75890476D01*
X158051666Y-76080952D01*
X158051666Y-76223809D01*
X158099285Y-76414285D01*
X158146904Y-76509523D01*
X158242142Y-76604761D01*
X158385000Y-76652380D01*
X158480238Y-76652380D01*
X158623095Y-76604761D01*
X158670714Y-76557142D01*
X158670714Y-76223809D01*
X158480238Y-76223809D01*
X159099285Y-76652380D02*
X159099285Y-75652380D01*
X159670714Y-76652380D01*
X159670714Y-75652380D01*
X160146904Y-76652380D02*
X160146904Y-75652380D01*
X160385000Y-75652380D01*
X160527857Y-75700000D01*
X160623095Y-75795238D01*
X160670714Y-75890476D01*
X160718333Y-76080952D01*
X160718333Y-76223809D01*
X160670714Y-76414285D01*
X160623095Y-76509523D01*
X160527857Y-76604761D01*
X160385000Y-76652380D01*
X160146904Y-76652380D01*
X159194523Y-70572380D02*
X158718333Y-70572380D01*
X158670714Y-71048571D01*
X158718333Y-71000952D01*
X158813571Y-70953333D01*
X159051666Y-70953333D01*
X159146904Y-71000952D01*
X159194523Y-71048571D01*
X159242142Y-71143809D01*
X159242142Y-71381904D01*
X159194523Y-71477142D01*
X159146904Y-71524761D01*
X159051666Y-71572380D01*
X158813571Y-71572380D01*
X158718333Y-71524761D01*
X158670714Y-71477142D01*
X159527857Y-70572380D02*
X159861190Y-71572380D01*
X160194523Y-70572380D01*
X128055714Y-115228571D02*
X128722380Y-115228571D01*
X127674761Y-115466666D02*
X128389047Y-115704761D01*
X128389047Y-115085714D01*
X128627142Y-114704761D02*
X128674761Y-114657142D01*
X128722380Y-114704761D01*
X128674761Y-114752380D01*
X128627142Y-114704761D01*
X128722380Y-114704761D01*
X127722380Y-114323809D02*
X127722380Y-113657142D01*
X128722380Y-114085714D01*
X128722380Y-113276190D02*
X127722380Y-113276190D01*
X128341428Y-113180952D02*
X128722380Y-112895238D01*
X128055714Y-112895238D02*
X128436666Y-113276190D01*
X134500952Y-115514285D02*
X134453333Y-115609523D01*
X134405714Y-115657142D01*
X134310476Y-115704761D01*
X134262857Y-115704761D01*
X134167619Y-115657142D01*
X134120000Y-115609523D01*
X134072380Y-115514285D01*
X134072380Y-115323809D01*
X134120000Y-115228571D01*
X134167619Y-115180952D01*
X134262857Y-115133333D01*
X134310476Y-115133333D01*
X134405714Y-115180952D01*
X134453333Y-115228571D01*
X134500952Y-115323809D01*
X134500952Y-115514285D01*
X134548571Y-115609523D01*
X134596190Y-115657142D01*
X134691428Y-115704761D01*
X134881904Y-115704761D01*
X134977142Y-115657142D01*
X135024761Y-115609523D01*
X135072380Y-115514285D01*
X135072380Y-115323809D01*
X135024761Y-115228571D01*
X134977142Y-115180952D01*
X134881904Y-115133333D01*
X134691428Y-115133333D01*
X134596190Y-115180952D01*
X134548571Y-115228571D01*
X134500952Y-115323809D01*
X134977142Y-114704761D02*
X135024761Y-114657142D01*
X135072380Y-114704761D01*
X135024761Y-114752380D01*
X134977142Y-114704761D01*
X135072380Y-114704761D01*
X134167619Y-114276190D02*
X134120000Y-114228571D01*
X134072380Y-114133333D01*
X134072380Y-113895238D01*
X134120000Y-113800000D01*
X134167619Y-113752380D01*
X134262857Y-113704761D01*
X134358095Y-113704761D01*
X134500952Y-113752380D01*
X135072380Y-114323809D01*
X135072380Y-113704761D01*
X135072380Y-113276190D02*
X134072380Y-113276190D01*
X134691428Y-113180952D02*
X135072380Y-112895238D01*
X134405714Y-112895238D02*
X134786666Y-113276190D01*
X140850952Y-115514285D02*
X140803333Y-115609523D01*
X140755714Y-115657142D01*
X140660476Y-115704761D01*
X140612857Y-115704761D01*
X140517619Y-115657142D01*
X140470000Y-115609523D01*
X140422380Y-115514285D01*
X140422380Y-115323809D01*
X140470000Y-115228571D01*
X140517619Y-115180952D01*
X140612857Y-115133333D01*
X140660476Y-115133333D01*
X140755714Y-115180952D01*
X140803333Y-115228571D01*
X140850952Y-115323809D01*
X140850952Y-115514285D01*
X140898571Y-115609523D01*
X140946190Y-115657142D01*
X141041428Y-115704761D01*
X141231904Y-115704761D01*
X141327142Y-115657142D01*
X141374761Y-115609523D01*
X141422380Y-115514285D01*
X141422380Y-115323809D01*
X141374761Y-115228571D01*
X141327142Y-115180952D01*
X141231904Y-115133333D01*
X141041428Y-115133333D01*
X140946190Y-115180952D01*
X140898571Y-115228571D01*
X140850952Y-115323809D01*
X141327142Y-114704761D02*
X141374761Y-114657142D01*
X141422380Y-114704761D01*
X141374761Y-114752380D01*
X141327142Y-114704761D01*
X141422380Y-114704761D01*
X140517619Y-114276190D02*
X140470000Y-114228571D01*
X140422380Y-114133333D01*
X140422380Y-113895238D01*
X140470000Y-113800000D01*
X140517619Y-113752380D01*
X140612857Y-113704761D01*
X140708095Y-113704761D01*
X140850952Y-113752380D01*
X141422380Y-114323809D01*
X141422380Y-113704761D01*
X141422380Y-113276190D02*
X140422380Y-113276190D01*
X141041428Y-113180952D02*
X141422380Y-112895238D01*
X140755714Y-112895238D02*
X141136666Y-113276190D01*
X147105714Y-115228571D02*
X147772380Y-115228571D01*
X146724761Y-115466666D02*
X147439047Y-115704761D01*
X147439047Y-115085714D01*
X147677142Y-114704761D02*
X147724761Y-114657142D01*
X147772380Y-114704761D01*
X147724761Y-114752380D01*
X147677142Y-114704761D01*
X147772380Y-114704761D01*
X146772380Y-114323809D02*
X146772380Y-113657142D01*
X147772380Y-114085714D01*
X147772380Y-113276190D02*
X146772380Y-113276190D01*
X147391428Y-113180952D02*
X147772380Y-112895238D01*
X147105714Y-112895238D02*
X147486666Y-113276190D01*
X142605714Y-106942380D02*
X142605714Y-105942380D01*
X142986666Y-105942380D01*
X143081904Y-105990000D01*
X143129523Y-106037619D01*
X143177142Y-106132857D01*
X143177142Y-106275714D01*
X143129523Y-106370952D01*
X143081904Y-106418571D01*
X142986666Y-106466190D01*
X142605714Y-106466190D01*
X143605714Y-106942380D02*
X143605714Y-106275714D01*
X143605714Y-106466190D02*
X143653333Y-106370952D01*
X143700952Y-106323333D01*
X143796190Y-106275714D01*
X143891428Y-106275714D01*
X144367619Y-106942380D02*
X144272380Y-106894761D01*
X144224761Y-106847142D01*
X144177142Y-106751904D01*
X144177142Y-106466190D01*
X144224761Y-106370952D01*
X144272380Y-106323333D01*
X144367619Y-106275714D01*
X144510476Y-106275714D01*
X144605714Y-106323333D01*
X144653333Y-106370952D01*
X144700952Y-106466190D01*
X144700952Y-106751904D01*
X144653333Y-106847142D01*
X144605714Y-106894761D01*
X144510476Y-106942380D01*
X144367619Y-106942380D01*
X145558095Y-106275714D02*
X145558095Y-107085238D01*
X145510476Y-107180476D01*
X145462857Y-107228095D01*
X145367619Y-107275714D01*
X145224761Y-107275714D01*
X145129523Y-107228095D01*
X145558095Y-106894761D02*
X145462857Y-106942380D01*
X145272380Y-106942380D01*
X145177142Y-106894761D01*
X145129523Y-106847142D01*
X145081904Y-106751904D01*
X145081904Y-106466190D01*
X145129523Y-106370952D01*
X145177142Y-106323333D01*
X145272380Y-106275714D01*
X145462857Y-106275714D01*
X145558095Y-106323333D01*
X146034285Y-106942380D02*
X146034285Y-106275714D01*
X146034285Y-106466190D02*
X146081904Y-106370952D01*
X146129523Y-106323333D01*
X146224761Y-106275714D01*
X146320000Y-106275714D01*
X147081904Y-106942380D02*
X147081904Y-106418571D01*
X147034285Y-106323333D01*
X146939047Y-106275714D01*
X146748571Y-106275714D01*
X146653333Y-106323333D01*
X147081904Y-106894761D02*
X146986666Y-106942380D01*
X146748571Y-106942380D01*
X146653333Y-106894761D01*
X146605714Y-106799523D01*
X146605714Y-106704285D01*
X146653333Y-106609047D01*
X146748571Y-106561428D01*
X146986666Y-106561428D01*
X147081904Y-106513809D01*
X147558095Y-106942380D02*
X147558095Y-106275714D01*
X147558095Y-106370952D02*
X147605714Y-106323333D01*
X147700952Y-106275714D01*
X147843809Y-106275714D01*
X147939047Y-106323333D01*
X147986666Y-106418571D01*
X147986666Y-106942380D01*
X147986666Y-106418571D02*
X148034285Y-106323333D01*
X148129523Y-106275714D01*
X148272380Y-106275714D01*
X148367619Y-106323333D01*
X148415238Y-106418571D01*
X148415238Y-106942380D01*
X148891428Y-106942380D02*
X148891428Y-106275714D01*
X148891428Y-106370952D02*
X148939047Y-106323333D01*
X149034285Y-106275714D01*
X149177142Y-106275714D01*
X149272380Y-106323333D01*
X149320000Y-106418571D01*
X149320000Y-106942380D01*
X149320000Y-106418571D02*
X149367619Y-106323333D01*
X149462857Y-106275714D01*
X149605714Y-106275714D01*
X149700952Y-106323333D01*
X149748571Y-106418571D01*
X149748571Y-106942380D01*
X150224761Y-106942380D02*
X150224761Y-106275714D01*
X150224761Y-105942380D02*
X150177142Y-105990000D01*
X150224761Y-106037619D01*
X150272380Y-105990000D01*
X150224761Y-105942380D01*
X150224761Y-106037619D01*
X150700952Y-106275714D02*
X150700952Y-106942380D01*
X150700952Y-106370952D02*
X150748571Y-106323333D01*
X150843809Y-106275714D01*
X150986666Y-106275714D01*
X151081904Y-106323333D01*
X151129523Y-106418571D01*
X151129523Y-106942380D01*
X152034285Y-106275714D02*
X152034285Y-107085238D01*
X151986666Y-107180476D01*
X151939047Y-107228095D01*
X151843809Y-107275714D01*
X151700952Y-107275714D01*
X151605714Y-107228095D01*
X152034285Y-106894761D02*
X151939047Y-106942380D01*
X151748571Y-106942380D01*
X151653333Y-106894761D01*
X151605714Y-106847142D01*
X151558095Y-106751904D01*
X151558095Y-106466190D01*
X151605714Y-106370952D01*
X151653333Y-106323333D01*
X151748571Y-106275714D01*
X151939047Y-106275714D01*
X152034285Y-106323333D01*
X145653333Y-108592380D02*
X145653333Y-107592380D01*
X145986666Y-108306666D01*
X146320000Y-107592380D01*
X146320000Y-108592380D01*
X146939047Y-108592380D02*
X146843809Y-108544761D01*
X146796190Y-108497142D01*
X146748571Y-108401904D01*
X146748571Y-108116190D01*
X146796190Y-108020952D01*
X146843809Y-107973333D01*
X146939047Y-107925714D01*
X147081904Y-107925714D01*
X147177142Y-107973333D01*
X147224761Y-108020952D01*
X147272380Y-108116190D01*
X147272380Y-108401904D01*
X147224761Y-108497142D01*
X147177142Y-108544761D01*
X147081904Y-108592380D01*
X146939047Y-108592380D01*
X148129523Y-108592380D02*
X148129523Y-107592380D01*
X148129523Y-108544761D02*
X148034285Y-108592380D01*
X147843809Y-108592380D01*
X147748571Y-108544761D01*
X147700952Y-108497142D01*
X147653333Y-108401904D01*
X147653333Y-108116190D01*
X147700952Y-108020952D01*
X147748571Y-107973333D01*
X147843809Y-107925714D01*
X148034285Y-107925714D01*
X148129523Y-107973333D01*
X148986666Y-108544761D02*
X148891428Y-108592380D01*
X148700952Y-108592380D01*
X148605714Y-108544761D01*
X148558095Y-108449523D01*
X148558095Y-108068571D01*
X148605714Y-107973333D01*
X148700952Y-107925714D01*
X148891428Y-107925714D01*
X148986666Y-107973333D01*
X149034285Y-108068571D01*
X149034285Y-108163809D01*
X148558095Y-108259047D01*
X146700952Y-93432380D02*
X146891428Y-93432380D01*
X146986666Y-93480000D01*
X147081904Y-93575238D01*
X147129523Y-93765714D01*
X147129523Y-94099047D01*
X147081904Y-94289523D01*
X146986666Y-94384761D01*
X146891428Y-94432380D01*
X146700952Y-94432380D01*
X146605714Y-94384761D01*
X146510476Y-94289523D01*
X146462857Y-94099047D01*
X146462857Y-93765714D01*
X146510476Y-93575238D01*
X146605714Y-93480000D01*
X146700952Y-93432380D01*
X147558095Y-94432380D02*
X147558095Y-93432380D01*
X148129523Y-94432380D01*
X148129523Y-93432380D01*
D13*
X116300000Y-91210000D02*
X116300000Y-91540000D01*
X116300000Y-91540000D02*
X109760000Y-91540000D01*
X109760000Y-91540000D02*
X109760000Y-91210000D01*
X116300000Y-89130000D02*
X116300000Y-88800000D01*
X116300000Y-88800000D02*
X109760000Y-88800000D01*
X109760000Y-88800000D02*
X109760000Y-89130000D01*
X105096000Y-122876000D02*
X106426000Y-122876000D01*
X105096000Y-124206000D02*
X105096000Y-122876000D01*
X105096000Y-125476000D02*
X107756000Y-125476000D01*
X107756000Y-125476000D02*
X107756000Y-143316000D01*
X105096000Y-125476000D02*
X105096000Y-143316000D01*
X105096000Y-143316000D02*
X107756000Y-143316000D01*
X137305999Y-102216001D02*
X137305999Y-103546001D01*
X135975999Y-102216001D02*
X137305999Y-102216001D01*
X134705999Y-102216001D02*
X134705999Y-104876001D01*
X134705999Y-104876001D02*
X101625999Y-104876001D01*
X134705999Y-102216001D02*
X101625999Y-102216001D01*
X101625999Y-102216001D02*
X101625999Y-104876001D01*
X133250000Y-117570000D02*
X133580000Y-117570000D01*
X133250000Y-111030000D02*
X133250000Y-117570000D01*
X133580000Y-111030000D02*
X133250000Y-111030000D01*
X135990000Y-117570000D02*
X135660000Y-117570000D01*
X135990000Y-111030000D02*
X135990000Y-117570000D01*
X135660000Y-111030000D02*
X135990000Y-111030000D01*
X127230000Y-117570000D02*
X126900000Y-117570000D01*
X126900000Y-117570000D02*
X126900000Y-111030000D01*
X126900000Y-111030000D02*
X127230000Y-111030000D01*
X129310000Y-117570000D02*
X129640000Y-117570000D01*
X129640000Y-117570000D02*
X129640000Y-111030000D01*
X129640000Y-111030000D02*
X129310000Y-111030000D01*
X142010000Y-111030000D02*
X142340000Y-111030000D01*
X142340000Y-111030000D02*
X142340000Y-117570000D01*
X142340000Y-117570000D02*
X142010000Y-117570000D01*
X139930000Y-111030000D02*
X139600000Y-111030000D01*
X139600000Y-111030000D02*
X139600000Y-117570000D01*
X139600000Y-117570000D02*
X139930000Y-117570000D01*
X148944000Y-111030000D02*
X148614000Y-111030000D01*
X148944000Y-117570000D02*
X148944000Y-111030000D01*
X148614000Y-117570000D02*
X148944000Y-117570000D01*
X146204000Y-111030000D02*
X146534000Y-111030000D01*
X146204000Y-117570000D02*
X146204000Y-111030000D01*
X146534000Y-117570000D02*
X146204000Y-117570000D01*
X133036000Y-122876000D02*
X134366000Y-122876000D01*
X133036000Y-124206000D02*
X133036000Y-122876000D01*
X133036000Y-125476000D02*
X135696000Y-125476000D01*
X135696000Y-125476000D02*
X135696000Y-125536000D01*
X133036000Y-125476000D02*
X133036000Y-125536000D01*
X133036000Y-125536000D02*
X135696000Y-125536000D01*
X133036000Y-143316000D02*
X135696000Y-143316000D01*
X133036000Y-143256000D02*
X133036000Y-143316000D01*
X135696000Y-143256000D02*
X135696000Y-143316000D01*
X133036000Y-143256000D02*
X135696000Y-143256000D01*
X133036000Y-141986000D02*
X133036000Y-140656000D01*
X133036000Y-140656000D02*
X134366000Y-140656000D01*
X100016000Y-143316000D02*
X102676000Y-143316000D01*
X100016000Y-125476000D02*
X100016000Y-143316000D01*
X102676000Y-125476000D02*
X102676000Y-143316000D01*
X100016000Y-125476000D02*
X102676000Y-125476000D01*
X100016000Y-124206000D02*
X100016000Y-122876000D01*
X100016000Y-122876000D02*
X101346000Y-122876000D01*
X107636000Y-125536000D02*
X107636000Y-124206000D01*
X108966000Y-125536000D02*
X107636000Y-125536000D01*
X110236000Y-125536000D02*
X110236000Y-122876000D01*
X110236000Y-122876000D02*
X112836000Y-122876000D01*
X110236000Y-125536000D02*
X112836000Y-125536000D01*
X112836000Y-125536000D02*
X112836000Y-122876000D01*
X160140000Y-138430000D02*
X162680000Y-138430000D01*
X160140000Y-140970000D02*
X162680000Y-140970000D01*
X160140000Y-143510000D02*
X162680000Y-143510000D01*
X144250000Y-135850000D02*
X160140000Y-135850000D01*
X144250000Y-146090000D02*
X160140000Y-146090000D01*
X144250000Y-146090000D02*
X144250000Y-135850000D01*
X160140000Y-146090000D02*
X160140000Y-135850000D01*
X101625999Y-70436001D02*
X101625999Y-73096001D01*
X134705999Y-70436001D02*
X101625999Y-70436001D01*
X134705999Y-73096001D02*
X101625999Y-73096001D01*
X134705999Y-70436001D02*
X134705999Y-73096001D01*
X135975999Y-70436001D02*
X137305999Y-70436001D01*
X137305999Y-70436001D02*
X137305999Y-71766001D01*
X137305999Y-77436001D02*
X137305999Y-78766001D01*
X135975999Y-77436001D02*
X137305999Y-77436001D01*
X134705999Y-77436001D02*
X134705999Y-80096001D01*
X134705999Y-80096001D02*
X101625999Y-80096001D01*
X134705999Y-77436001D02*
X101625999Y-77436001D01*
X101625999Y-77436001D02*
X101625999Y-80096001D01*
X101625999Y-95216001D02*
X101625999Y-97876001D01*
X134705999Y-95216001D02*
X101625999Y-95216001D01*
X134705999Y-97876001D02*
X101625999Y-97876001D01*
X134705999Y-95216001D02*
X134705999Y-97876001D01*
X135975999Y-95216001D02*
X137305999Y-95216001D01*
X137305999Y-95216001D02*
X137305999Y-96546001D01*
X91230000Y-124480000D02*
X89110000Y-124480000D01*
X91230000Y-138540000D02*
X91230000Y-124480000D01*
X89110000Y-138540000D02*
X89110000Y-124480000D01*
X91230000Y-138540000D02*
X89110000Y-138540000D01*
X91230000Y-139540000D02*
X91230000Y-140600000D01*
X91230000Y-140600000D02*
X90170000Y-140600000D01*
X91230000Y-91230000D02*
X90170000Y-91230000D01*
X91230000Y-90170000D02*
X91230000Y-91230000D01*
X91230000Y-89170000D02*
X89110000Y-89170000D01*
X89110000Y-89170000D02*
X89110000Y-75110000D01*
X91230000Y-89170000D02*
X91230000Y-75110000D01*
X91230000Y-75110000D02*
X89110000Y-75110000D01*
X147006000Y-71060000D02*
X148336000Y-71060000D01*
X147006000Y-72390000D02*
X147006000Y-71060000D01*
X147006000Y-73660000D02*
X149666000Y-73660000D01*
X149666000Y-73660000D02*
X149666000Y-76260000D01*
X147006000Y-73660000D02*
X147006000Y-76260000D01*
X147006000Y-76260000D02*
X149666000Y-76260000D01*
X141418000Y-76260000D02*
X144078000Y-76260000D01*
X141418000Y-73660000D02*
X141418000Y-76260000D01*
X144078000Y-73660000D02*
X144078000Y-76260000D01*
X141418000Y-73660000D02*
X144078000Y-73660000D01*
X141418000Y-72390000D02*
X141418000Y-71060000D01*
X141418000Y-71060000D02*
X142748000Y-71060000D01*
X152340000Y-71060000D02*
X153670000Y-71060000D01*
X152340000Y-72390000D02*
X152340000Y-71060000D01*
X152340000Y-73660000D02*
X155000000Y-73660000D01*
X155000000Y-73660000D02*
X155000000Y-76260000D01*
X152340000Y-73660000D02*
X152340000Y-76260000D01*
X152340000Y-76260000D02*
X155000000Y-76260000D01*
X109760000Y-84990000D02*
X109760000Y-85320000D01*
X116300000Y-84990000D02*
X109760000Y-84990000D01*
X116300000Y-85320000D02*
X116300000Y-84990000D01*
X109760000Y-87730000D02*
X109760000Y-87400000D01*
X116300000Y-87730000D02*
X109760000Y-87730000D01*
X116300000Y-87400000D02*
X116300000Y-87730000D01*
X103600000Y-91210000D02*
X103600000Y-91540000D01*
X103600000Y-91540000D02*
X97060000Y-91540000D01*
X97060000Y-91540000D02*
X97060000Y-91210000D01*
X103600000Y-89130000D02*
X103600000Y-88800000D01*
X103600000Y-88800000D02*
X97060000Y-88800000D01*
X97060000Y-88800000D02*
X97060000Y-89130000D01*
X97060000Y-84990000D02*
X97060000Y-85320000D01*
X103600000Y-84990000D02*
X97060000Y-84990000D01*
X103600000Y-85320000D02*
X103600000Y-84990000D01*
X97060000Y-87730000D02*
X97060000Y-87400000D01*
X103600000Y-87730000D02*
X97060000Y-87730000D01*
X103600000Y-87400000D02*
X103600000Y-87730000D01*
X144720000Y-104200000D02*
X149920000Y-104200000D01*
X144720000Y-99060000D02*
X144720000Y-104200000D01*
X149920000Y-96460000D02*
X149920000Y-104200000D01*
X144720000Y-99060000D02*
X147320000Y-99060000D01*
X147320000Y-99060000D02*
X147320000Y-96460000D01*
X147320000Y-96460000D02*
X149920000Y-96460000D01*
X144720000Y-97790000D02*
X144720000Y-96460000D01*
X144720000Y-96460000D02*
X146050000Y-96460000D01*
X162500000Y-107890000D02*
X163830000Y-107890000D01*
X165160000Y-110490000D02*
X165160000Y-120710000D01*
X162500000Y-109220000D02*
X162500000Y-107890000D01*
X162500000Y-110490000D02*
X165160000Y-110490000D01*
X162500000Y-110490000D02*
X162500000Y-120710000D01*
X162500000Y-120710000D02*
X165160000Y-120710000D01*
X162500000Y-69790000D02*
X163830000Y-69790000D01*
X165160000Y-72390000D02*
X165160000Y-82610000D01*
X162500000Y-71120000D02*
X162500000Y-69790000D01*
X162500000Y-72390000D02*
X165160000Y-72390000D01*
X162500000Y-72390000D02*
X162500000Y-82610000D01*
X162500000Y-82610000D02*
X165160000Y-82610000D01*
X162500000Y-101660000D02*
X165160000Y-101660000D01*
X162500000Y-91440000D02*
X162500000Y-101660000D01*
X162500000Y-91440000D02*
X165160000Y-91440000D01*
X162500000Y-90170000D02*
X162500000Y-88840000D01*
X165160000Y-91440000D02*
X165160000Y-101660000D01*
X162500000Y-88840000D02*
X163830000Y-88840000D01*
X162500000Y-133410000D02*
X165160000Y-133410000D01*
X162500000Y-127000000D02*
X162500000Y-125670000D01*
X165160000Y-128270000D02*
X165160000Y-133410000D01*
X162500000Y-128270000D02*
X162500000Y-133410000D01*
X162500000Y-125670000D02*
X163830000Y-125670000D01*
X162500000Y-128270000D02*
X165160000Y-128270000D01*
D12*
X117308333Y-90622380D02*
X116975000Y-90146190D01*
X116736904Y-90622380D02*
X116736904Y-89622380D01*
X117117857Y-89622380D01*
X117213095Y-89670000D01*
X117260714Y-89717619D01*
X117308333Y-89812857D01*
X117308333Y-89955714D01*
X117260714Y-90050952D01*
X117213095Y-90098571D01*
X117117857Y-90146190D01*
X116736904Y-90146190D01*
X118260714Y-90622380D02*
X117689285Y-90622380D01*
X117975000Y-90622380D02*
X117975000Y-89622380D01*
X117879761Y-89765238D01*
X117784523Y-89860476D01*
X117689285Y-89908095D01*
X106092666Y-121328380D02*
X106092666Y-122042666D01*
X106045047Y-122185523D01*
X105949809Y-122280761D01*
X105806952Y-122328380D01*
X105711714Y-122328380D01*
X107092666Y-122328380D02*
X106521238Y-122328380D01*
X106806952Y-122328380D02*
X106806952Y-121328380D01*
X106711714Y-121471238D01*
X106616476Y-121566476D01*
X106521238Y-121614095D01*
X137758379Y-103879334D02*
X138472665Y-103879334D01*
X138615522Y-103926953D01*
X138710760Y-104022191D01*
X138758379Y-104165048D01*
X138758379Y-104260286D01*
X137758379Y-103498381D02*
X137758379Y-102831715D01*
X138758379Y-103260286D01*
X135072380Y-118911666D02*
X134596190Y-119245000D01*
X135072380Y-119483095D02*
X134072380Y-119483095D01*
X134072380Y-119102142D01*
X134120000Y-119006904D01*
X134167619Y-118959285D01*
X134262857Y-118911666D01*
X134405714Y-118911666D01*
X134500952Y-118959285D01*
X134548571Y-119006904D01*
X134596190Y-119102142D01*
X134596190Y-119483095D01*
X134405714Y-118054523D02*
X135072380Y-118054523D01*
X134024761Y-118292619D02*
X134739047Y-118530714D01*
X134739047Y-117911666D01*
X128722380Y-118911666D02*
X128246190Y-119245000D01*
X128722380Y-119483095D02*
X127722380Y-119483095D01*
X127722380Y-119102142D01*
X127770000Y-119006904D01*
X127817619Y-118959285D01*
X127912857Y-118911666D01*
X128055714Y-118911666D01*
X128150952Y-118959285D01*
X128198571Y-119006904D01*
X128246190Y-119102142D01*
X128246190Y-119483095D01*
X127722380Y-118578333D02*
X127722380Y-117959285D01*
X128103333Y-118292619D01*
X128103333Y-118149761D01*
X128150952Y-118054523D01*
X128198571Y-118006904D01*
X128293809Y-117959285D01*
X128531904Y-117959285D01*
X128627142Y-118006904D01*
X128674761Y-118054523D01*
X128722380Y-118149761D01*
X128722380Y-118435476D01*
X128674761Y-118530714D01*
X128627142Y-118578333D01*
X141422380Y-118911666D02*
X140946190Y-119245000D01*
X141422380Y-119483095D02*
X140422380Y-119483095D01*
X140422380Y-119102142D01*
X140470000Y-119006904D01*
X140517619Y-118959285D01*
X140612857Y-118911666D01*
X140755714Y-118911666D01*
X140850952Y-118959285D01*
X140898571Y-119006904D01*
X140946190Y-119102142D01*
X140946190Y-119483095D01*
X140850952Y-118340238D02*
X140803333Y-118435476D01*
X140755714Y-118483095D01*
X140660476Y-118530714D01*
X140612857Y-118530714D01*
X140517619Y-118483095D01*
X140470000Y-118435476D01*
X140422380Y-118340238D01*
X140422380Y-118149761D01*
X140470000Y-118054523D01*
X140517619Y-118006904D01*
X140612857Y-117959285D01*
X140660476Y-117959285D01*
X140755714Y-118006904D01*
X140803333Y-118054523D01*
X140850952Y-118149761D01*
X140850952Y-118340238D01*
X140898571Y-118435476D01*
X140946190Y-118483095D01*
X141041428Y-118530714D01*
X141231904Y-118530714D01*
X141327142Y-118483095D01*
X141374761Y-118435476D01*
X141422380Y-118340238D01*
X141422380Y-118149761D01*
X141374761Y-118054523D01*
X141327142Y-118006904D01*
X141231904Y-117959285D01*
X141041428Y-117959285D01*
X140946190Y-118006904D01*
X140898571Y-118054523D01*
X140850952Y-118149761D01*
X147772380Y-118911666D02*
X147296190Y-119245000D01*
X147772380Y-119483095D02*
X146772380Y-119483095D01*
X146772380Y-119102142D01*
X146820000Y-119006904D01*
X146867619Y-118959285D01*
X146962857Y-118911666D01*
X147105714Y-118911666D01*
X147200952Y-118959285D01*
X147248571Y-119006904D01*
X147296190Y-119102142D01*
X147296190Y-119483095D01*
X146772380Y-118578333D02*
X146772380Y-117911666D01*
X147772380Y-118340238D01*
X134032666Y-121328380D02*
X134032666Y-122042666D01*
X133985047Y-122185523D01*
X133889809Y-122280761D01*
X133746952Y-122328380D01*
X133651714Y-122328380D01*
X134461238Y-121423619D02*
X134508857Y-121376000D01*
X134604095Y-121328380D01*
X134842190Y-121328380D01*
X134937428Y-121376000D01*
X134985047Y-121423619D01*
X135032666Y-121518857D01*
X135032666Y-121614095D01*
X134985047Y-121756952D01*
X134413619Y-122328380D01*
X135032666Y-122328380D01*
X134032666Y-139108380D02*
X134032666Y-139822666D01*
X133985047Y-139965523D01*
X133889809Y-140060761D01*
X133746952Y-140108380D01*
X133651714Y-140108380D01*
X134413619Y-139108380D02*
X135032666Y-139108380D01*
X134699333Y-139489333D01*
X134842190Y-139489333D01*
X134937428Y-139536952D01*
X134985047Y-139584571D01*
X135032666Y-139679809D01*
X135032666Y-139917904D01*
X134985047Y-140013142D01*
X134937428Y-140060761D01*
X134842190Y-140108380D01*
X134556476Y-140108380D01*
X134461238Y-140060761D01*
X134413619Y-140013142D01*
X100536476Y-121328380D02*
X100536476Y-122042666D01*
X100488857Y-122185523D01*
X100393619Y-122280761D01*
X100250761Y-122328380D01*
X100155523Y-122328380D01*
X101536476Y-122328380D02*
X100965047Y-122328380D01*
X101250761Y-122328380D02*
X101250761Y-121328380D01*
X101155523Y-121471238D01*
X101060285Y-121566476D01*
X100965047Y-121614095D01*
X102441238Y-121328380D02*
X101965047Y-121328380D01*
X101917428Y-121804571D01*
X101965047Y-121756952D01*
X102060285Y-121709333D01*
X102298380Y-121709333D01*
X102393619Y-121756952D01*
X102441238Y-121804571D01*
X102488857Y-121899809D01*
X102488857Y-122137904D01*
X102441238Y-122233142D01*
X102393619Y-122280761D01*
X102298380Y-122328380D01*
X102060285Y-122328380D01*
X101965047Y-122280761D01*
X101917428Y-122233142D01*
X106088380Y-125015523D02*
X106802666Y-125015523D01*
X106945523Y-125063142D01*
X107040761Y-125158380D01*
X107088380Y-125301238D01*
X107088380Y-125396476D01*
X107088380Y-124015523D02*
X107088380Y-124586952D01*
X107088380Y-124301238D02*
X106088380Y-124301238D01*
X106231238Y-124396476D01*
X106326476Y-124491714D01*
X106374095Y-124586952D01*
X106088380Y-123158380D02*
X106088380Y-123348857D01*
X106136000Y-123444095D01*
X106183619Y-123491714D01*
X106326476Y-123586952D01*
X106516952Y-123634571D01*
X106897904Y-123634571D01*
X106993142Y-123586952D01*
X107040761Y-123539333D01*
X107088380Y-123444095D01*
X107088380Y-123253619D01*
X107040761Y-123158380D01*
X106993142Y-123110761D01*
X106897904Y-123063142D01*
X106659809Y-123063142D01*
X106564571Y-123110761D01*
X106516952Y-123158380D01*
X106469333Y-123253619D01*
X106469333Y-123444095D01*
X106516952Y-123539333D01*
X106564571Y-123586952D01*
X106659809Y-123634571D01*
X142702380Y-141731904D02*
X143511904Y-141731904D01*
X143607142Y-141684285D01*
X143654761Y-141636666D01*
X143702380Y-141541428D01*
X143702380Y-141350952D01*
X143654761Y-141255714D01*
X143607142Y-141208095D01*
X143511904Y-141160476D01*
X142702380Y-141160476D01*
X143702380Y-140160476D02*
X143702380Y-140731904D01*
X143702380Y-140446190D02*
X142702380Y-140446190D01*
X142845238Y-140541428D01*
X142940476Y-140636666D01*
X142988095Y-140731904D01*
X137758379Y-72099334D02*
X138472665Y-72099334D01*
X138615522Y-72146953D01*
X138710760Y-72242191D01*
X138758379Y-72385048D01*
X138758379Y-72480286D01*
X138091713Y-71194572D02*
X138758379Y-71194572D01*
X137710760Y-71432667D02*
X138425046Y-71670762D01*
X138425046Y-71051715D01*
X137758379Y-79099334D02*
X138472665Y-79099334D01*
X138615522Y-79146953D01*
X138710760Y-79242191D01*
X138758379Y-79385048D01*
X138758379Y-79480286D01*
X137758379Y-78146953D02*
X137758379Y-78623143D01*
X138234570Y-78670762D01*
X138186951Y-78623143D01*
X138139332Y-78527905D01*
X138139332Y-78289810D01*
X138186951Y-78194572D01*
X138234570Y-78146953D01*
X138329808Y-78099334D01*
X138567903Y-78099334D01*
X138663141Y-78146953D01*
X138710760Y-78194572D01*
X138758379Y-78289810D01*
X138758379Y-78527905D01*
X138710760Y-78623143D01*
X138663141Y-78670762D01*
X137758379Y-96879334D02*
X138472665Y-96879334D01*
X138615522Y-96926953D01*
X138710760Y-97022191D01*
X138758379Y-97165048D01*
X138758379Y-97260286D01*
X137758379Y-95974572D02*
X137758379Y-96165048D01*
X137805999Y-96260286D01*
X137853618Y-96307905D01*
X137996475Y-96403143D01*
X138186951Y-96450762D01*
X138567903Y-96450762D01*
X138663141Y-96403143D01*
X138710760Y-96355524D01*
X138758379Y-96260286D01*
X138758379Y-96069810D01*
X138710760Y-95974572D01*
X138663141Y-95926953D01*
X138567903Y-95879334D01*
X138329808Y-95879334D01*
X138234570Y-95926953D01*
X138186951Y-95974572D01*
X138139332Y-96069810D01*
X138139332Y-96260286D01*
X138186951Y-96355524D01*
X138234570Y-96403143D01*
X138329808Y-96450762D01*
X89836666Y-141052380D02*
X89836666Y-141766666D01*
X89789047Y-141909523D01*
X89693809Y-142004761D01*
X89550952Y-142052380D01*
X89455714Y-142052380D01*
X90455714Y-141480952D02*
X90360476Y-141433333D01*
X90312857Y-141385714D01*
X90265238Y-141290476D01*
X90265238Y-141242857D01*
X90312857Y-141147619D01*
X90360476Y-141100000D01*
X90455714Y-141052380D01*
X90646190Y-141052380D01*
X90741428Y-141100000D01*
X90789047Y-141147619D01*
X90836666Y-141242857D01*
X90836666Y-141290476D01*
X90789047Y-141385714D01*
X90741428Y-141433333D01*
X90646190Y-141480952D01*
X90455714Y-141480952D01*
X90360476Y-141528571D01*
X90312857Y-141576190D01*
X90265238Y-141671428D01*
X90265238Y-141861904D01*
X90312857Y-141957142D01*
X90360476Y-142004761D01*
X90455714Y-142052380D01*
X90646190Y-142052380D01*
X90741428Y-142004761D01*
X90789047Y-141957142D01*
X90836666Y-141861904D01*
X90836666Y-141671428D01*
X90789047Y-141576190D01*
X90741428Y-141528571D01*
X90646190Y-141480952D01*
X89360476Y-91682380D02*
X89360476Y-92396666D01*
X89312857Y-92539523D01*
X89217619Y-92634761D01*
X89074761Y-92682380D01*
X88979523Y-92682380D01*
X90360476Y-92682380D02*
X89789047Y-92682380D01*
X90074761Y-92682380D02*
X90074761Y-91682380D01*
X89979523Y-91825238D01*
X89884285Y-91920476D01*
X89789047Y-91968095D01*
X90979523Y-91682380D02*
X91074761Y-91682380D01*
X91170000Y-91730000D01*
X91217619Y-91777619D01*
X91265238Y-91872857D01*
X91312857Y-92063333D01*
X91312857Y-92301428D01*
X91265238Y-92491904D01*
X91217619Y-92587142D01*
X91170000Y-92634761D01*
X91074761Y-92682380D01*
X90979523Y-92682380D01*
X90884285Y-92634761D01*
X90836666Y-92587142D01*
X90789047Y-92491904D01*
X90741428Y-92301428D01*
X90741428Y-92063333D01*
X90789047Y-91872857D01*
X90836666Y-91777619D01*
X90884285Y-91730000D01*
X90979523Y-91682380D01*
X147526476Y-69512380D02*
X147526476Y-70226666D01*
X147478857Y-70369523D01*
X147383619Y-70464761D01*
X147240761Y-70512380D01*
X147145523Y-70512380D01*
X148526476Y-70512380D02*
X147955047Y-70512380D01*
X148240761Y-70512380D02*
X148240761Y-69512380D01*
X148145523Y-69655238D01*
X148050285Y-69750476D01*
X147955047Y-69798095D01*
X149478857Y-70512380D02*
X148907428Y-70512380D01*
X149193142Y-70512380D02*
X149193142Y-69512380D01*
X149097904Y-69655238D01*
X149002666Y-69750476D01*
X148907428Y-69798095D01*
X141938476Y-69512380D02*
X141938476Y-70226666D01*
X141890857Y-70369523D01*
X141795619Y-70464761D01*
X141652761Y-70512380D01*
X141557523Y-70512380D01*
X142938476Y-70512380D02*
X142367047Y-70512380D01*
X142652761Y-70512380D02*
X142652761Y-69512380D01*
X142557523Y-69655238D01*
X142462285Y-69750476D01*
X142367047Y-69798095D01*
X143509904Y-69940952D02*
X143414666Y-69893333D01*
X143367047Y-69845714D01*
X143319428Y-69750476D01*
X143319428Y-69702857D01*
X143367047Y-69607619D01*
X143414666Y-69560000D01*
X143509904Y-69512380D01*
X143700380Y-69512380D01*
X143795619Y-69560000D01*
X143843238Y-69607619D01*
X143890857Y-69702857D01*
X143890857Y-69750476D01*
X143843238Y-69845714D01*
X143795619Y-69893333D01*
X143700380Y-69940952D01*
X143509904Y-69940952D01*
X143414666Y-69988571D01*
X143367047Y-70036190D01*
X143319428Y-70131428D01*
X143319428Y-70321904D01*
X143367047Y-70417142D01*
X143414666Y-70464761D01*
X143509904Y-70512380D01*
X143700380Y-70512380D01*
X143795619Y-70464761D01*
X143843238Y-70417142D01*
X143890857Y-70321904D01*
X143890857Y-70131428D01*
X143843238Y-70036190D01*
X143795619Y-69988571D01*
X143700380Y-69940952D01*
X152860476Y-69512380D02*
X152860476Y-70226666D01*
X152812857Y-70369523D01*
X152717619Y-70464761D01*
X152574761Y-70512380D01*
X152479523Y-70512380D01*
X153860476Y-70512380D02*
X153289047Y-70512380D01*
X153574761Y-70512380D02*
X153574761Y-69512380D01*
X153479523Y-69655238D01*
X153384285Y-69750476D01*
X153289047Y-69798095D01*
X154336666Y-70512380D02*
X154527142Y-70512380D01*
X154622380Y-70464761D01*
X154670000Y-70417142D01*
X154765238Y-70274285D01*
X154812857Y-70083809D01*
X154812857Y-69702857D01*
X154765238Y-69607619D01*
X154717619Y-69560000D01*
X154622380Y-69512380D01*
X154431904Y-69512380D01*
X154336666Y-69560000D01*
X154289047Y-69607619D01*
X154241428Y-69702857D01*
X154241428Y-69940952D01*
X154289047Y-70036190D01*
X154336666Y-70083809D01*
X154431904Y-70131428D01*
X154622380Y-70131428D01*
X154717619Y-70083809D01*
X154765238Y-70036190D01*
X154812857Y-69940952D01*
X117308333Y-86812380D02*
X116975000Y-86336190D01*
X116736904Y-86812380D02*
X116736904Y-85812380D01*
X117117857Y-85812380D01*
X117213095Y-85860000D01*
X117260714Y-85907619D01*
X117308333Y-86002857D01*
X117308333Y-86145714D01*
X117260714Y-86240952D01*
X117213095Y-86288571D01*
X117117857Y-86336190D01*
X116736904Y-86336190D01*
X117689285Y-85907619D02*
X117736904Y-85860000D01*
X117832142Y-85812380D01*
X118070238Y-85812380D01*
X118165476Y-85860000D01*
X118213095Y-85907619D01*
X118260714Y-86002857D01*
X118260714Y-86098095D01*
X118213095Y-86240952D01*
X117641666Y-86812380D01*
X118260714Y-86812380D01*
X104608333Y-90622380D02*
X104275000Y-90146190D01*
X104036904Y-90622380D02*
X104036904Y-89622380D01*
X104417857Y-89622380D01*
X104513095Y-89670000D01*
X104560714Y-89717619D01*
X104608333Y-89812857D01*
X104608333Y-89955714D01*
X104560714Y-90050952D01*
X104513095Y-90098571D01*
X104417857Y-90146190D01*
X104036904Y-90146190D01*
X105513095Y-89622380D02*
X105036904Y-89622380D01*
X104989285Y-90098571D01*
X105036904Y-90050952D01*
X105132142Y-90003333D01*
X105370238Y-90003333D01*
X105465476Y-90050952D01*
X105513095Y-90098571D01*
X105560714Y-90193809D01*
X105560714Y-90431904D01*
X105513095Y-90527142D01*
X105465476Y-90574761D01*
X105370238Y-90622380D01*
X105132142Y-90622380D01*
X105036904Y-90574761D01*
X104989285Y-90527142D01*
X104608333Y-86812380D02*
X104275000Y-86336190D01*
X104036904Y-86812380D02*
X104036904Y-85812380D01*
X104417857Y-85812380D01*
X104513095Y-85860000D01*
X104560714Y-85907619D01*
X104608333Y-86002857D01*
X104608333Y-86145714D01*
X104560714Y-86240952D01*
X104513095Y-86288571D01*
X104417857Y-86336190D01*
X104036904Y-86336190D01*
X105465476Y-85812380D02*
X105275000Y-85812380D01*
X105179761Y-85860000D01*
X105132142Y-85907619D01*
X105036904Y-86050476D01*
X104989285Y-86240952D01*
X104989285Y-86621904D01*
X105036904Y-86717142D01*
X105084523Y-86764761D01*
X105179761Y-86812380D01*
X105370238Y-86812380D01*
X105465476Y-86764761D01*
X105513095Y-86717142D01*
X105560714Y-86621904D01*
X105560714Y-86383809D01*
X105513095Y-86288571D01*
X105465476Y-86240952D01*
X105370238Y-86193333D01*
X105179761Y-86193333D01*
X105084523Y-86240952D01*
X105036904Y-86288571D01*
X104989285Y-86383809D01*
X150955476Y-99782380D02*
X150955476Y-100496666D01*
X150907857Y-100639523D01*
X150812619Y-100734761D01*
X150669761Y-100782380D01*
X150574523Y-100782380D01*
X151955476Y-100782380D02*
X151384047Y-100782380D01*
X151669761Y-100782380D02*
X151669761Y-99782380D01*
X151574523Y-99925238D01*
X151479285Y-100020476D01*
X151384047Y-100068095D01*
X152812619Y-100115714D02*
X152812619Y-100782380D01*
X152574523Y-99734761D02*
X152336428Y-100449047D01*
X152955476Y-100449047D01*
X163496666Y-105878380D02*
X163496666Y-106592666D01*
X163449047Y-106735523D01*
X163353809Y-106830761D01*
X163210952Y-106878380D01*
X163115714Y-106878380D01*
X164020476Y-106878380D02*
X164210952Y-106878380D01*
X164306190Y-106830761D01*
X164353809Y-106783142D01*
X164449047Y-106640285D01*
X164496666Y-106449809D01*
X164496666Y-106068857D01*
X164449047Y-105973619D01*
X164401428Y-105926000D01*
X164306190Y-105878380D01*
X164115714Y-105878380D01*
X164020476Y-105926000D01*
X163972857Y-105973619D01*
X163925238Y-106068857D01*
X163925238Y-106306952D01*
X163972857Y-106402190D01*
X164020476Y-106449809D01*
X164115714Y-106497428D01*
X164306190Y-106497428D01*
X164401428Y-106449809D01*
X164449047Y-106402190D01*
X164496666Y-106306952D01*
X163020476Y-67778380D02*
X163020476Y-68492666D01*
X162972857Y-68635523D01*
X162877619Y-68730761D01*
X162734761Y-68778380D01*
X162639523Y-68778380D01*
X164020476Y-68778380D02*
X163449047Y-68778380D01*
X163734761Y-68778380D02*
X163734761Y-67778380D01*
X163639523Y-67921238D01*
X163544285Y-68016476D01*
X163449047Y-68064095D01*
X164401428Y-67873619D02*
X164449047Y-67826000D01*
X164544285Y-67778380D01*
X164782380Y-67778380D01*
X164877619Y-67826000D01*
X164925238Y-67873619D01*
X164972857Y-67968857D01*
X164972857Y-68064095D01*
X164925238Y-68206952D01*
X164353809Y-68778380D01*
X164972857Y-68778380D01*
X163020476Y-86828380D02*
X163020476Y-87542666D01*
X162972857Y-87685523D01*
X162877619Y-87780761D01*
X162734761Y-87828380D01*
X162639523Y-87828380D01*
X164020476Y-87828380D02*
X163449047Y-87828380D01*
X163734761Y-87828380D02*
X163734761Y-86828380D01*
X163639523Y-86971238D01*
X163544285Y-87066476D01*
X163449047Y-87114095D01*
X164353809Y-86828380D02*
X164972857Y-86828380D01*
X164639523Y-87209333D01*
X164782380Y-87209333D01*
X164877619Y-87256952D01*
X164925238Y-87304571D01*
X164972857Y-87399809D01*
X164972857Y-87637904D01*
X164925238Y-87733142D01*
X164877619Y-87780761D01*
X164782380Y-87828380D01*
X164496666Y-87828380D01*
X164401428Y-87780761D01*
X164353809Y-87733142D01*
X159845476Y-128992380D02*
X159845476Y-129706666D01*
X159797857Y-129849523D01*
X159702619Y-129944761D01*
X159559761Y-129992380D01*
X159464523Y-129992380D01*
X160274047Y-129087619D02*
X160321666Y-129040000D01*
X160416904Y-128992380D01*
X160655000Y-128992380D01*
X160750238Y-129040000D01*
X160797857Y-129087619D01*
X160845476Y-129182857D01*
X160845476Y-129278095D01*
X160797857Y-129420952D01*
X160226428Y-129992380D01*
X160845476Y-129992380D01*
X161464523Y-128992380D02*
X161559761Y-128992380D01*
X161655000Y-129040000D01*
X161702619Y-129087619D01*
X161750238Y-129182857D01*
X161797857Y-129373333D01*
X161797857Y-129611428D01*
X161750238Y-129801904D01*
X161702619Y-129897142D01*
X161655000Y-129944761D01*
X161559761Y-129992380D01*
X161464523Y-129992380D01*
X161369285Y-129944761D01*
X161321666Y-129897142D01*
X161274047Y-129801904D01*
X161226428Y-129611428D01*
X161226428Y-129373333D01*
X161274047Y-129182857D01*
X161321666Y-129087619D01*
X161369285Y-129040000D01*
X161464523Y-128992380D01*
M02*
