<?xml version="1.0" standalone="no"?><!DOCTYPE svg PUBLIC "-//W3C//DTD SVG 1.1//EN" "http://www.w3.org/Graphics/SVG/1.1/DTD/svg11.dtd"><svg class="icon" height="512" viewBox="0 0 1024 1024" version="1.1" xmlns="http://www.w3.org/2000/svg"><path d="M640 793.6h-256c-70.4 0-128-57.6-128-128v-160h32v160c0 54.4 41.6 96 96 96h256c54.4 0 96-41.6 96-96v-160h32v160c0 70.4-57.6 128-128 128zM496 729.6l112-96h-224l112 96z m16-224l96 96 96-96h-192z m0 0h-192l96 96 96-96zM403.2 380.8c-9.6-22.4-25.6-44.8-41.6-60.8-6.4 9.6-16 16-25.6 19.2 16 12.8 28.8 32 38.4 51.2 22.4 57.6 32 124.8 32 124.8l32-3.2c-3.2-3.2-12.8-70.4-35.2-131.2zM320 230.4c-35.2 0-64 28.8-64 64s28.8 64 64 64 64-28.8 64-64-28.8-64-64-64z m0 96c-19.2 0-32-12.8-32-32s12.8-32 32-32 32 12.8 32 32-12.8 32-32 32zM496 342.4c-6.4 0-9.6 0-16-3.2v294.4h32v-294.4c-6.4 3.2-9.6 3.2-16 3.2zM496 230.4c-35.2 0-64 28.8-64 64s28.8 64 64 64 64-28.8 64-64-28.8-64-64-64z m0 96c-19.2 0-32-12.8-32-32s12.8-32 32-32 32 12.8 32 32-12.8 32-32 32zM704 230.4c-35.2 0-64 28.8-64 64s28.8 64 64 64 64-28.8 64-64-28.8-64-64-64z m0 96c-19.2 0-32-12.8-32-32s12.8-32 32-32 32 12.8 32 32-12.8 32-32 32zM652.8 332.8c-12.8 16-22.4 32-32 51.2-22.4 60.8-28.8 128-28.8 128l32 3.2s6.4-67.2 28.8-121.6c6.4-16 16-28.8 25.6-41.6-9.6-3.2-19.2-9.6-25.6-19.2z" /></svg>