G04 #@! TF.GenerationSoftware,KiCad,Pcbnew,(5.1.4)-1*
G04 #@! TF.CreationDate,2020-01-23T23:33:44-05:00*
G04 #@! TF.ProjectId,ECVTProtoBoard,45435654-5072-46f7-946f-426f6172642e,rev?*
G04 #@! TF.SameCoordinates,Original*
G04 #@! TF.FileFunction,Copper,L1,Top*
G04 #@! TF.FilePolarity,Positive*
%FSLAX46Y46*%
G04 Gerber Fmt 4.6, Leading zero omitted, Abs format (unit mm)*
G04 Created by KiCad (PCBNEW (5.1.4)-1) date 2020-01-23 23:33:44*
%MOMM*%
%LPD*%
G04 APERTURE LIST*
%ADD10C,1.600000*%
%ADD11O,1.600000X1.600000*%
%ADD12O,1.700000X1.700000*%
%ADD13R,1.700000X1.700000*%
%ADD14O,2.000000X1.905000*%
%ADD15R,2.000000X1.905000*%
%ADD16R,1.350000X1.350000*%
%ADD17O,1.350000X1.350000*%
%ADD18R,2.300000X2.300000*%
%ADD19O,2.300000X2.300000*%
%ADD20C,0.381000*%
%ADD21C,0.250000*%
%ADD22C,0.762000*%
G04 APERTURE END LIST*
D10*
X116840000Y-90170000D03*
D11*
X109220000Y-90170000D03*
D12*
X106426000Y-141986000D03*
X106426000Y-139446000D03*
X106426000Y-136906000D03*
X106426000Y-134366000D03*
X106426000Y-131826000D03*
X106426000Y-129286000D03*
X106426000Y-126746000D03*
D13*
X106426000Y-124206000D03*
D12*
X102955999Y-103546001D03*
X105495999Y-103546001D03*
X108035999Y-103546001D03*
X110575999Y-103546001D03*
X113115999Y-103546001D03*
X115655999Y-103546001D03*
X118195999Y-103546001D03*
X120735999Y-103546001D03*
X123275999Y-103546001D03*
X125815999Y-103546001D03*
X128355999Y-103546001D03*
X130895999Y-103546001D03*
X133435999Y-103546001D03*
D13*
X135975999Y-103546001D03*
D11*
X134620000Y-118110000D03*
D10*
X134620000Y-110490000D03*
X128270000Y-118110000D03*
D11*
X128270000Y-110490000D03*
D10*
X140970000Y-110490000D03*
D11*
X140970000Y-118110000D03*
X147574000Y-110490000D03*
D10*
X147574000Y-118110000D03*
D13*
X134366000Y-124206000D03*
X134366000Y-141986000D03*
X101346000Y-124206000D03*
D12*
X101346000Y-126746000D03*
X101346000Y-129286000D03*
X101346000Y-131826000D03*
X101346000Y-134366000D03*
X101346000Y-136906000D03*
X101346000Y-139446000D03*
X101346000Y-141986000D03*
X111506000Y-124206000D03*
D13*
X108966000Y-124206000D03*
D14*
X163830000Y-138430000D03*
X163830000Y-140970000D03*
D15*
X163830000Y-143510000D03*
D13*
X135975999Y-71766001D03*
D12*
X133435999Y-71766001D03*
X130895999Y-71766001D03*
X128355999Y-71766001D03*
X125815999Y-71766001D03*
X123275999Y-71766001D03*
X120735999Y-71766001D03*
X118195999Y-71766001D03*
X115655999Y-71766001D03*
X113115999Y-71766001D03*
X110575999Y-71766001D03*
X108035999Y-71766001D03*
X105495999Y-71766001D03*
X102955999Y-71766001D03*
X102955999Y-78766001D03*
X105495999Y-78766001D03*
X108035999Y-78766001D03*
X110575999Y-78766001D03*
X113115999Y-78766001D03*
X115655999Y-78766001D03*
X118195999Y-78766001D03*
X120735999Y-78766001D03*
X123275999Y-78766001D03*
X125815999Y-78766001D03*
X128355999Y-78766001D03*
X130895999Y-78766001D03*
X133435999Y-78766001D03*
D13*
X135975999Y-78766001D03*
X135975999Y-96546001D03*
D12*
X133435999Y-96546001D03*
X130895999Y-96546001D03*
X128355999Y-96546001D03*
X125815999Y-96546001D03*
X123275999Y-96546001D03*
X120735999Y-96546001D03*
X118195999Y-96546001D03*
X115655999Y-96546001D03*
X113115999Y-96546001D03*
X110575999Y-96546001D03*
X108035999Y-96546001D03*
X105495999Y-96546001D03*
X102955999Y-96546001D03*
D16*
X90170000Y-139540000D03*
D17*
X90170000Y-137540000D03*
X90170000Y-135540000D03*
X90170000Y-133540000D03*
X90170000Y-131540000D03*
X90170000Y-129540000D03*
X90170000Y-127540000D03*
X90170000Y-125540000D03*
X90170000Y-76170000D03*
X90170000Y-78170000D03*
X90170000Y-80170000D03*
X90170000Y-82170000D03*
X90170000Y-84170000D03*
X90170000Y-86170000D03*
X90170000Y-88170000D03*
D16*
X90170000Y-90170000D03*
D12*
X148336000Y-74930000D03*
D13*
X148336000Y-72390000D03*
X142748000Y-72390000D03*
D12*
X142748000Y-74930000D03*
X153670000Y-74930000D03*
D13*
X153670000Y-72390000D03*
D11*
X109220000Y-86360000D03*
D10*
X116840000Y-86360000D03*
X104140000Y-90170000D03*
D11*
X96520000Y-90170000D03*
X96520000Y-86360000D03*
D10*
X104140000Y-86360000D03*
D13*
X146050000Y-97790000D03*
D12*
X148590000Y-97790000D03*
X146050000Y-100330000D03*
X148590000Y-100330000D03*
X146050000Y-102870000D03*
X148590000Y-102870000D03*
D18*
X163830000Y-109220000D03*
D19*
X163830000Y-114300000D03*
X163830000Y-119380000D03*
D18*
X163830000Y-71120000D03*
D19*
X163830000Y-76200000D03*
X163830000Y-81280000D03*
X163830000Y-100330000D03*
X163830000Y-95250000D03*
D18*
X163830000Y-90170000D03*
X163830000Y-127000000D03*
D19*
X163830000Y-132080000D03*
D20*
X101346000Y-126746000D02*
X106426000Y-126746000D01*
X128355999Y-78766001D02*
X128355999Y-71766001D01*
X100076000Y-126746000D02*
X101346000Y-126746000D01*
X95885000Y-88265000D02*
X94615000Y-89535000D01*
X111125000Y-88265000D02*
X95885000Y-88265000D01*
X115570000Y-92710000D02*
X111125000Y-88265000D01*
X119380000Y-92710000D02*
X115570000Y-92710000D01*
X104140000Y-107315000D02*
X104140000Y-119380000D01*
X101600000Y-121920000D02*
X100330000Y-121920000D01*
X128355999Y-83734001D02*
X119380000Y-92710000D01*
X99060000Y-123190000D02*
X99060000Y-125730000D01*
X99060000Y-125730000D02*
X100076000Y-126746000D01*
X94615000Y-89535000D02*
X94615000Y-90805000D01*
X100965000Y-104140000D02*
X104140000Y-107315000D01*
X128355999Y-78766001D02*
X128355999Y-83734001D01*
X94615000Y-90805000D02*
X100965000Y-97155000D01*
X100965000Y-97155000D02*
X100965000Y-104140000D01*
X104140000Y-119380000D02*
X101600000Y-121920000D01*
X100330000Y-121920000D02*
X99060000Y-123190000D01*
X101346000Y-129286000D02*
X106426000Y-129286000D01*
X125815999Y-72968082D02*
X125815999Y-78766001D01*
X125815999Y-71766001D02*
X125815999Y-72968082D01*
X97790000Y-121920000D02*
X97790000Y-127635000D01*
X111760000Y-85090000D02*
X110490000Y-83820000D01*
X116205000Y-91440000D02*
X111760000Y-86995000D01*
X118745000Y-91440000D02*
X116205000Y-91440000D01*
X97790000Y-127635000D02*
X99441000Y-129286000D01*
X102870000Y-118745000D02*
X100965000Y-120650000D01*
X125815999Y-84369001D02*
X118745000Y-91440000D01*
X96520000Y-83820000D02*
X93345000Y-86995000D01*
X125815999Y-78766001D02*
X125815999Y-84369001D01*
X110490000Y-83820000D02*
X96520000Y-83820000D01*
X111760000Y-86995000D02*
X111760000Y-85090000D01*
X93345000Y-86995000D02*
X93345000Y-91440000D01*
X93345000Y-91440000D02*
X99695000Y-97790000D01*
X99441000Y-129286000D02*
X101346000Y-129286000D01*
X99695000Y-97790000D02*
X99695000Y-104775000D01*
X99695000Y-104775000D02*
X102870000Y-107950000D01*
X100965000Y-120650000D02*
X99060000Y-120650000D01*
X102870000Y-107950000D02*
X102870000Y-118745000D01*
X99060000Y-120650000D02*
X97790000Y-121920000D01*
X120735999Y-72968082D02*
X120735999Y-78766001D01*
X120735999Y-71766001D02*
X120735999Y-72968082D01*
X120735999Y-82464001D02*
X116840000Y-86360000D01*
X120735999Y-78766001D02*
X120735999Y-82464001D01*
X116840000Y-86360000D02*
X116840000Y-90170000D01*
X120735999Y-71766001D02*
X123287000Y-69215000D01*
X123287000Y-69215000D02*
X137160000Y-69215000D01*
X137160000Y-69215000D02*
X140335000Y-72390000D01*
X140335000Y-72390000D02*
X140335000Y-75565000D01*
X146050000Y-81280000D02*
X163830000Y-81280000D01*
X140335000Y-75565000D02*
X146050000Y-81280000D01*
X92075000Y-88265000D02*
X92075000Y-86360000D01*
X92075000Y-88265000D02*
X90170000Y-90170000D01*
X92075000Y-86360000D02*
X95885000Y-82550000D01*
X113030000Y-82550000D02*
X116840000Y-86360000D01*
X95885000Y-82550000D02*
X113030000Y-82550000D01*
D21*
X108035999Y-96546001D02*
X108035999Y-97748082D01*
D20*
X101346000Y-136906000D02*
X106426000Y-136906000D01*
X108035999Y-96546001D02*
X108035999Y-103546001D01*
X108035999Y-104748082D02*
X114935000Y-111647083D01*
X108035999Y-103546001D02*
X108035999Y-104748082D01*
X114935000Y-128397000D02*
X106426000Y-136906000D01*
X114935000Y-111647083D02*
X114935000Y-128397000D01*
D22*
X163877500Y-138430000D02*
X163830000Y-138430000D01*
X146050000Y-97790000D02*
X146050000Y-96178000D01*
X146050000Y-96178000D02*
X146978000Y-95250000D01*
X153035000Y-95250000D02*
X167640000Y-109855000D01*
X167640000Y-109855000D02*
X167640000Y-134667500D01*
X146978000Y-95250000D02*
X153035000Y-95250000D01*
X167640000Y-134667500D02*
X163877500Y-138430000D01*
D21*
X120735999Y-97748082D02*
X120735999Y-96546001D01*
X120724998Y-97759083D02*
X120735999Y-97748082D01*
X120694998Y-97759083D02*
X120724998Y-97759083D01*
D20*
X163830000Y-132080000D02*
X163830000Y-130810000D01*
X163830000Y-130810000D02*
X146050000Y-113030000D01*
X130810000Y-113030000D02*
X128270000Y-110490000D01*
X146050000Y-113030000D02*
X130810000Y-113030000D01*
X162599000Y-127000000D02*
X152400000Y-116801000D01*
X163830000Y-127000000D02*
X162599000Y-127000000D01*
X152400000Y-115316000D02*
X147574000Y-110490000D01*
X152400000Y-116801000D02*
X152400000Y-115316000D01*
D22*
X148336000Y-74930000D02*
X148336000Y-72390000D01*
X163830000Y-70485000D02*
X163830000Y-71120000D01*
X163195000Y-69850000D02*
X163830000Y-70485000D01*
X149264000Y-69850000D02*
X163195000Y-69850000D01*
X148336000Y-72390000D02*
X148336000Y-70778000D01*
X148336000Y-70778000D02*
X149264000Y-69850000D01*
X144145000Y-100330000D02*
X146050000Y-100330000D01*
X143510000Y-99695000D02*
X144145000Y-100330000D01*
X143510000Y-95885000D02*
X143510000Y-99695000D01*
X146050000Y-93345000D02*
X143510000Y-95885000D01*
X153670000Y-93345000D02*
X146050000Y-93345000D01*
X163830000Y-91782000D02*
X166370000Y-94322000D01*
X163830000Y-90170000D02*
X163830000Y-91782000D01*
X166370000Y-94322000D02*
X166370000Y-101600000D01*
X166370000Y-101600000D02*
X165100000Y-102870000D01*
X165100000Y-102870000D02*
X163195000Y-102870000D01*
X163195000Y-102870000D02*
X153670000Y-93345000D01*
X142848999Y-96546001D02*
X135975999Y-96546001D01*
X143510000Y-95885000D02*
X142848999Y-96546001D01*
X135975999Y-96546001D02*
X135975999Y-103546001D01*
X135975999Y-94934001D02*
X135021998Y-93980000D01*
X135975999Y-96546001D02*
X135975999Y-94934001D01*
X113030000Y-93980000D02*
X109220000Y-90170000D01*
X135021998Y-93980000D02*
X113030000Y-93980000D01*
X109220000Y-90170000D02*
X106045000Y-93345000D01*
X106045000Y-93345000D02*
X99695000Y-93345000D01*
X99695000Y-93345000D02*
X96520000Y-90170000D01*
X163830000Y-88558000D02*
X163830000Y-90170000D01*
X167640000Y-84748000D02*
X163830000Y-88558000D01*
X167640000Y-73025000D02*
X167640000Y-84748000D01*
X163830000Y-71120000D02*
X165735000Y-71120000D01*
X165735000Y-71120000D02*
X167640000Y-73025000D01*
M02*
