G04 #@! TF.GenerationSoftware,KiCad,Pcbnew,(5.1.4)-1*
G04 #@! TF.CreationDate,2020-01-22T01:12:57-05:00*
G04 #@! TF.ProjectId,MainDataAquisitionBoard,4d61696e-4461-4746-9141-717569736974,rev?*
G04 #@! TF.SameCoordinates,Original*
G04 #@! TF.FileFunction,Copper,L1,Top*
G04 #@! TF.FilePolarity,Positive*
%FSLAX46Y46*%
G04 Gerber Fmt 4.6, Leading zero omitted, Abs format (unit mm)*
G04 Created by KiCad (PCBNEW (5.1.4)-1) date 2020-01-22 01:12:57*
%MOMM*%
%LPD*%
G04 APERTURE LIST*
%ADD10O,1.700000X1.700000*%
%ADD11R,1.700000X1.700000*%
%ADD12C,1.600000*%
%ADD13O,1.600000X1.600000*%
%ADD14O,1.350000X1.350000*%
%ADD15R,1.350000X1.350000*%
%ADD16C,0.250000*%
G04 APERTURE END LIST*
D10*
X142240000Y-69850000D03*
X167640000Y-69850000D03*
X172720000Y-69850000D03*
X147320000Y-69850000D03*
X177800000Y-69850000D03*
X162560000Y-69850000D03*
D11*
X132080000Y-69850000D03*
D10*
X137160000Y-69850000D03*
X152400000Y-69850000D03*
X157480000Y-69850000D03*
D12*
X180340000Y-111760000D03*
D13*
X180340000Y-104140000D03*
D10*
X90170000Y-82550000D03*
X92710000Y-82550000D03*
X95250000Y-82550000D03*
X97790000Y-82550000D03*
X100330000Y-82550000D03*
X102870000Y-82550000D03*
X105410000Y-82550000D03*
X107950000Y-82550000D03*
X110490000Y-82550000D03*
X113030000Y-82550000D03*
X115570000Y-82550000D03*
X118110000Y-82550000D03*
X120650000Y-82550000D03*
X123190000Y-82550000D03*
X125730000Y-82550000D03*
X128270000Y-82550000D03*
X130810000Y-82550000D03*
X133350000Y-82550000D03*
X135890000Y-82550000D03*
X138430000Y-82550000D03*
X140970000Y-82550000D03*
X143510000Y-82550000D03*
X146050000Y-82550000D03*
D11*
X148590000Y-82550000D03*
X148590000Y-87630000D03*
D10*
X146050000Y-87630000D03*
X143510000Y-87630000D03*
X140970000Y-87630000D03*
X138430000Y-87630000D03*
X135890000Y-87630000D03*
X133350000Y-87630000D03*
X130810000Y-87630000D03*
X128270000Y-87630000D03*
X125730000Y-87630000D03*
X123190000Y-87630000D03*
X120650000Y-87630000D03*
X118110000Y-87630000D03*
X115570000Y-87630000D03*
X113030000Y-87630000D03*
X110490000Y-87630000D03*
X107950000Y-87630000D03*
X105410000Y-87630000D03*
X102870000Y-87630000D03*
X100330000Y-87630000D03*
X97790000Y-87630000D03*
X95250000Y-87630000D03*
X92710000Y-87630000D03*
X90170000Y-87630000D03*
D11*
X148590000Y-102870000D03*
D10*
X146050000Y-102870000D03*
X143510000Y-102870000D03*
X140970000Y-102870000D03*
X138430000Y-102870000D03*
X135890000Y-102870000D03*
X133350000Y-102870000D03*
X130810000Y-102870000D03*
X128270000Y-102870000D03*
X125730000Y-102870000D03*
X123190000Y-102870000D03*
X120650000Y-102870000D03*
X118110000Y-102870000D03*
X115570000Y-102870000D03*
X113030000Y-102870000D03*
X110490000Y-102870000D03*
X107950000Y-102870000D03*
X105410000Y-102870000D03*
X102870000Y-102870000D03*
X100330000Y-102870000D03*
X97790000Y-102870000D03*
X95250000Y-102870000D03*
X92710000Y-102870000D03*
X90170000Y-102870000D03*
X90170000Y-107950000D03*
X92710000Y-107950000D03*
X95250000Y-107950000D03*
X97790000Y-107950000D03*
X100330000Y-107950000D03*
X102870000Y-107950000D03*
X105410000Y-107950000D03*
X107950000Y-107950000D03*
X110490000Y-107950000D03*
X113030000Y-107950000D03*
X115570000Y-107950000D03*
X118110000Y-107950000D03*
X120650000Y-107950000D03*
X123190000Y-107950000D03*
X125730000Y-107950000D03*
X128270000Y-107950000D03*
X130810000Y-107950000D03*
X133350000Y-107950000D03*
X135890000Y-107950000D03*
X138430000Y-107950000D03*
X140970000Y-107950000D03*
X143510000Y-107950000D03*
X146050000Y-107950000D03*
D11*
X148590000Y-107950000D03*
D14*
X66040000Y-81250000D03*
X66040000Y-83250000D03*
X66040000Y-85250000D03*
X66040000Y-87250000D03*
X66040000Y-89250000D03*
X66040000Y-91250000D03*
X66040000Y-93250000D03*
D15*
X66040000Y-95250000D03*
X66040000Y-130810000D03*
D14*
X66040000Y-128810000D03*
X66040000Y-126810000D03*
X66040000Y-124810000D03*
X66040000Y-122810000D03*
X66040000Y-120810000D03*
X66040000Y-118810000D03*
X66040000Y-116810000D03*
D10*
X168910000Y-130810000D03*
X168910000Y-128270000D03*
X168910000Y-125730000D03*
D11*
X168910000Y-123190000D03*
X163830000Y-123190000D03*
D10*
X163830000Y-125730000D03*
X163830000Y-128270000D03*
X163830000Y-130810000D03*
D11*
X172720000Y-83820000D03*
D10*
X175260000Y-83820000D03*
X177800000Y-83820000D03*
X180340000Y-83820000D03*
X158750000Y-130810000D03*
X158750000Y-128270000D03*
X158750000Y-125730000D03*
D11*
X158750000Y-123190000D03*
D13*
X175260000Y-91440000D03*
D12*
X175260000Y-99060000D03*
D13*
X175260000Y-104140000D03*
D12*
X175260000Y-111760000D03*
X180340000Y-99060000D03*
D13*
X180340000Y-91440000D03*
D10*
X91440000Y-69850000D03*
X116840000Y-69850000D03*
X121920000Y-69850000D03*
X96520000Y-69850000D03*
X127000000Y-69850000D03*
X111760000Y-69850000D03*
D11*
X81280000Y-69850000D03*
D10*
X86360000Y-69850000D03*
X101600000Y-69850000D03*
X106680000Y-69850000D03*
X104140000Y-54610000D03*
X99060000Y-54610000D03*
X83820000Y-54610000D03*
D11*
X78740000Y-54610000D03*
D10*
X109220000Y-54610000D03*
X124460000Y-54610000D03*
X93980000Y-54610000D03*
X119380000Y-54610000D03*
X114300000Y-54610000D03*
X88900000Y-54610000D03*
X154940000Y-54610000D03*
X149860000Y-54610000D03*
X134620000Y-54610000D03*
D11*
X129540000Y-54610000D03*
D10*
X160020000Y-54610000D03*
X175260000Y-54610000D03*
X144780000Y-54610000D03*
X170180000Y-54610000D03*
X165100000Y-54610000D03*
X139700000Y-54610000D03*
D11*
X99060000Y-130810000D03*
D10*
X99060000Y-128270000D03*
X99060000Y-125730000D03*
X99060000Y-123190000D03*
X99060000Y-120650000D03*
X99060000Y-118110000D03*
X99060000Y-115570000D03*
X99060000Y-113030000D03*
D11*
X135890000Y-118110000D03*
D10*
X133350000Y-118110000D03*
X130810000Y-118110000D03*
X128270000Y-118110000D03*
X125730000Y-118110000D03*
X123190000Y-118110000D03*
X120650000Y-118110000D03*
X118110000Y-118110000D03*
X115570000Y-118110000D03*
X113030000Y-118110000D03*
X113030000Y-130810000D03*
X115570000Y-130810000D03*
X118110000Y-130810000D03*
X120650000Y-130810000D03*
X123190000Y-130810000D03*
X125730000Y-130810000D03*
X128270000Y-130810000D03*
X130810000Y-130810000D03*
X133350000Y-130810000D03*
D11*
X135890000Y-130810000D03*
X157480000Y-102870000D03*
D10*
X160020000Y-102870000D03*
X157480000Y-105410000D03*
X160020000Y-105410000D03*
X157480000Y-107950000D03*
X160020000Y-107950000D03*
D11*
X176530000Y-127000000D03*
D10*
X176530000Y-121920000D03*
D16*
X90170000Y-82550000D02*
X90170000Y-87630000D01*
X92710000Y-82550000D02*
X92710000Y-87630000D01*
X143510000Y-102870000D02*
X143510000Y-107950000D01*
X127000000Y-69850000D02*
X121920000Y-69850000D01*
X121920000Y-69850000D02*
X119380000Y-72390000D01*
X114300000Y-72390000D02*
X111760000Y-69850000D01*
X119380000Y-72390000D02*
X114300000Y-72390000D01*
X154940000Y-127000000D02*
X158750000Y-130810000D01*
X152400000Y-127000000D02*
X154940000Y-127000000D01*
X158750000Y-130810000D02*
X158750000Y-123190000D01*
X99060000Y-130810000D02*
X100330000Y-130810000D01*
X100330000Y-130810000D02*
X104140000Y-127000000D01*
X104140000Y-127000000D02*
X113030000Y-127000000D01*
X113030000Y-127000000D02*
X152400000Y-127000000D01*
X135890000Y-115570000D02*
X143510000Y-107950000D01*
X135890000Y-118110000D02*
X135890000Y-115570000D01*
X127000000Y-69850000D02*
X129540000Y-72390000D01*
X129540000Y-72390000D02*
X134620000Y-72390000D01*
X134620000Y-72390000D02*
X137160000Y-69850000D01*
X137160000Y-69850000D02*
X142240000Y-69850000D01*
X152400000Y-69850000D02*
X157480000Y-69850000D01*
X157480000Y-69850000D02*
X160020000Y-72390000D01*
X165100000Y-72390000D02*
X167640000Y-69850000D01*
X160020000Y-72390000D02*
X165100000Y-72390000D01*
X135890000Y-82550000D02*
X135890000Y-87630000D01*
X128270000Y-82550000D02*
X128270000Y-87630000D01*
X125730000Y-82550000D02*
X125730000Y-87630000D01*
X118110000Y-82550000D02*
X118110000Y-87630000D01*
X115570000Y-82550000D02*
X115570000Y-87630000D01*
X146050000Y-102870000D02*
X146050000Y-107950000D01*
X133350000Y-102870000D02*
X133350000Y-107950000D01*
X90170000Y-102870000D02*
X90170000Y-107950000D01*
X90170000Y-99030000D02*
X90170000Y-102870000D01*
X72390000Y-81250000D02*
X90170000Y-99030000D01*
X72390000Y-81250000D02*
X66040000Y-81250000D01*
X95250000Y-82550000D02*
X95250000Y-87630000D01*
X97790000Y-82550000D02*
X97790000Y-87630000D01*
X100330000Y-82550000D02*
X100330000Y-87630000D01*
X102870000Y-82550000D02*
X102870000Y-87630000D01*
X105410000Y-82550000D02*
X105410000Y-87630000D01*
X105410000Y-87630000D02*
X105410000Y-83350998D01*
X107950000Y-82550000D02*
X107950000Y-87630000D01*
X110490000Y-82550000D02*
X110490000Y-87630000D01*
X113030000Y-82550000D02*
X113030000Y-87630000D01*
X115570000Y-102870000D02*
X115570000Y-107950000D01*
X113030000Y-107950000D02*
X113030000Y-102870000D01*
X110490000Y-102870000D02*
X110490000Y-107950000D01*
X107950000Y-107950000D02*
X107950000Y-102870000D01*
X105410000Y-102870000D02*
X105410000Y-107950000D01*
X102870000Y-102870000D02*
X102870000Y-107950000D01*
X100330000Y-102870000D02*
X100330000Y-107950000D01*
X97790000Y-102870000D02*
X97790000Y-107950000D01*
X180340000Y-104140000D02*
X180340000Y-99060000D01*
X95250000Y-110490000D02*
X97790000Y-107950000D01*
X180340000Y-104140000D02*
X181610000Y-105410000D01*
X181610000Y-105410000D02*
X181610000Y-129540000D01*
X181610000Y-129540000D02*
X179070000Y-132080000D01*
X96520000Y-132080000D02*
X95250000Y-130810000D01*
X179070000Y-132080000D02*
X96520000Y-132080000D01*
X95250000Y-130810000D02*
X95250000Y-110490000D01*
X95250000Y-102870000D02*
X95250000Y-107950000D01*
X175260000Y-104140000D02*
X175260000Y-99060000D01*
X92710000Y-102870000D02*
X92710000Y-107950000D01*
X123190000Y-102870000D02*
X123190000Y-107950000D01*
X133819002Y-96520000D02*
X129540000Y-96520000D01*
X129540000Y-96520000D02*
X123190000Y-102870000D01*
X139605001Y-90734001D02*
X138664501Y-91674501D01*
X139605001Y-81374999D02*
X139605001Y-90734001D01*
X138664501Y-91674501D02*
X133819002Y-96520000D01*
X147320000Y-73660000D02*
X147320000Y-69850000D01*
X147320000Y-73660000D02*
X139605001Y-81374999D01*
X135890000Y-102870000D02*
X135890000Y-107950000D01*
X157480000Y-101770000D02*
X157480000Y-102870000D01*
X158750000Y-100500000D02*
X157480000Y-101770000D01*
X161290000Y-100500000D02*
X158750000Y-100500000D01*
X162475000Y-101685000D02*
X161290000Y-100500000D01*
X162475000Y-114385000D02*
X162475000Y-101685000D01*
X163830000Y-115740000D02*
X163830000Y-123190000D01*
X162475000Y-114385000D02*
X163830000Y-115740000D01*
X163830000Y-123190000D02*
X163830000Y-130810000D01*
X130810000Y-82550000D02*
X130810000Y-87630000D01*
X133350000Y-82550000D02*
X133350000Y-87630000D01*
X138430000Y-82550000D02*
X138430000Y-87630000D01*
X140970000Y-82550000D02*
X140970000Y-87630000D01*
X140970000Y-102870000D02*
X140970000Y-107950000D01*
X138430000Y-102870000D02*
X138430000Y-107950000D01*
X130810000Y-102870000D02*
X130810000Y-107950000D01*
X130810000Y-107950000D02*
X127000000Y-111760000D01*
X127000000Y-111760000D02*
X111760000Y-111760000D01*
X111760000Y-111760000D02*
X104140000Y-111760000D01*
X104140000Y-111760000D02*
X102870000Y-113030000D01*
X102870000Y-121920000D02*
X99060000Y-125730000D01*
X102870000Y-113030000D02*
X102870000Y-121920000D01*
X128270000Y-102870000D02*
X128270000Y-107950000D01*
X128270000Y-107950000D02*
X125730000Y-110490000D01*
X125730000Y-110490000D02*
X110490000Y-110490000D01*
X110490000Y-110490000D02*
X102870000Y-110490000D01*
X102870000Y-110490000D02*
X101600000Y-111760000D01*
X101600000Y-120650000D02*
X99060000Y-123190000D01*
X101600000Y-111760000D02*
X101600000Y-120650000D01*
X125730000Y-107950000D02*
X125730000Y-102870000D01*
X130810000Y-97790000D02*
X125730000Y-102870000D01*
X142240000Y-81280000D02*
X142240000Y-90639002D01*
X142240000Y-90639002D02*
X135089002Y-97790000D01*
X135089002Y-97790000D02*
X130810000Y-97790000D01*
X148590000Y-58420000D02*
X148590000Y-74930000D01*
X148590000Y-74930000D02*
X142240000Y-81280000D01*
X144780000Y-54610000D02*
X148590000Y-58420000D01*
X120650000Y-102870000D02*
X120650000Y-107950000D01*
X174128630Y-91440000D02*
X175260000Y-91440000D01*
X152400000Y-72390000D02*
X155078630Y-72390000D01*
X151130000Y-71120000D02*
X152400000Y-72390000D01*
X151130000Y-57150000D02*
X151130000Y-71120000D01*
X106680000Y-54610000D02*
X107950000Y-53340000D01*
X106680000Y-69850000D02*
X106680000Y-54610000D01*
X107950000Y-53340000D02*
X150329002Y-53340000D01*
X150329002Y-53340000D02*
X151364501Y-54375499D01*
X151364501Y-54375499D02*
X151364501Y-56915499D01*
X155078630Y-72390000D02*
X174128630Y-91440000D01*
X151364501Y-56915499D02*
X151130000Y-57150000D01*
X172720000Y-83820000D02*
X172720000Y-71120000D01*
X172720000Y-71120000D02*
X172720000Y-69850000D01*
X170180000Y-58420000D02*
X170180000Y-54610000D01*
X181610000Y-69850000D02*
X170180000Y-58420000D01*
X181610000Y-71120000D02*
X181610000Y-69850000D01*
X177800000Y-83820000D02*
X177800000Y-74930000D01*
X177800000Y-74930000D02*
X181610000Y-71120000D01*
X175260000Y-72390000D02*
X177800000Y-69850000D01*
X175260000Y-83820000D02*
X175260000Y-72390000D01*
X175260000Y-59690000D02*
X175260000Y-54610000D01*
X182880000Y-67310000D02*
X175260000Y-59690000D01*
X182880000Y-72390000D02*
X182880000Y-67310000D01*
X180340000Y-83820000D02*
X180340000Y-74930000D01*
X180340000Y-74930000D02*
X182880000Y-72390000D01*
X182060009Y-71939991D02*
X182060009Y-67760009D01*
X179164999Y-74835001D02*
X182060009Y-71939991D01*
X180340000Y-91440000D02*
X179164999Y-90264999D01*
X179164999Y-90264999D02*
X179164999Y-74835001D01*
X182060009Y-67760009D02*
X172720000Y-58420000D01*
X172720000Y-58420000D02*
X172720000Y-53340000D01*
X172720000Y-53340000D02*
X171450000Y-52070000D01*
X106680000Y-52070000D02*
X104140000Y-54610000D01*
X171450000Y-52070000D02*
X106680000Y-52070000D01*
X118110000Y-107950000D02*
X118110000Y-102870000D01*
X143510000Y-82550000D02*
X143510000Y-87630000D01*
X143510000Y-90970998D02*
X143510000Y-87630000D01*
X132080000Y-102400998D02*
X143510000Y-90970998D01*
X130810000Y-118110000D02*
X132080000Y-116840000D01*
X132080000Y-116840000D02*
X132080000Y-102400998D01*
X146050000Y-82550000D02*
X146050000Y-87630000D01*
X134525001Y-116934999D02*
X134525001Y-111854999D01*
X133350000Y-118110000D02*
X134525001Y-116934999D01*
X137254999Y-109125001D02*
X137254999Y-100235001D01*
X134525001Y-111854999D02*
X137254999Y-109125001D01*
X146050000Y-91440000D02*
X146050000Y-87630000D01*
X137254999Y-100235001D02*
X146050000Y-91440000D01*
X154940000Y-102870000D02*
X157480000Y-105410000D01*
X148590000Y-102870000D02*
X154940000Y-102870000D01*
X148590000Y-102870000D02*
X148590000Y-107950000D01*
X148590000Y-82550000D02*
X148590000Y-87630000D01*
X171450000Y-107950000D02*
X175260000Y-111760000D01*
X171450000Y-92710000D02*
X171450000Y-107950000D01*
X148590000Y-82550000D02*
X161290000Y-82550000D01*
X161290000Y-82550000D02*
X171450000Y-92710000D01*
X175260000Y-111760000D02*
X180340000Y-111760000D01*
X175260000Y-116840000D02*
X168910000Y-123190000D01*
X175260000Y-111760000D02*
X175260000Y-116840000D01*
X175260000Y-123190000D02*
X176530000Y-121920000D01*
X168910000Y-123190000D02*
X175260000Y-123190000D01*
X168910000Y-123190000D02*
X168910000Y-130810000D01*
X148590000Y-88730000D02*
X147320000Y-90000000D01*
X138430000Y-125730000D02*
X101600000Y-125730000D01*
X148590000Y-87630000D02*
X148590000Y-88730000D01*
X147320000Y-90000000D02*
X147320000Y-99060000D01*
X147320000Y-99060000D02*
X144685001Y-101694999D01*
X144685001Y-101694999D02*
X144685001Y-119474999D01*
X144685001Y-119474999D02*
X138430000Y-125730000D01*
X113030000Y-118110000D02*
X109220000Y-118110000D01*
X109220000Y-118110000D02*
X101600000Y-125730000D01*
X101600000Y-125730000D02*
X99060000Y-128270000D01*
X148590000Y-81450000D02*
X148590000Y-82550000D01*
X149860000Y-80010000D02*
X149945000Y-80095000D01*
X149860000Y-54610000D02*
X149860000Y-80010000D01*
X149945000Y-80095000D02*
X148590000Y-81450000D01*
X120650000Y-82550000D02*
X120650000Y-87630000D01*
X123190000Y-82550000D02*
X123190000Y-87630000D01*
M02*
