G04 #@! TF.GenerationSoftware,KiCad,Pcbnew,(5.1.4)-1*
G04 #@! TF.CreationDate,2020-01-23T23:34:45-05:00*
G04 #@! TF.ProjectId,MainDataAquisitionBoard,4d61696e-4461-4746-9141-717569736974,rev?*
G04 #@! TF.SameCoordinates,Original*
G04 #@! TF.FileFunction,Copper,L2,Bot*
G04 #@! TF.FilePolarity,Positive*
%FSLAX46Y46*%
G04 Gerber Fmt 4.6, Leading zero omitted, Abs format (unit mm)*
G04 Created by KiCad (PCBNEW (5.1.4)-1) date 2020-01-23 23:34:45*
%MOMM*%
%LPD*%
G04 APERTURE LIST*
%ADD10R,1.700000X1.700000*%
%ADD11O,1.700000X1.700000*%
%ADD12R,1.350000X1.350000*%
%ADD13O,1.350000X1.350000*%
%ADD14C,1.600000*%
%ADD15O,1.600000X1.600000*%
%ADD16O,2.300000X2.300000*%
%ADD17R,2.300000X2.300000*%
%ADD18C,0.381000*%
%ADD19C,0.762000*%
G04 APERTURE END LIST*
D10*
X148590000Y-102870000D03*
D11*
X146050000Y-102870000D03*
X143510000Y-102870000D03*
X140970000Y-102870000D03*
X138430000Y-102870000D03*
X135890000Y-102870000D03*
X133350000Y-102870000D03*
X130810000Y-102870000D03*
X128270000Y-102870000D03*
X125730000Y-102870000D03*
X123190000Y-102870000D03*
X120650000Y-102870000D03*
X118110000Y-102870000D03*
X115570000Y-102870000D03*
X113030000Y-102870000D03*
X110490000Y-102870000D03*
X107950000Y-102870000D03*
X105410000Y-102870000D03*
X102870000Y-102870000D03*
X100330000Y-102870000D03*
X97790000Y-102870000D03*
X95250000Y-102870000D03*
X92710000Y-102870000D03*
X90170000Y-102870000D03*
D10*
X135890000Y-118110000D03*
D11*
X133350000Y-118110000D03*
X130810000Y-118110000D03*
X128270000Y-118110000D03*
X125730000Y-118110000D03*
X123190000Y-118110000D03*
X120650000Y-118110000D03*
X118110000Y-118110000D03*
X115570000Y-118110000D03*
X113030000Y-118110000D03*
D12*
X66675000Y-130810000D03*
D13*
X66675000Y-128810000D03*
X66675000Y-126810000D03*
X66675000Y-124810000D03*
X66675000Y-122810000D03*
X66675000Y-120810000D03*
X66675000Y-118810000D03*
X66675000Y-116810000D03*
D14*
X180340000Y-111760000D03*
D15*
X180340000Y-104140000D03*
D11*
X90170000Y-82550000D03*
X92710000Y-82550000D03*
X95250000Y-82550000D03*
X97790000Y-82550000D03*
X100330000Y-82550000D03*
X102870000Y-82550000D03*
X105410000Y-82550000D03*
X107950000Y-82550000D03*
X110490000Y-82550000D03*
X113030000Y-82550000D03*
X115570000Y-82550000D03*
X118110000Y-82550000D03*
X120650000Y-82550000D03*
X123190000Y-82550000D03*
X125730000Y-82550000D03*
X128270000Y-82550000D03*
X130810000Y-82550000D03*
X133350000Y-82550000D03*
X135890000Y-82550000D03*
X138430000Y-82550000D03*
X140970000Y-82550000D03*
X143510000Y-82550000D03*
X146050000Y-82550000D03*
D10*
X148590000Y-82550000D03*
X148590000Y-87630000D03*
D11*
X146050000Y-87630000D03*
X143510000Y-87630000D03*
X140970000Y-87630000D03*
X138430000Y-87630000D03*
X135890000Y-87630000D03*
X133350000Y-87630000D03*
X130810000Y-87630000D03*
X128270000Y-87630000D03*
X125730000Y-87630000D03*
X123190000Y-87630000D03*
X120650000Y-87630000D03*
X118110000Y-87630000D03*
X115570000Y-87630000D03*
X113030000Y-87630000D03*
X110490000Y-87630000D03*
X107950000Y-87630000D03*
X105410000Y-87630000D03*
X102870000Y-87630000D03*
X100330000Y-87630000D03*
X97790000Y-87630000D03*
X95250000Y-87630000D03*
X92710000Y-87630000D03*
X90170000Y-87630000D03*
X90170000Y-107950000D03*
X92710000Y-107950000D03*
X95250000Y-107950000D03*
X97790000Y-107950000D03*
X100330000Y-107950000D03*
X102870000Y-107950000D03*
X105410000Y-107950000D03*
X107950000Y-107950000D03*
X110490000Y-107950000D03*
X113030000Y-107950000D03*
X115570000Y-107950000D03*
X118110000Y-107950000D03*
X120650000Y-107950000D03*
X123190000Y-107950000D03*
X125730000Y-107950000D03*
X128270000Y-107950000D03*
X130810000Y-107950000D03*
X133350000Y-107950000D03*
X135890000Y-107950000D03*
X138430000Y-107950000D03*
X140970000Y-107950000D03*
X143510000Y-107950000D03*
X146050000Y-107950000D03*
D10*
X148590000Y-107950000D03*
D13*
X66675000Y-81250000D03*
X66675000Y-83250000D03*
X66675000Y-85250000D03*
X66675000Y-87250000D03*
X66675000Y-89250000D03*
X66675000Y-91250000D03*
X66675000Y-93250000D03*
D12*
X66675000Y-95250000D03*
D11*
X168910000Y-130810000D03*
X168910000Y-128270000D03*
X168910000Y-125730000D03*
D10*
X168910000Y-123190000D03*
X163830000Y-123190000D03*
D11*
X163830000Y-125730000D03*
X163830000Y-128270000D03*
X163830000Y-130810000D03*
D10*
X172720000Y-83820000D03*
D11*
X175260000Y-83820000D03*
X177800000Y-83820000D03*
X180340000Y-83820000D03*
X158750000Y-130810000D03*
X158750000Y-128270000D03*
X158750000Y-125730000D03*
D10*
X158750000Y-123190000D03*
D15*
X175260000Y-91440000D03*
D14*
X175260000Y-99060000D03*
D15*
X175260000Y-104140000D03*
D14*
X175260000Y-111760000D03*
X180340000Y-99060000D03*
D15*
X180340000Y-91440000D03*
D10*
X99060000Y-130810000D03*
D11*
X99060000Y-128270000D03*
X99060000Y-125730000D03*
X99060000Y-123190000D03*
X99060000Y-120650000D03*
X99060000Y-118110000D03*
X99060000Y-115570000D03*
X99060000Y-113030000D03*
X113030000Y-130810000D03*
X115570000Y-130810000D03*
X118110000Y-130810000D03*
X120650000Y-130810000D03*
X123190000Y-130810000D03*
X125730000Y-130810000D03*
X128270000Y-130810000D03*
X130810000Y-130810000D03*
X133350000Y-130810000D03*
D10*
X135890000Y-130810000D03*
X157480000Y-102870000D03*
D11*
X160020000Y-102870000D03*
X157480000Y-105410000D03*
X160020000Y-105410000D03*
X157480000Y-107950000D03*
X160020000Y-107950000D03*
D16*
X127000000Y-69850000D03*
X121920000Y-69850000D03*
X116840000Y-69850000D03*
X111760000Y-69850000D03*
X106680000Y-69850000D03*
X101600000Y-69850000D03*
X96520000Y-69850000D03*
X91440000Y-69850000D03*
D17*
X81280000Y-69850000D03*
D16*
X86360000Y-69850000D03*
X177800000Y-69850000D03*
X172720000Y-69850000D03*
X167640000Y-69850000D03*
X162560000Y-69850000D03*
X157480000Y-69850000D03*
X152400000Y-69850000D03*
X147320000Y-69850000D03*
X142240000Y-69850000D03*
D17*
X132080000Y-69850000D03*
D16*
X137160000Y-69850000D03*
X83820000Y-54610000D03*
D17*
X78740000Y-54610000D03*
D16*
X88900000Y-54610000D03*
X93980000Y-54610000D03*
X99060000Y-54610000D03*
X104140000Y-54610000D03*
X109220000Y-54610000D03*
X114300000Y-54610000D03*
X119380000Y-54610000D03*
X124460000Y-54610000D03*
X134620000Y-54610000D03*
D17*
X129540000Y-54610000D03*
D16*
X139700000Y-54610000D03*
X144780000Y-54610000D03*
X149860000Y-54610000D03*
X154940000Y-54610000D03*
X160020000Y-54610000D03*
X165100000Y-54610000D03*
X170180000Y-54610000D03*
X175260000Y-54610000D03*
D17*
X176530000Y-127000000D03*
D16*
X176530000Y-121920000D03*
D18*
X90170000Y-82550000D02*
X90170000Y-87630000D01*
X92710000Y-83752081D02*
X92710000Y-87630000D01*
X92710000Y-82550000D02*
X92710000Y-83752081D01*
D19*
X158750000Y-123190000D02*
X158750000Y-130810000D01*
X167640000Y-83185000D02*
X167640000Y-69850000D01*
X171450000Y-86995000D02*
X167640000Y-83185000D01*
X160655000Y-132715000D02*
X175260000Y-132715000D01*
X158750000Y-130810000D02*
X160655000Y-132715000D01*
X175260000Y-132715000D02*
X182245000Y-125730000D01*
X182245000Y-125730000D02*
X182245000Y-90170000D01*
X182245000Y-90170000D02*
X179070000Y-86995000D01*
X179070000Y-86995000D02*
X171450000Y-86995000D01*
X158329999Y-69000001D02*
X157480000Y-69850000D01*
X160655000Y-66675000D02*
X158329999Y-69000001D01*
X164465000Y-66675000D02*
X160655000Y-66675000D01*
X167640000Y-69850000D02*
X164465000Y-66675000D01*
X157480000Y-69850000D02*
X152400000Y-69850000D01*
X145415000Y-66675000D02*
X142240000Y-69850000D01*
X152400000Y-69850000D02*
X149225000Y-66675000D01*
X149225000Y-66675000D02*
X145415000Y-66675000D01*
X142240000Y-69850000D02*
X137160000Y-69850000D01*
X130175000Y-66675000D02*
X127000000Y-69850000D01*
X137160000Y-69850000D02*
X133985000Y-66675000D01*
X133985000Y-66675000D02*
X130175000Y-66675000D01*
X127000000Y-69850000D02*
X121920000Y-69850000D01*
X114935000Y-66675000D02*
X111760000Y-69850000D01*
X121920000Y-69850000D02*
X118745000Y-66675000D01*
X118745000Y-66675000D02*
X114935000Y-66675000D01*
X99060000Y-130810000D02*
X107950000Y-130810000D01*
X107950000Y-130810000D02*
X110490000Y-128270000D01*
X110490000Y-128270000D02*
X137160000Y-128270000D01*
X139700000Y-130810000D02*
X158750000Y-130810000D01*
X135890000Y-127000000D02*
X137795000Y-128905000D01*
X135890000Y-118110000D02*
X135890000Y-127000000D01*
X137160000Y-128270000D02*
X137795000Y-128905000D01*
X137795000Y-128905000D02*
X139700000Y-130810000D01*
X143510000Y-102870000D02*
X143510000Y-107950000D01*
D18*
X135890000Y-82550000D02*
X135890000Y-87630000D01*
X128270000Y-82550000D02*
X128270000Y-87630000D01*
X125730000Y-82550000D02*
X125730000Y-87630000D01*
X118110000Y-82550000D02*
X118110000Y-87630000D01*
X115570000Y-82550000D02*
X115570000Y-87630000D01*
X146050000Y-102870000D02*
X146050000Y-107950000D01*
X120650000Y-102870000D02*
X120650000Y-107950000D01*
X90170000Y-102870000D02*
X90170000Y-107950000D01*
X88295000Y-102870000D02*
X90170000Y-102870000D01*
X66675000Y-81250000D02*
X88295000Y-102870000D01*
X95250000Y-82550000D02*
X95250000Y-87630000D01*
X97790000Y-82550000D02*
X97790000Y-87630000D01*
X100330000Y-82550000D02*
X100330000Y-87630000D01*
X102870000Y-82550000D02*
X102870000Y-87630000D01*
X105410000Y-82550000D02*
X105410000Y-87630000D01*
X107950000Y-82550000D02*
X107950000Y-87630000D01*
X110490000Y-83752081D02*
X110490000Y-87630000D01*
X110490000Y-82550000D02*
X110490000Y-83752081D01*
X113030000Y-82550000D02*
X113030000Y-87630000D01*
X115570000Y-102870000D02*
X115570000Y-107950000D01*
X113030000Y-102870000D02*
X113030000Y-107950000D01*
X110490000Y-102870000D02*
X110490000Y-107950000D01*
X107950000Y-102870000D02*
X107950000Y-107950000D01*
X105410000Y-102870000D02*
X105410000Y-107950000D01*
X97790000Y-104072081D02*
X97790000Y-107950000D01*
X97790000Y-102870000D02*
X97790000Y-104072081D01*
X95250000Y-102870000D02*
X95250000Y-107950000D01*
X92710000Y-102870000D02*
X92710000Y-107950000D01*
X125730000Y-102870000D02*
X125730000Y-107950000D01*
X118110000Y-102870000D02*
X118110000Y-107950000D01*
X123190000Y-82550000D02*
X123190000Y-87630000D01*
X120650000Y-82550000D02*
X120650000Y-87630000D01*
X138430000Y-82550000D02*
X138430000Y-87630000D01*
X140970000Y-82550000D02*
X140970000Y-87630000D01*
X100330000Y-102870000D02*
X100330000Y-107950000D01*
X102870000Y-102870000D02*
X102870000Y-107950000D01*
X99060000Y-125730000D02*
X113030000Y-111760000D01*
X113030000Y-111760000D02*
X127000000Y-111760000D01*
X130810000Y-101667919D02*
X128270000Y-99127919D01*
X128270000Y-99127919D02*
X91507919Y-99127919D01*
X81280000Y-88900000D02*
X81280000Y-69850000D01*
X91507919Y-99127919D02*
X81280000Y-88900000D01*
X130810000Y-102870000D02*
X130810000Y-107950000D01*
X130810000Y-101667919D02*
X130810000Y-102870000D01*
X127000000Y-111760000D02*
X130810000Y-107950000D01*
X99060000Y-123190000D02*
X112395000Y-109855000D01*
X112395000Y-109855000D02*
X126365000Y-109855000D01*
X77509000Y-54610000D02*
X78740000Y-54610000D01*
X69215000Y-62904000D02*
X77509000Y-54610000D01*
X69215000Y-80010000D02*
X69215000Y-62904000D01*
X90170000Y-100965000D02*
X69215000Y-80010000D01*
X126365000Y-100965000D02*
X90170000Y-100965000D01*
X126365000Y-100965000D02*
X128270000Y-102870000D01*
X126365000Y-109855000D02*
X128270000Y-107950000D01*
X128270000Y-102870000D02*
X128270000Y-107950000D01*
X123190000Y-102870000D02*
X123190000Y-107950000D01*
X133350000Y-102870000D02*
X133350000Y-107950000D01*
X172720000Y-83820000D02*
X172720000Y-69850000D01*
X180340000Y-64770000D02*
X170180000Y-54610000D01*
X180340000Y-80010000D02*
X180340000Y-64770000D01*
X177800000Y-83820000D02*
X177800000Y-82550000D01*
X177800000Y-82550000D02*
X180340000Y-80010000D01*
X176950001Y-70699999D02*
X177800000Y-69850000D01*
X175260000Y-72390000D02*
X176950001Y-70699999D01*
X175260000Y-83820000D02*
X175260000Y-72390000D01*
X182245000Y-61595000D02*
X175260000Y-54610000D01*
X180340000Y-83820000D02*
X182245000Y-81915000D01*
X182245000Y-81915000D02*
X182245000Y-61595000D01*
X135890000Y-102870000D02*
X135890000Y-107950000D01*
X143510000Y-82550000D02*
X143510000Y-87630000D01*
X130810000Y-116840000D02*
X130810000Y-118110000D01*
X163830000Y-113665000D02*
X133985000Y-113665000D01*
X143510000Y-88900000D02*
X146685000Y-92075000D01*
X143510000Y-87630000D02*
X143510000Y-88900000D01*
X146685000Y-92075000D02*
X160020000Y-92075000D01*
X168275000Y-100330000D02*
X168275000Y-109220000D01*
X133985000Y-113665000D02*
X130810000Y-116840000D01*
X160020000Y-92075000D02*
X168275000Y-100330000D01*
X168275000Y-109220000D02*
X163830000Y-113665000D01*
X146050000Y-83752081D02*
X146050000Y-87630000D01*
X146050000Y-82550000D02*
X146050000Y-83752081D01*
X147955000Y-90737081D02*
X146050000Y-88832081D01*
X161222081Y-90737081D02*
X147955000Y-90737081D01*
X133350000Y-117475000D02*
X135255000Y-115570000D01*
X133350000Y-118110000D02*
X133350000Y-117475000D01*
X135255000Y-115570000D02*
X164465000Y-115570000D01*
X146050000Y-88832081D02*
X146050000Y-87630000D01*
X164465000Y-115570000D02*
X170180000Y-109855000D01*
X170180000Y-109855000D02*
X170180000Y-99695000D01*
X170180000Y-99695000D02*
X161222081Y-90737081D01*
D19*
X148590000Y-102870000D02*
X148590000Y-107950000D01*
X156277919Y-105410000D02*
X157480000Y-105410000D01*
X149518000Y-105410000D02*
X156277919Y-105410000D01*
X148590000Y-104482000D02*
X149518000Y-105410000D01*
X148590000Y-102870000D02*
X148590000Y-104482000D01*
X148590000Y-82550000D02*
X148590000Y-87630000D01*
X168910000Y-123190000D02*
X168910000Y-130810000D01*
X175680001Y-122769999D02*
X176530000Y-121920000D01*
X175260000Y-123190000D02*
X175680001Y-122769999D01*
X168910000Y-123190000D02*
X175260000Y-123190000D01*
X176530000Y-113030000D02*
X175260000Y-111760000D01*
X176530000Y-121920000D02*
X176530000Y-113030000D01*
X179070000Y-113030000D02*
X180340000Y-111760000D01*
X176530000Y-113030000D02*
X179070000Y-113030000D01*
X81915000Y-52705000D02*
X83820000Y-54610000D01*
X76200000Y-52705000D02*
X81915000Y-52705000D01*
X64770000Y-64135000D02*
X76200000Y-52705000D01*
X64770000Y-93980000D02*
X64770000Y-64135000D01*
X66675000Y-95250000D02*
X66040000Y-95250000D01*
X66040000Y-95250000D02*
X64770000Y-93980000D01*
X83820000Y-54610000D02*
X88900000Y-54610000D01*
X88900000Y-54610000D02*
X99060000Y-54610000D01*
X107315000Y-52705000D02*
X109220000Y-54610000D01*
X99060000Y-54610000D02*
X100965000Y-52705000D01*
X100965000Y-52705000D02*
X107315000Y-52705000D01*
X117475000Y-52705000D02*
X119380000Y-54610000D01*
X109220000Y-54610000D02*
X111125000Y-52705000D01*
X111125000Y-52705000D02*
X117475000Y-52705000D01*
X119380000Y-54610000D02*
X124460000Y-54610000D01*
X132715000Y-52705000D02*
X134620000Y-54610000D01*
X124460000Y-54610000D02*
X126365000Y-52705000D01*
X126365000Y-52705000D02*
X132715000Y-52705000D01*
X134620000Y-54610000D02*
X139700000Y-54610000D01*
X147955000Y-52705000D02*
X149860000Y-54610000D01*
X139700000Y-54610000D02*
X141605000Y-52705000D01*
X141605000Y-52705000D02*
X147955000Y-52705000D01*
X149860000Y-54610000D02*
X154940000Y-54610000D01*
X163195000Y-52705000D02*
X165100000Y-54610000D01*
X154940000Y-54610000D02*
X156845000Y-52705000D01*
X156845000Y-52705000D02*
X163195000Y-52705000D01*
X65238000Y-95250000D02*
X64770000Y-95718000D01*
X66675000Y-95250000D02*
X65238000Y-95250000D01*
X64770000Y-95718000D02*
X64770000Y-132080000D01*
X64770000Y-132080000D02*
X65405000Y-132715000D01*
X65405000Y-132715000D02*
X92075000Y-132715000D01*
X92075000Y-132715000D02*
X96520000Y-128270000D01*
X96520000Y-128270000D02*
X99060000Y-128270000D01*
X99060000Y-128270000D02*
X100330000Y-128270000D01*
X110490000Y-118110000D02*
X113030000Y-118110000D01*
X100330000Y-128270000D02*
X110490000Y-118110000D01*
X175260000Y-110628630D02*
X175260000Y-111760000D01*
X172720000Y-108088630D02*
X175260000Y-110628630D01*
X172720000Y-94615000D02*
X172720000Y-108088630D01*
X165735000Y-87630000D02*
X172720000Y-94615000D01*
X148590000Y-87630000D02*
X165735000Y-87630000D01*
X148590000Y-82550000D02*
X148590000Y-81280000D01*
X148590000Y-81280000D02*
X147320000Y-80010000D01*
X147320000Y-80010000D02*
X118110000Y-80010000D01*
X118110000Y-80010000D02*
X109220000Y-71120000D01*
X109220000Y-71120000D02*
X109220000Y-54610000D01*
D18*
X133350000Y-82550000D02*
X133350000Y-87630000D01*
X130810000Y-83752081D02*
X130810000Y-87630000D01*
X130810000Y-82550000D02*
X130810000Y-83752081D01*
X140970000Y-102870000D02*
X140970000Y-107950000D01*
X138430000Y-102870000D02*
X138430000Y-107950000D01*
M02*
