M48
; DRILL file {KiCad (5.1.4)-1} date 1/23/2020 11:34:47 PM
; FORMAT={-:-/ absolute / inch / decimal}
; #@! TF.CreationDate,2020-01-23T23:34:47-05:00
; #@! TF.GenerationSoftware,Kicad,Pcbnew,(5.1.4)-1
; #@! TF.FileFunction,Plated,1,2,PTH
FMAT,2
INCH
T1C0.0315
T2C0.0394
T3C0.0551
%
G90
G05
T1
X6.9Y-4.1
X6.9Y-4.4
X6.9Y-3.6
X6.9Y-3.9
X2.625Y-4.5988
X2.625Y-4.6776
X2.625Y-4.7563
X2.625Y-4.835
X2.625Y-4.9138
X2.625Y-4.9925
X2.625Y-5.0713
X2.625Y-5.15
X2.625Y-3.1988
X2.625Y-3.2776
X2.625Y-3.3563
X2.625Y-3.435
X2.625Y-3.5138
X2.625Y-3.5925
X2.625Y-3.6713
X2.625Y-3.75
X7.1Y-3.6
X7.1Y-3.9
X7.1Y-4.1
X7.1Y-4.4
T2
X6.8Y-3.3
X6.9Y-3.3
X7.0Y-3.3
X7.1Y-3.3
X6.2Y-4.05
X6.2Y-4.15
X6.2Y-4.25
X6.3Y-4.05
X6.3Y-4.15
X6.3Y-4.25
X6.45Y-4.85
X6.45Y-4.95
X6.45Y-5.05
X6.45Y-5.15
X3.55Y-4.05
X3.65Y-4.05
X3.75Y-4.05
X3.85Y-4.05
X3.95Y-4.05
X4.05Y-4.05
X4.15Y-4.05
X4.25Y-4.05
X4.35Y-4.05
X4.45Y-4.05
X4.55Y-4.05
X4.65Y-4.05
X4.75Y-4.05
X4.85Y-4.05
X4.95Y-4.05
X5.05Y-4.05
X5.15Y-4.05
X5.25Y-4.05
X5.35Y-4.05
X5.45Y-4.05
X5.55Y-4.05
X5.65Y-4.05
X5.75Y-4.05
X5.85Y-4.05
X3.55Y-3.25
X3.65Y-3.25
X3.75Y-3.25
X3.85Y-3.25
X3.95Y-3.25
X4.05Y-3.25
X4.15Y-3.25
X4.25Y-3.25
X4.35Y-3.25
X4.45Y-3.25
X4.55Y-3.25
X4.65Y-3.25
X4.75Y-3.25
X4.85Y-3.25
X4.95Y-3.25
X5.05Y-3.25
X5.15Y-3.25
X5.25Y-3.25
X5.35Y-3.25
X5.45Y-3.25
X5.55Y-3.25
X5.65Y-3.25
X5.75Y-3.25
X5.85Y-3.25
X3.55Y-4.25
X3.65Y-4.25
X3.75Y-4.25
X3.85Y-4.25
X3.95Y-4.25
X4.05Y-4.25
X4.15Y-4.25
X4.25Y-4.25
X4.35Y-4.25
X4.45Y-4.25
X4.55Y-4.25
X4.65Y-4.25
X4.75Y-4.25
X4.85Y-4.25
X4.95Y-4.25
X5.05Y-4.25
X5.15Y-4.25
X5.25Y-4.25
X5.35Y-4.25
X5.45Y-4.25
X5.55Y-4.25
X5.65Y-4.25
X5.75Y-4.25
X5.85Y-4.25
X3.9Y-4.45
X3.9Y-4.55
X3.9Y-4.65
X3.9Y-4.75
X3.9Y-4.85
X3.9Y-4.95
X3.9Y-5.05
X3.9Y-5.15
X6.25Y-4.85
X6.25Y-4.95
X6.25Y-5.05
X6.25Y-5.15
X4.45Y-4.65
X4.55Y-4.65
X4.65Y-4.65
X4.75Y-4.65
X4.85Y-4.65
X4.95Y-4.65
X5.05Y-4.65
X5.15Y-4.65
X5.25Y-4.65
X5.35Y-4.65
X3.55Y-3.45
X3.65Y-3.45
X3.75Y-3.45
X3.85Y-3.45
X3.95Y-3.45
X4.05Y-3.45
X4.15Y-3.45
X4.25Y-3.45
X4.35Y-3.45
X4.45Y-3.45
X4.55Y-3.45
X4.65Y-3.45
X4.75Y-3.45
X4.85Y-3.45
X4.95Y-3.45
X5.05Y-3.45
X5.15Y-3.45
X5.25Y-3.45
X5.35Y-3.45
X5.45Y-3.45
X5.55Y-3.45
X5.65Y-3.45
X5.75Y-3.45
X5.85Y-3.45
X6.65Y-4.85
X6.65Y-4.95
X6.65Y-5.05
X6.65Y-5.15
X4.45Y-5.15
X4.55Y-5.15
X4.65Y-5.15
X4.75Y-5.15
X4.85Y-5.15
X4.95Y-5.15
X5.05Y-5.15
X5.15Y-5.15
X5.25Y-5.15
X5.35Y-5.15
T3
X3.1Y-2.15
X3.3Y-2.15
X3.5Y-2.15
X3.7Y-2.15
X3.9Y-2.15
X4.1Y-2.15
X4.3Y-2.15
X4.5Y-2.15
X4.7Y-2.15
X4.9Y-2.15
X3.2Y-2.75
X3.4Y-2.75
X3.6Y-2.75
X3.8Y-2.75
X4.0Y-2.75
X4.2Y-2.75
X4.4Y-2.75
X4.6Y-2.75
X4.8Y-2.75
X5.0Y-2.75
X5.2Y-2.75
X5.4Y-2.75
X5.6Y-2.75
X5.8Y-2.75
X6.0Y-2.75
X6.2Y-2.75
X6.4Y-2.75
X6.6Y-2.75
X6.8Y-2.75
X7.0Y-2.75
X6.95Y-4.8
X6.95Y-5.0
X5.1Y-2.15
X5.3Y-2.15
X5.5Y-2.15
X5.7Y-2.15
X5.9Y-2.15
X6.1Y-2.15
X6.3Y-2.15
X6.5Y-2.15
X6.7Y-2.15
X6.9Y-2.15
T0
M30
