G04 #@! TF.GenerationSoftware,KiCad,Pcbnew,(5.1.4)-1*
G04 #@! TF.CreationDate,2020-01-22T01:12:57-05:00*
G04 #@! TF.ProjectId,MainDataAquisitionBoard,4d61696e-4461-4746-9141-717569736974,rev?*
G04 #@! TF.SameCoordinates,Original*
G04 #@! TF.FileFunction,Legend,Top*
G04 #@! TF.FilePolarity,Positive*
%FSLAX46Y46*%
G04 Gerber Fmt 4.6, Leading zero omitted, Abs format (unit mm)*
G04 Created by KiCad (PCBNEW (5.1.4)-1) date 2020-01-22 01:12:57*
%MOMM*%
%LPD*%
G04 APERTURE LIST*
%ADD10C,0.150000*%
%ADD11C,0.120000*%
G04 APERTURE END LIST*
D10*
X154670714Y-111387380D02*
X154670714Y-110387380D01*
X155051666Y-110387380D01*
X155146904Y-110435000D01*
X155194523Y-110482619D01*
X155242142Y-110577857D01*
X155242142Y-110720714D01*
X155194523Y-110815952D01*
X155146904Y-110863571D01*
X155051666Y-110911190D01*
X154670714Y-110911190D01*
X155670714Y-111387380D02*
X155670714Y-110720714D01*
X155670714Y-110911190D02*
X155718333Y-110815952D01*
X155765952Y-110768333D01*
X155861190Y-110720714D01*
X155956428Y-110720714D01*
X156432619Y-111387380D02*
X156337380Y-111339761D01*
X156289761Y-111292142D01*
X156242142Y-111196904D01*
X156242142Y-110911190D01*
X156289761Y-110815952D01*
X156337380Y-110768333D01*
X156432619Y-110720714D01*
X156575476Y-110720714D01*
X156670714Y-110768333D01*
X156718333Y-110815952D01*
X156765952Y-110911190D01*
X156765952Y-111196904D01*
X156718333Y-111292142D01*
X156670714Y-111339761D01*
X156575476Y-111387380D01*
X156432619Y-111387380D01*
X157623095Y-110720714D02*
X157623095Y-111530238D01*
X157575476Y-111625476D01*
X157527857Y-111673095D01*
X157432619Y-111720714D01*
X157289761Y-111720714D01*
X157194523Y-111673095D01*
X157623095Y-111339761D02*
X157527857Y-111387380D01*
X157337380Y-111387380D01*
X157242142Y-111339761D01*
X157194523Y-111292142D01*
X157146904Y-111196904D01*
X157146904Y-110911190D01*
X157194523Y-110815952D01*
X157242142Y-110768333D01*
X157337380Y-110720714D01*
X157527857Y-110720714D01*
X157623095Y-110768333D01*
X158099285Y-111387380D02*
X158099285Y-110720714D01*
X158099285Y-110911190D02*
X158146904Y-110815952D01*
X158194523Y-110768333D01*
X158289761Y-110720714D01*
X158385000Y-110720714D01*
X159146904Y-111387380D02*
X159146904Y-110863571D01*
X159099285Y-110768333D01*
X159004047Y-110720714D01*
X158813571Y-110720714D01*
X158718333Y-110768333D01*
X159146904Y-111339761D02*
X159051666Y-111387380D01*
X158813571Y-111387380D01*
X158718333Y-111339761D01*
X158670714Y-111244523D01*
X158670714Y-111149285D01*
X158718333Y-111054047D01*
X158813571Y-111006428D01*
X159051666Y-111006428D01*
X159146904Y-110958809D01*
X159623095Y-111387380D02*
X159623095Y-110720714D01*
X159623095Y-110815952D02*
X159670714Y-110768333D01*
X159765952Y-110720714D01*
X159908809Y-110720714D01*
X160004047Y-110768333D01*
X160051666Y-110863571D01*
X160051666Y-111387380D01*
X160051666Y-110863571D02*
X160099285Y-110768333D01*
X160194523Y-110720714D01*
X160337380Y-110720714D01*
X160432619Y-110768333D01*
X160480238Y-110863571D01*
X160480238Y-111387380D01*
X160956428Y-111387380D02*
X160956428Y-110720714D01*
X160956428Y-110815952D02*
X161004047Y-110768333D01*
X161099285Y-110720714D01*
X161242142Y-110720714D01*
X161337380Y-110768333D01*
X161385000Y-110863571D01*
X161385000Y-111387380D01*
X161385000Y-110863571D02*
X161432619Y-110768333D01*
X161527857Y-110720714D01*
X161670714Y-110720714D01*
X161765952Y-110768333D01*
X161813571Y-110863571D01*
X161813571Y-111387380D01*
X162289761Y-111387380D02*
X162289761Y-110720714D01*
X162289761Y-110387380D02*
X162242142Y-110435000D01*
X162289761Y-110482619D01*
X162337380Y-110435000D01*
X162289761Y-110387380D01*
X162289761Y-110482619D01*
X162765952Y-110720714D02*
X162765952Y-111387380D01*
X162765952Y-110815952D02*
X162813571Y-110768333D01*
X162908809Y-110720714D01*
X163051666Y-110720714D01*
X163146904Y-110768333D01*
X163194523Y-110863571D01*
X163194523Y-111387380D01*
X164099285Y-110720714D02*
X164099285Y-111530238D01*
X164051666Y-111625476D01*
X164004047Y-111673095D01*
X163908809Y-111720714D01*
X163765952Y-111720714D01*
X163670714Y-111673095D01*
X164099285Y-111339761D02*
X164004047Y-111387380D01*
X163813571Y-111387380D01*
X163718333Y-111339761D01*
X163670714Y-111292142D01*
X163623095Y-111196904D01*
X163623095Y-110911190D01*
X163670714Y-110815952D01*
X163718333Y-110768333D01*
X163813571Y-110720714D01*
X164004047Y-110720714D01*
X164099285Y-110768333D01*
X157718333Y-113037380D02*
X157718333Y-112037380D01*
X158051666Y-112751666D01*
X158385000Y-112037380D01*
X158385000Y-113037380D01*
X159004047Y-113037380D02*
X158908809Y-112989761D01*
X158861190Y-112942142D01*
X158813571Y-112846904D01*
X158813571Y-112561190D01*
X158861190Y-112465952D01*
X158908809Y-112418333D01*
X159004047Y-112370714D01*
X159146904Y-112370714D01*
X159242142Y-112418333D01*
X159289761Y-112465952D01*
X159337380Y-112561190D01*
X159337380Y-112846904D01*
X159289761Y-112942142D01*
X159242142Y-112989761D01*
X159146904Y-113037380D01*
X159004047Y-113037380D01*
X160194523Y-113037380D02*
X160194523Y-112037380D01*
X160194523Y-112989761D02*
X160099285Y-113037380D01*
X159908809Y-113037380D01*
X159813571Y-112989761D01*
X159765952Y-112942142D01*
X159718333Y-112846904D01*
X159718333Y-112561190D01*
X159765952Y-112465952D01*
X159813571Y-112418333D01*
X159908809Y-112370714D01*
X160099285Y-112370714D01*
X160194523Y-112418333D01*
X161051666Y-112989761D02*
X160956428Y-113037380D01*
X160765952Y-113037380D01*
X160670714Y-112989761D01*
X160623095Y-112894523D01*
X160623095Y-112513571D01*
X160670714Y-112418333D01*
X160765952Y-112370714D01*
X160956428Y-112370714D01*
X161051666Y-112418333D01*
X161099285Y-112513571D01*
X161099285Y-112608809D01*
X160623095Y-112704047D01*
X158130952Y-99147380D02*
X158321428Y-99147380D01*
X158416666Y-99195000D01*
X158511904Y-99290238D01*
X158559523Y-99480714D01*
X158559523Y-99814047D01*
X158511904Y-100004523D01*
X158416666Y-100099761D01*
X158321428Y-100147380D01*
X158130952Y-100147380D01*
X158035714Y-100099761D01*
X157940476Y-100004523D01*
X157892857Y-99814047D01*
X157892857Y-99480714D01*
X157940476Y-99290238D01*
X158035714Y-99195000D01*
X158130952Y-99147380D01*
X158988095Y-100147380D02*
X158988095Y-99147380D01*
X159559523Y-100147380D01*
X159559523Y-99147380D01*
X180220952Y-109164285D02*
X180173333Y-109259523D01*
X180125714Y-109307142D01*
X180030476Y-109354761D01*
X179982857Y-109354761D01*
X179887619Y-109307142D01*
X179840000Y-109259523D01*
X179792380Y-109164285D01*
X179792380Y-108973809D01*
X179840000Y-108878571D01*
X179887619Y-108830952D01*
X179982857Y-108783333D01*
X180030476Y-108783333D01*
X180125714Y-108830952D01*
X180173333Y-108878571D01*
X180220952Y-108973809D01*
X180220952Y-109164285D01*
X180268571Y-109259523D01*
X180316190Y-109307142D01*
X180411428Y-109354761D01*
X180601904Y-109354761D01*
X180697142Y-109307142D01*
X180744761Y-109259523D01*
X180792380Y-109164285D01*
X180792380Y-108973809D01*
X180744761Y-108878571D01*
X180697142Y-108830952D01*
X180601904Y-108783333D01*
X180411428Y-108783333D01*
X180316190Y-108830952D01*
X180268571Y-108878571D01*
X180220952Y-108973809D01*
X180697142Y-108354761D02*
X180744761Y-108307142D01*
X180792380Y-108354761D01*
X180744761Y-108402380D01*
X180697142Y-108354761D01*
X180792380Y-108354761D01*
X179887619Y-107926190D02*
X179840000Y-107878571D01*
X179792380Y-107783333D01*
X179792380Y-107545238D01*
X179840000Y-107450000D01*
X179887619Y-107402380D01*
X179982857Y-107354761D01*
X180078095Y-107354761D01*
X180220952Y-107402380D01*
X180792380Y-107973809D01*
X180792380Y-107354761D01*
X180792380Y-106926190D02*
X179792380Y-106926190D01*
X180411428Y-106830952D02*
X180792380Y-106545238D01*
X180125714Y-106545238D02*
X180506666Y-106926190D01*
X175140952Y-109164285D02*
X175093333Y-109259523D01*
X175045714Y-109307142D01*
X174950476Y-109354761D01*
X174902857Y-109354761D01*
X174807619Y-109307142D01*
X174760000Y-109259523D01*
X174712380Y-109164285D01*
X174712380Y-108973809D01*
X174760000Y-108878571D01*
X174807619Y-108830952D01*
X174902857Y-108783333D01*
X174950476Y-108783333D01*
X175045714Y-108830952D01*
X175093333Y-108878571D01*
X175140952Y-108973809D01*
X175140952Y-109164285D01*
X175188571Y-109259523D01*
X175236190Y-109307142D01*
X175331428Y-109354761D01*
X175521904Y-109354761D01*
X175617142Y-109307142D01*
X175664761Y-109259523D01*
X175712380Y-109164285D01*
X175712380Y-108973809D01*
X175664761Y-108878571D01*
X175617142Y-108830952D01*
X175521904Y-108783333D01*
X175331428Y-108783333D01*
X175236190Y-108830952D01*
X175188571Y-108878571D01*
X175140952Y-108973809D01*
X175617142Y-108354761D02*
X175664761Y-108307142D01*
X175712380Y-108354761D01*
X175664761Y-108402380D01*
X175617142Y-108354761D01*
X175712380Y-108354761D01*
X174807619Y-107926190D02*
X174760000Y-107878571D01*
X174712380Y-107783333D01*
X174712380Y-107545238D01*
X174760000Y-107450000D01*
X174807619Y-107402380D01*
X174902857Y-107354761D01*
X174998095Y-107354761D01*
X175140952Y-107402380D01*
X175712380Y-107973809D01*
X175712380Y-107354761D01*
X175712380Y-106926190D02*
X174712380Y-106926190D01*
X175331428Y-106830952D02*
X175712380Y-106545238D01*
X175045714Y-106545238D02*
X175426666Y-106926190D01*
X180125714Y-96178571D02*
X180792380Y-96178571D01*
X179744761Y-96416666D02*
X180459047Y-96654761D01*
X180459047Y-96035714D01*
X180697142Y-95654761D02*
X180744761Y-95607142D01*
X180792380Y-95654761D01*
X180744761Y-95702380D01*
X180697142Y-95654761D01*
X180792380Y-95654761D01*
X179792380Y-95273809D02*
X179792380Y-94607142D01*
X180792380Y-95035714D01*
X180792380Y-94226190D02*
X179792380Y-94226190D01*
X180411428Y-94130952D02*
X180792380Y-93845238D01*
X180125714Y-93845238D02*
X180506666Y-94226190D01*
X175045714Y-96178571D02*
X175712380Y-96178571D01*
X174664761Y-96416666D02*
X175379047Y-96654761D01*
X175379047Y-96035714D01*
X175617142Y-95654761D02*
X175664761Y-95607142D01*
X175712380Y-95654761D01*
X175664761Y-95702380D01*
X175617142Y-95654761D01*
X175712380Y-95654761D01*
X174712380Y-95273809D02*
X174712380Y-94607142D01*
X175712380Y-95035714D01*
X175712380Y-94226190D02*
X174712380Y-94226190D01*
X175331428Y-94130952D02*
X175712380Y-93845238D01*
X175045714Y-93845238D02*
X175426666Y-94226190D01*
X157511904Y-120102380D02*
X158130952Y-120102380D01*
X157797619Y-120483333D01*
X157940476Y-120483333D01*
X158035714Y-120530952D01*
X158083333Y-120578571D01*
X158130952Y-120673809D01*
X158130952Y-120911904D01*
X158083333Y-121007142D01*
X158035714Y-121054761D01*
X157940476Y-121102380D01*
X157654761Y-121102380D01*
X157559523Y-121054761D01*
X157511904Y-121007142D01*
X158416666Y-120102380D02*
X158750000Y-121102380D01*
X159083333Y-120102380D01*
X159321428Y-120102380D02*
X159940476Y-120102380D01*
X159607142Y-120483333D01*
X159750000Y-120483333D01*
X159845238Y-120530952D01*
X159892857Y-120578571D01*
X159940476Y-120673809D01*
X159940476Y-120911904D01*
X159892857Y-121007142D01*
X159845238Y-121054761D01*
X159750000Y-121102380D01*
X159464285Y-121102380D01*
X159369047Y-121054761D01*
X159321428Y-121007142D01*
X163639523Y-120102380D02*
X163163333Y-120102380D01*
X163115714Y-120578571D01*
X163163333Y-120530952D01*
X163258571Y-120483333D01*
X163496666Y-120483333D01*
X163591904Y-120530952D01*
X163639523Y-120578571D01*
X163687142Y-120673809D01*
X163687142Y-120911904D01*
X163639523Y-121007142D01*
X163591904Y-121054761D01*
X163496666Y-121102380D01*
X163258571Y-121102380D01*
X163163333Y-121054761D01*
X163115714Y-121007142D01*
X163972857Y-120102380D02*
X164306190Y-121102380D01*
X164639523Y-120102380D01*
X168148095Y-120150000D02*
X168052857Y-120102380D01*
X167910000Y-120102380D01*
X167767142Y-120150000D01*
X167671904Y-120245238D01*
X167624285Y-120340476D01*
X167576666Y-120530952D01*
X167576666Y-120673809D01*
X167624285Y-120864285D01*
X167671904Y-120959523D01*
X167767142Y-121054761D01*
X167910000Y-121102380D01*
X168005238Y-121102380D01*
X168148095Y-121054761D01*
X168195714Y-121007142D01*
X168195714Y-120673809D01*
X168005238Y-120673809D01*
X168624285Y-121102380D02*
X168624285Y-120102380D01*
X169195714Y-121102380D01*
X169195714Y-120102380D01*
X169671904Y-121102380D02*
X169671904Y-120102380D01*
X169910000Y-120102380D01*
X170052857Y-120150000D01*
X170148095Y-120245238D01*
X170195714Y-120340476D01*
X170243333Y-120530952D01*
X170243333Y-120673809D01*
X170195714Y-120864285D01*
X170148095Y-120959523D01*
X170052857Y-121054761D01*
X169910000Y-121102380D01*
X169671904Y-121102380D01*
X176149047Y-130246428D02*
X176910952Y-130246428D01*
X176530000Y-130627380D02*
X176530000Y-129865476D01*
X176149047Y-118816428D02*
X176910952Y-118816428D01*
D11*
X132080000Y-71180000D02*
X130750000Y-71180000D01*
X133350000Y-71180000D02*
X133350000Y-68520000D01*
X181670000Y-71180000D02*
X181670000Y-68520000D01*
X133350000Y-71180000D02*
X181670000Y-71180000D01*
X130750000Y-71180000D02*
X130750000Y-69850000D01*
X133350000Y-68520000D02*
X181670000Y-68520000D01*
X179300000Y-111220000D02*
X178970000Y-111220000D01*
X178970000Y-111220000D02*
X178970000Y-104680000D01*
X178970000Y-104680000D02*
X179300000Y-104680000D01*
X181380000Y-111220000D02*
X181710000Y-111220000D01*
X181710000Y-111220000D02*
X181710000Y-104680000D01*
X181710000Y-104680000D02*
X181380000Y-104680000D01*
X149920000Y-81220000D02*
X149920000Y-82550000D01*
X148590000Y-81220000D02*
X149920000Y-81220000D01*
X147320000Y-81220000D02*
X147320000Y-83880000D01*
X147320000Y-83880000D02*
X88840000Y-83880000D01*
X147320000Y-81220000D02*
X88840000Y-81220000D01*
X88840000Y-81220000D02*
X88840000Y-83880000D01*
X88840000Y-86300000D02*
X88840000Y-88960000D01*
X147320000Y-86300000D02*
X88840000Y-86300000D01*
X147320000Y-88960000D02*
X88840000Y-88960000D01*
X147320000Y-86300000D02*
X147320000Y-88960000D01*
X148590000Y-86300000D02*
X149920000Y-86300000D01*
X149920000Y-86300000D02*
X149920000Y-87630000D01*
X88840000Y-101540000D02*
X88840000Y-104200000D01*
X147320000Y-101540000D02*
X88840000Y-101540000D01*
X147320000Y-104200000D02*
X88840000Y-104200000D01*
X147320000Y-101540000D02*
X147320000Y-104200000D01*
X148590000Y-101540000D02*
X149920000Y-101540000D01*
X149920000Y-101540000D02*
X149920000Y-102870000D01*
X149920000Y-106620000D02*
X149920000Y-107950000D01*
X148590000Y-106620000D02*
X149920000Y-106620000D01*
X147320000Y-106620000D02*
X147320000Y-109280000D01*
X147320000Y-109280000D02*
X88840000Y-109280000D01*
X147320000Y-106620000D02*
X88840000Y-106620000D01*
X88840000Y-106620000D02*
X88840000Y-109280000D01*
X67100000Y-96310000D02*
X66040000Y-96310000D01*
X67100000Y-95250000D02*
X67100000Y-96310000D01*
X67100000Y-94250000D02*
X64980000Y-94250000D01*
X64980000Y-94250000D02*
X64980000Y-80190000D01*
X67100000Y-94250000D02*
X67100000Y-80190000D01*
X67100000Y-80190000D02*
X64980000Y-80190000D01*
X67100000Y-115750000D02*
X64980000Y-115750000D01*
X67100000Y-129810000D02*
X67100000Y-115750000D01*
X64980000Y-129810000D02*
X64980000Y-115750000D01*
X67100000Y-129810000D02*
X64980000Y-129810000D01*
X67100000Y-130810000D02*
X67100000Y-131870000D01*
X67100000Y-131870000D02*
X66040000Y-131870000D01*
X167580000Y-121860000D02*
X168910000Y-121860000D01*
X167580000Y-123190000D02*
X167580000Y-121860000D01*
X167580000Y-124460000D02*
X170240000Y-124460000D01*
X170240000Y-124460000D02*
X170240000Y-132140000D01*
X167580000Y-124460000D02*
X167580000Y-132140000D01*
X167580000Y-132140000D02*
X170240000Y-132140000D01*
X162500000Y-132140000D02*
X165160000Y-132140000D01*
X162500000Y-124460000D02*
X162500000Y-132140000D01*
X165160000Y-124460000D02*
X165160000Y-132140000D01*
X162500000Y-124460000D02*
X165160000Y-124460000D01*
X162500000Y-123190000D02*
X162500000Y-121860000D01*
X162500000Y-121860000D02*
X163830000Y-121860000D01*
X181670000Y-85150000D02*
X181670000Y-82490000D01*
X173990000Y-85150000D02*
X181670000Y-85150000D01*
X173990000Y-82490000D02*
X181670000Y-82490000D01*
X173990000Y-85150000D02*
X173990000Y-82490000D01*
X172720000Y-85150000D02*
X171390000Y-85150000D01*
X171390000Y-85150000D02*
X171390000Y-83820000D01*
X157420000Y-121860000D02*
X158750000Y-121860000D01*
X157420000Y-123190000D02*
X157420000Y-121860000D01*
X157420000Y-124460000D02*
X160080000Y-124460000D01*
X160080000Y-124460000D02*
X160080000Y-132140000D01*
X157420000Y-124460000D02*
X157420000Y-132140000D01*
X157420000Y-132140000D02*
X160080000Y-132140000D01*
X176630000Y-91980000D02*
X176300000Y-91980000D01*
X176630000Y-98520000D02*
X176630000Y-91980000D01*
X176300000Y-98520000D02*
X176630000Y-98520000D01*
X173890000Y-91980000D02*
X174220000Y-91980000D01*
X173890000Y-98520000D02*
X173890000Y-91980000D01*
X174220000Y-98520000D02*
X173890000Y-98520000D01*
X176630000Y-104680000D02*
X176300000Y-104680000D01*
X176630000Y-111220000D02*
X176630000Y-104680000D01*
X176300000Y-111220000D02*
X176630000Y-111220000D01*
X173890000Y-104680000D02*
X174220000Y-104680000D01*
X173890000Y-111220000D02*
X173890000Y-104680000D01*
X174220000Y-111220000D02*
X173890000Y-111220000D01*
X179300000Y-98520000D02*
X178970000Y-98520000D01*
X178970000Y-98520000D02*
X178970000Y-91980000D01*
X178970000Y-91980000D02*
X179300000Y-91980000D01*
X181380000Y-98520000D02*
X181710000Y-98520000D01*
X181710000Y-98520000D02*
X181710000Y-91980000D01*
X181710000Y-91980000D02*
X181380000Y-91980000D01*
X81280000Y-71180000D02*
X79950000Y-71180000D01*
X82550000Y-71180000D02*
X82550000Y-68520000D01*
X130870000Y-71180000D02*
X130870000Y-68520000D01*
X82550000Y-71180000D02*
X130870000Y-71180000D01*
X79950000Y-71180000D02*
X79950000Y-69850000D01*
X82550000Y-68520000D02*
X130870000Y-68520000D01*
X80010000Y-53280000D02*
X128330000Y-53280000D01*
X77410000Y-55940000D02*
X77410000Y-54610000D01*
X80010000Y-55940000D02*
X128330000Y-55940000D01*
X128330000Y-55940000D02*
X128330000Y-53280000D01*
X80010000Y-55940000D02*
X80010000Y-53280000D01*
X78740000Y-55940000D02*
X77410000Y-55940000D01*
X130810000Y-53280000D02*
X179130000Y-53280000D01*
X128210000Y-55940000D02*
X128210000Y-54610000D01*
X130810000Y-55940000D02*
X179130000Y-55940000D01*
X179130000Y-55940000D02*
X179130000Y-53280000D01*
X130810000Y-55940000D02*
X130810000Y-53280000D01*
X129540000Y-55940000D02*
X128210000Y-55940000D01*
X100390000Y-111700000D02*
X97730000Y-111700000D01*
X100390000Y-129540000D02*
X100390000Y-111700000D01*
X97730000Y-129540000D02*
X97730000Y-111700000D01*
X100390000Y-129540000D02*
X97730000Y-129540000D01*
X100390000Y-130810000D02*
X100390000Y-132140000D01*
X100390000Y-132140000D02*
X99060000Y-132140000D01*
X111700000Y-116780000D02*
X111700000Y-119440000D01*
X134620000Y-116780000D02*
X111700000Y-116780000D01*
X134620000Y-119440000D02*
X111700000Y-119440000D01*
X134620000Y-116780000D02*
X134620000Y-119440000D01*
X135890000Y-116780000D02*
X137220000Y-116780000D01*
X137220000Y-116780000D02*
X137220000Y-118110000D01*
X137220000Y-129480000D02*
X137220000Y-130810000D01*
X135890000Y-129480000D02*
X137220000Y-129480000D01*
X134620000Y-129480000D02*
X134620000Y-132140000D01*
X134620000Y-132140000D02*
X111700000Y-132140000D01*
X134620000Y-129480000D02*
X111700000Y-129480000D01*
X111700000Y-129480000D02*
X111700000Y-132140000D01*
X156150000Y-109280000D02*
X161350000Y-109280000D01*
X156150000Y-104140000D02*
X156150000Y-109280000D01*
X161350000Y-101540000D02*
X161350000Y-109280000D01*
X156150000Y-104140000D02*
X158750000Y-104140000D01*
X158750000Y-104140000D02*
X158750000Y-101540000D01*
X158750000Y-101540000D02*
X161350000Y-101540000D01*
X156150000Y-102870000D02*
X156150000Y-101540000D01*
X156150000Y-101540000D02*
X157480000Y-101540000D01*
X177860000Y-120590000D02*
X175200000Y-120590000D01*
X177860000Y-127000000D02*
X177860000Y-128330000D01*
X175200000Y-125730000D02*
X175200000Y-120590000D01*
X177860000Y-125730000D02*
X177860000Y-120590000D01*
X177860000Y-128330000D02*
X176530000Y-128330000D01*
X177860000Y-125730000D02*
X175200000Y-125730000D01*
D10*
X126452380Y-70659523D02*
X127166666Y-70659523D01*
X127309523Y-70707142D01*
X127404761Y-70802380D01*
X127452380Y-70945238D01*
X127452380Y-71040476D01*
X127452380Y-69659523D02*
X127452380Y-70230952D01*
X127452380Y-69945238D02*
X126452380Y-69945238D01*
X126595238Y-70040476D01*
X126690476Y-70135714D01*
X126738095Y-70230952D01*
X126547619Y-69278571D02*
X126500000Y-69230952D01*
X126452380Y-69135714D01*
X126452380Y-68897619D01*
X126500000Y-68802380D01*
X126547619Y-68754761D01*
X126642857Y-68707142D01*
X126738095Y-68707142D01*
X126880952Y-68754761D01*
X127452380Y-69326190D01*
X127452380Y-68707142D01*
X178422380Y-108116666D02*
X177946190Y-108450000D01*
X178422380Y-108688095D02*
X177422380Y-108688095D01*
X177422380Y-108307142D01*
X177470000Y-108211904D01*
X177517619Y-108164285D01*
X177612857Y-108116666D01*
X177755714Y-108116666D01*
X177850952Y-108164285D01*
X177898571Y-108211904D01*
X177946190Y-108307142D01*
X177946190Y-108688095D01*
X177850952Y-107545238D02*
X177803333Y-107640476D01*
X177755714Y-107688095D01*
X177660476Y-107735714D01*
X177612857Y-107735714D01*
X177517619Y-107688095D01*
X177470000Y-107640476D01*
X177422380Y-107545238D01*
X177422380Y-107354761D01*
X177470000Y-107259523D01*
X177517619Y-107211904D01*
X177612857Y-107164285D01*
X177660476Y-107164285D01*
X177755714Y-107211904D01*
X177803333Y-107259523D01*
X177850952Y-107354761D01*
X177850952Y-107545238D01*
X177898571Y-107640476D01*
X177946190Y-107688095D01*
X178041428Y-107735714D01*
X178231904Y-107735714D01*
X178327142Y-107688095D01*
X178374761Y-107640476D01*
X178422380Y-107545238D01*
X178422380Y-107354761D01*
X178374761Y-107259523D01*
X178327142Y-107211904D01*
X178231904Y-107164285D01*
X178041428Y-107164285D01*
X177946190Y-107211904D01*
X177898571Y-107259523D01*
X177850952Y-107354761D01*
X150372380Y-82883333D02*
X151086666Y-82883333D01*
X151229523Y-82930952D01*
X151324761Y-83026190D01*
X151372380Y-83169047D01*
X151372380Y-83264285D01*
X150705714Y-81978571D02*
X151372380Y-81978571D01*
X150324761Y-82216666D02*
X151039047Y-82454761D01*
X151039047Y-81835714D01*
X150372380Y-87963333D02*
X151086666Y-87963333D01*
X151229523Y-88010952D01*
X151324761Y-88106190D01*
X151372380Y-88249047D01*
X151372380Y-88344285D01*
X150372380Y-87010952D02*
X150372380Y-87487142D01*
X150848571Y-87534761D01*
X150800952Y-87487142D01*
X150753333Y-87391904D01*
X150753333Y-87153809D01*
X150800952Y-87058571D01*
X150848571Y-87010952D01*
X150943809Y-86963333D01*
X151181904Y-86963333D01*
X151277142Y-87010952D01*
X151324761Y-87058571D01*
X151372380Y-87153809D01*
X151372380Y-87391904D01*
X151324761Y-87487142D01*
X151277142Y-87534761D01*
X150372380Y-103203333D02*
X151086666Y-103203333D01*
X151229523Y-103250952D01*
X151324761Y-103346190D01*
X151372380Y-103489047D01*
X151372380Y-103584285D01*
X150372380Y-102298571D02*
X150372380Y-102489047D01*
X150420000Y-102584285D01*
X150467619Y-102631904D01*
X150610476Y-102727142D01*
X150800952Y-102774761D01*
X151181904Y-102774761D01*
X151277142Y-102727142D01*
X151324761Y-102679523D01*
X151372380Y-102584285D01*
X151372380Y-102393809D01*
X151324761Y-102298571D01*
X151277142Y-102250952D01*
X151181904Y-102203333D01*
X150943809Y-102203333D01*
X150848571Y-102250952D01*
X150800952Y-102298571D01*
X150753333Y-102393809D01*
X150753333Y-102584285D01*
X150800952Y-102679523D01*
X150848571Y-102727142D01*
X150943809Y-102774761D01*
X150372380Y-108283333D02*
X151086666Y-108283333D01*
X151229523Y-108330952D01*
X151324761Y-108426190D01*
X151372380Y-108569047D01*
X151372380Y-108664285D01*
X150372380Y-107902380D02*
X150372380Y-107235714D01*
X151372380Y-107664285D01*
X65706666Y-96762380D02*
X65706666Y-97476666D01*
X65659047Y-97619523D01*
X65563809Y-97714761D01*
X65420952Y-97762380D01*
X65325714Y-97762380D01*
X66706666Y-97762380D02*
X66135238Y-97762380D01*
X66420952Y-97762380D02*
X66420952Y-96762380D01*
X66325714Y-96905238D01*
X66230476Y-97000476D01*
X66135238Y-97048095D01*
X65706666Y-132322380D02*
X65706666Y-133036666D01*
X65659047Y-133179523D01*
X65563809Y-133274761D01*
X65420952Y-133322380D01*
X65325714Y-133322380D01*
X66135238Y-132417619D02*
X66182857Y-132370000D01*
X66278095Y-132322380D01*
X66516190Y-132322380D01*
X66611428Y-132370000D01*
X66659047Y-132417619D01*
X66706666Y-132512857D01*
X66706666Y-132608095D01*
X66659047Y-132750952D01*
X66087619Y-133322380D01*
X66706666Y-133322380D01*
X171116666Y-122642380D02*
X171116666Y-123356666D01*
X171069047Y-123499523D01*
X170973809Y-123594761D01*
X170830952Y-123642380D01*
X170735714Y-123642380D01*
X171497619Y-122642380D02*
X172116666Y-122642380D01*
X171783333Y-123023333D01*
X171926190Y-123023333D01*
X172021428Y-123070952D01*
X172069047Y-123118571D01*
X172116666Y-123213809D01*
X172116666Y-123451904D01*
X172069047Y-123547142D01*
X172021428Y-123594761D01*
X171926190Y-123642380D01*
X171640476Y-123642380D01*
X171545238Y-123594761D01*
X171497619Y-123547142D01*
X166036666Y-122642380D02*
X166036666Y-123356666D01*
X165989047Y-123499523D01*
X165893809Y-123594761D01*
X165750952Y-123642380D01*
X165655714Y-123642380D01*
X166655714Y-123070952D02*
X166560476Y-123023333D01*
X166512857Y-122975714D01*
X166465238Y-122880476D01*
X166465238Y-122832857D01*
X166512857Y-122737619D01*
X166560476Y-122690000D01*
X166655714Y-122642380D01*
X166846190Y-122642380D01*
X166941428Y-122690000D01*
X166989047Y-122737619D01*
X167036666Y-122832857D01*
X167036666Y-122880476D01*
X166989047Y-122975714D01*
X166941428Y-123023333D01*
X166846190Y-123070952D01*
X166655714Y-123070952D01*
X166560476Y-123118571D01*
X166512857Y-123166190D01*
X166465238Y-123261428D01*
X166465238Y-123451904D01*
X166512857Y-123547142D01*
X166560476Y-123594761D01*
X166655714Y-123642380D01*
X166846190Y-123642380D01*
X166941428Y-123594761D01*
X166989047Y-123547142D01*
X167036666Y-123451904D01*
X167036666Y-123261428D01*
X166989047Y-123166190D01*
X166941428Y-123118571D01*
X166846190Y-123070952D01*
X169842380Y-84153333D02*
X170556666Y-84153333D01*
X170699523Y-84200952D01*
X170794761Y-84296190D01*
X170842380Y-84439047D01*
X170842380Y-84534285D01*
X170842380Y-83629523D02*
X170842380Y-83439047D01*
X170794761Y-83343809D01*
X170747142Y-83296190D01*
X170604285Y-83200952D01*
X170413809Y-83153333D01*
X170032857Y-83153333D01*
X169937619Y-83200952D01*
X169890000Y-83248571D01*
X169842380Y-83343809D01*
X169842380Y-83534285D01*
X169890000Y-83629523D01*
X169937619Y-83677142D01*
X170032857Y-83724761D01*
X170270952Y-83724761D01*
X170366190Y-83677142D01*
X170413809Y-83629523D01*
X170461428Y-83534285D01*
X170461428Y-83343809D01*
X170413809Y-83248571D01*
X170366190Y-83200952D01*
X170270952Y-83153333D01*
X160480476Y-122642380D02*
X160480476Y-123356666D01*
X160432857Y-123499523D01*
X160337619Y-123594761D01*
X160194761Y-123642380D01*
X160099523Y-123642380D01*
X161480476Y-123642380D02*
X160909047Y-123642380D01*
X161194761Y-123642380D02*
X161194761Y-122642380D01*
X161099523Y-122785238D01*
X161004285Y-122880476D01*
X160909047Y-122928095D01*
X162099523Y-122642380D02*
X162194761Y-122642380D01*
X162290000Y-122690000D01*
X162337619Y-122737619D01*
X162385238Y-122832857D01*
X162432857Y-123023333D01*
X162432857Y-123261428D01*
X162385238Y-123451904D01*
X162337619Y-123547142D01*
X162290000Y-123594761D01*
X162194761Y-123642380D01*
X162099523Y-123642380D01*
X162004285Y-123594761D01*
X161956666Y-123547142D01*
X161909047Y-123451904D01*
X161861428Y-123261428D01*
X161861428Y-123023333D01*
X161909047Y-122832857D01*
X161956666Y-122737619D01*
X162004285Y-122690000D01*
X162099523Y-122642380D01*
X173342380Y-95416666D02*
X172866190Y-95750000D01*
X173342380Y-95988095D02*
X172342380Y-95988095D01*
X172342380Y-95607142D01*
X172390000Y-95511904D01*
X172437619Y-95464285D01*
X172532857Y-95416666D01*
X172675714Y-95416666D01*
X172770952Y-95464285D01*
X172818571Y-95511904D01*
X172866190Y-95607142D01*
X172866190Y-95988095D01*
X172342380Y-94511904D02*
X172342380Y-94988095D01*
X172818571Y-95035714D01*
X172770952Y-94988095D01*
X172723333Y-94892857D01*
X172723333Y-94654761D01*
X172770952Y-94559523D01*
X172818571Y-94511904D01*
X172913809Y-94464285D01*
X173151904Y-94464285D01*
X173247142Y-94511904D01*
X173294761Y-94559523D01*
X173342380Y-94654761D01*
X173342380Y-94892857D01*
X173294761Y-94988095D01*
X173247142Y-95035714D01*
X173342380Y-108116666D02*
X172866190Y-108450000D01*
X173342380Y-108688095D02*
X172342380Y-108688095D01*
X172342380Y-108307142D01*
X172390000Y-108211904D01*
X172437619Y-108164285D01*
X172532857Y-108116666D01*
X172675714Y-108116666D01*
X172770952Y-108164285D01*
X172818571Y-108211904D01*
X172866190Y-108307142D01*
X172866190Y-108688095D01*
X172342380Y-107259523D02*
X172342380Y-107450000D01*
X172390000Y-107545238D01*
X172437619Y-107592857D01*
X172580476Y-107688095D01*
X172770952Y-107735714D01*
X173151904Y-107735714D01*
X173247142Y-107688095D01*
X173294761Y-107640476D01*
X173342380Y-107545238D01*
X173342380Y-107354761D01*
X173294761Y-107259523D01*
X173247142Y-107211904D01*
X173151904Y-107164285D01*
X172913809Y-107164285D01*
X172818571Y-107211904D01*
X172770952Y-107259523D01*
X172723333Y-107354761D01*
X172723333Y-107545238D01*
X172770952Y-107640476D01*
X172818571Y-107688095D01*
X172913809Y-107735714D01*
X178422380Y-95416666D02*
X177946190Y-95750000D01*
X178422380Y-95988095D02*
X177422380Y-95988095D01*
X177422380Y-95607142D01*
X177470000Y-95511904D01*
X177517619Y-95464285D01*
X177612857Y-95416666D01*
X177755714Y-95416666D01*
X177850952Y-95464285D01*
X177898571Y-95511904D01*
X177946190Y-95607142D01*
X177946190Y-95988095D01*
X177422380Y-95083333D02*
X177422380Y-94416666D01*
X178422380Y-94845238D01*
X75652380Y-70659523D02*
X76366666Y-70659523D01*
X76509523Y-70707142D01*
X76604761Y-70802380D01*
X76652380Y-70945238D01*
X76652380Y-71040476D01*
X76652380Y-69659523D02*
X76652380Y-70230952D01*
X76652380Y-69945238D02*
X75652380Y-69945238D01*
X75795238Y-70040476D01*
X75890476Y-70135714D01*
X75938095Y-70230952D01*
X76652380Y-68707142D02*
X76652380Y-69278571D01*
X76652380Y-68992857D02*
X75652380Y-68992857D01*
X75795238Y-69088095D01*
X75890476Y-69183333D01*
X75938095Y-69278571D01*
X73112380Y-55419523D02*
X73826666Y-55419523D01*
X73969523Y-55467142D01*
X74064761Y-55562380D01*
X74112380Y-55705238D01*
X74112380Y-55800476D01*
X74112380Y-54419523D02*
X74112380Y-54990952D01*
X74112380Y-54705238D02*
X73112380Y-54705238D01*
X73255238Y-54800476D01*
X73350476Y-54895714D01*
X73398095Y-54990952D01*
X73112380Y-54086190D02*
X73112380Y-53467142D01*
X73493333Y-53800476D01*
X73493333Y-53657619D01*
X73540952Y-53562380D01*
X73588571Y-53514761D01*
X73683809Y-53467142D01*
X73921904Y-53467142D01*
X74017142Y-53514761D01*
X74064761Y-53562380D01*
X74112380Y-53657619D01*
X74112380Y-53943333D01*
X74064761Y-54038571D01*
X74017142Y-54086190D01*
X123912380Y-55419523D02*
X124626666Y-55419523D01*
X124769523Y-55467142D01*
X124864761Y-55562380D01*
X124912380Y-55705238D01*
X124912380Y-55800476D01*
X124912380Y-54419523D02*
X124912380Y-54990952D01*
X124912380Y-54705238D02*
X123912380Y-54705238D01*
X124055238Y-54800476D01*
X124150476Y-54895714D01*
X124198095Y-54990952D01*
X124245714Y-53562380D02*
X124912380Y-53562380D01*
X123864761Y-53800476D02*
X124579047Y-54038571D01*
X124579047Y-53419523D01*
X98250476Y-132592380D02*
X98250476Y-133306666D01*
X98202857Y-133449523D01*
X98107619Y-133544761D01*
X97964761Y-133592380D01*
X97869523Y-133592380D01*
X99250476Y-133592380D02*
X98679047Y-133592380D01*
X98964761Y-133592380D02*
X98964761Y-132592380D01*
X98869523Y-132735238D01*
X98774285Y-132830476D01*
X98679047Y-132878095D01*
X100155238Y-132592380D02*
X99679047Y-132592380D01*
X99631428Y-133068571D01*
X99679047Y-133020952D01*
X99774285Y-132973333D01*
X100012380Y-132973333D01*
X100107619Y-133020952D01*
X100155238Y-133068571D01*
X100202857Y-133163809D01*
X100202857Y-133401904D01*
X100155238Y-133497142D01*
X100107619Y-133544761D01*
X100012380Y-133592380D01*
X99774285Y-133592380D01*
X99679047Y-133544761D01*
X99631428Y-133497142D01*
X137672380Y-118919523D02*
X138386666Y-118919523D01*
X138529523Y-118967142D01*
X138624761Y-119062380D01*
X138672380Y-119205238D01*
X138672380Y-119300476D01*
X138672380Y-117919523D02*
X138672380Y-118490952D01*
X138672380Y-118205238D02*
X137672380Y-118205238D01*
X137815238Y-118300476D01*
X137910476Y-118395714D01*
X137958095Y-118490952D01*
X137672380Y-117062380D02*
X137672380Y-117252857D01*
X137720000Y-117348095D01*
X137767619Y-117395714D01*
X137910476Y-117490952D01*
X138100952Y-117538571D01*
X138481904Y-117538571D01*
X138577142Y-117490952D01*
X138624761Y-117443333D01*
X138672380Y-117348095D01*
X138672380Y-117157619D01*
X138624761Y-117062380D01*
X138577142Y-117014761D01*
X138481904Y-116967142D01*
X138243809Y-116967142D01*
X138148571Y-117014761D01*
X138100952Y-117062380D01*
X138053333Y-117157619D01*
X138053333Y-117348095D01*
X138100952Y-117443333D01*
X138148571Y-117490952D01*
X138243809Y-117538571D01*
X137672380Y-131619523D02*
X138386666Y-131619523D01*
X138529523Y-131667142D01*
X138624761Y-131762380D01*
X138672380Y-131905238D01*
X138672380Y-132000476D01*
X138672380Y-130619523D02*
X138672380Y-131190952D01*
X138672380Y-130905238D02*
X137672380Y-130905238D01*
X137815238Y-131000476D01*
X137910476Y-131095714D01*
X137958095Y-131190952D01*
X137672380Y-130286190D02*
X137672380Y-129619523D01*
X138672380Y-130048095D01*
X162385476Y-104862380D02*
X162385476Y-105576666D01*
X162337857Y-105719523D01*
X162242619Y-105814761D01*
X162099761Y-105862380D01*
X162004523Y-105862380D01*
X163385476Y-105862380D02*
X162814047Y-105862380D01*
X163099761Y-105862380D02*
X163099761Y-104862380D01*
X163004523Y-105005238D01*
X162909285Y-105100476D01*
X162814047Y-105148095D01*
X163956904Y-105290952D02*
X163861666Y-105243333D01*
X163814047Y-105195714D01*
X163766428Y-105100476D01*
X163766428Y-105052857D01*
X163814047Y-104957619D01*
X163861666Y-104910000D01*
X163956904Y-104862380D01*
X164147380Y-104862380D01*
X164242619Y-104910000D01*
X164290238Y-104957619D01*
X164337857Y-105052857D01*
X164337857Y-105100476D01*
X164290238Y-105195714D01*
X164242619Y-105243333D01*
X164147380Y-105290952D01*
X163956904Y-105290952D01*
X163861666Y-105338571D01*
X163814047Y-105386190D01*
X163766428Y-105481428D01*
X163766428Y-105671904D01*
X163814047Y-105767142D01*
X163861666Y-105814761D01*
X163956904Y-105862380D01*
X164147380Y-105862380D01*
X164242619Y-105814761D01*
X164290238Y-105767142D01*
X164337857Y-105671904D01*
X164337857Y-105481428D01*
X164290238Y-105386190D01*
X164242619Y-105338571D01*
X164147380Y-105290952D01*
X178895476Y-126452380D02*
X178895476Y-127166666D01*
X178847857Y-127309523D01*
X178752619Y-127404761D01*
X178609761Y-127452380D01*
X178514523Y-127452380D01*
X179895476Y-127452380D02*
X179324047Y-127452380D01*
X179609761Y-127452380D02*
X179609761Y-126452380D01*
X179514523Y-126595238D01*
X179419285Y-126690476D01*
X179324047Y-126738095D01*
X180371666Y-127452380D02*
X180562142Y-127452380D01*
X180657380Y-127404761D01*
X180705000Y-127357142D01*
X180800238Y-127214285D01*
X180847857Y-127023809D01*
X180847857Y-126642857D01*
X180800238Y-126547619D01*
X180752619Y-126500000D01*
X180657380Y-126452380D01*
X180466904Y-126452380D01*
X180371666Y-126500000D01*
X180324047Y-126547619D01*
X180276428Y-126642857D01*
X180276428Y-126880952D01*
X180324047Y-126976190D01*
X180371666Y-127023809D01*
X180466904Y-127071428D01*
X180657380Y-127071428D01*
X180752619Y-127023809D01*
X180800238Y-126976190D01*
X180847857Y-126880952D01*
M02*
